<mxfile host="Electron" modified="2023-12-31T15:28:44.851Z" agent="Mozilla/5.0 (Windows NT 10.0; Win64; x64) AppleWebKit/537.36 (KHTML, like Gecko) draw.io/22.1.16 Chrome/120.0.6099.109 Electron/28.1.0 Safari/537.36" etag="Q5Pntmf-Ku04kSce2os_" version="22.1.16" type="device">
  <diagram id="g14Oea-tgTKWBe18Kugv" name="Page-1">
    <mxGraphModel dx="2188" dy="2088" grid="1" gridSize="10" guides="1" tooltips="1" connect="1" arrows="1" fold="1" page="1" pageScale="1" pageWidth="850" pageHeight="1100" math="0" shadow="0">
      <root>
        <mxCell id="0" />
        <mxCell id="1" parent="0" />
        <mxCell id="gLxaz6misHDndj6tIjfW-1" value="US Armed Forces 1970s" style="rounded=0;whiteSpace=wrap;html=1;" parent="1" vertex="1">
          <mxGeometry x="1110" width="120" height="60" as="geometry" />
        </mxCell>
        <mxCell id="gLxaz6misHDndj6tIjfW-2" style="edgeStyle=orthogonalEdgeStyle;rounded=0;orthogonalLoop=1;jettySize=auto;html=1;" parent="1" source="gLxaz6misHDndj6tIjfW-4" target="gLxaz6misHDndj6tIjfW-7" edge="1">
          <mxGeometry relative="1" as="geometry" />
        </mxCell>
        <mxCell id="gLxaz6misHDndj6tIjfW-3" style="edgeStyle=orthogonalEdgeStyle;rounded=0;orthogonalLoop=1;jettySize=auto;html=1;" parent="1" source="gLxaz6misHDndj6tIjfW-4" target="gLxaz6misHDndj6tIjfW-10" edge="1">
          <mxGeometry relative="1" as="geometry" />
        </mxCell>
        <mxCell id="gLxaz6misHDndj6tIjfW-4" value="US Army" style="rounded=0;whiteSpace=wrap;html=1;" parent="1" vertex="1">
          <mxGeometry x="330" y="160" width="120" height="60" as="geometry" />
        </mxCell>
        <mxCell id="gLxaz6misHDndj6tIjfW-5" style="edgeStyle=orthogonalEdgeStyle;rounded=0;orthogonalLoop=1;jettySize=auto;html=1;" parent="1" source="gLxaz6misHDndj6tIjfW-7" target="gLxaz6misHDndj6tIjfW-18" edge="1">
          <mxGeometry relative="1" as="geometry" />
        </mxCell>
        <mxCell id="gLxaz6misHDndj6tIjfW-6" style="edgeStyle=orthogonalEdgeStyle;rounded=0;orthogonalLoop=1;jettySize=auto;html=1;" parent="1" source="gLxaz6misHDndj6tIjfW-7" target="gLxaz6misHDndj6tIjfW-20" edge="1">
          <mxGeometry relative="1" as="geometry" />
        </mxCell>
        <mxCell id="gLxaz6misHDndj6tIjfW-7" value="&lt;span&gt;Improve the M113&lt;/span&gt;" style="rounded=0;whiteSpace=wrap;html=1;" parent="1" vertex="1">
          <mxGeometry x="130" y="260" width="120" height="60" as="geometry" />
        </mxCell>
        <mxCell id="gLxaz6misHDndj6tIjfW-8" style="edgeStyle=orthogonalEdgeStyle;rounded=0;orthogonalLoop=1;jettySize=auto;html=1;" parent="1" source="gLxaz6misHDndj6tIjfW-10" target="gLxaz6misHDndj6tIjfW-15" edge="1">
          <mxGeometry relative="1" as="geometry" />
        </mxCell>
        <mxCell id="gLxaz6misHDndj6tIjfW-9" style="edgeStyle=orthogonalEdgeStyle;rounded=0;orthogonalLoop=1;jettySize=auto;html=1;" parent="1" source="gLxaz6misHDndj6tIjfW-10" target="gLxaz6misHDndj6tIjfW-12" edge="1">
          <mxGeometry relative="1" as="geometry" />
        </mxCell>
        <mxCell id="gLxaz6misHDndj6tIjfW-10" value="M939 5 ton 6x6" style="rounded=0;whiteSpace=wrap;html=1;" parent="1" vertex="1">
          <mxGeometry x="540" y="260" width="120" height="60" as="geometry" />
        </mxCell>
        <mxCell id="gLxaz6misHDndj6tIjfW-11" style="edgeStyle=orthogonalEdgeStyle;rounded=0;orthogonalLoop=1;jettySize=auto;html=1;" parent="1" source="gLxaz6misHDndj6tIjfW-12" target="gLxaz6misHDndj6tIjfW-15" edge="1">
          <mxGeometry relative="1" as="geometry" />
        </mxCell>
        <mxCell id="gLxaz6misHDndj6tIjfW-12" value="Continue Development of Gun ATGMs" style="rounded=0;whiteSpace=wrap;html=1;" parent="1" vertex="1">
          <mxGeometry x="630" y="360" width="120" height="60" as="geometry" />
        </mxCell>
        <mxCell id="gLxaz6misHDndj6tIjfW-13" value="" style="edgeStyle=orthogonalEdgeStyle;rounded=0;orthogonalLoop=1;jettySize=auto;html=1;" parent="1" source="gLxaz6misHDndj6tIjfW-15" target="gLxaz6misHDndj6tIjfW-12" edge="1">
          <mxGeometry relative="1" as="geometry" />
        </mxCell>
        <mxCell id="gLxaz6misHDndj6tIjfW-14" style="edgeStyle=orthogonalEdgeStyle;rounded=0;orthogonalLoop=1;jettySize=auto;html=1;" parent="1" source="gLxaz6misHDndj6tIjfW-15" target="gLxaz6misHDndj6tIjfW-24" edge="1">
          <mxGeometry relative="1" as="geometry" />
        </mxCell>
        <mxCell id="gLxaz6misHDndj6tIjfW-15" value="The TOW Missile" style="rounded=0;whiteSpace=wrap;html=1;" parent="1" vertex="1">
          <mxGeometry x="450" y="360" width="120" height="60" as="geometry" />
        </mxCell>
        <mxCell id="gLxaz6misHDndj6tIjfW-16" style="edgeStyle=orthogonalEdgeStyle;rounded=0;orthogonalLoop=1;jettySize=auto;html=1;" parent="1" source="gLxaz6misHDndj6tIjfW-18" target="gLxaz6misHDndj6tIjfW-22" edge="1">
          <mxGeometry relative="1" as="geometry" />
        </mxCell>
        <mxCell id="gLxaz6misHDndj6tIjfW-17" style="edgeStyle=orthogonalEdgeStyle;rounded=0;orthogonalLoop=1;jettySize=auto;html=1;" parent="1" source="gLxaz6misHDndj6tIjfW-18" target="gLxaz6misHDndj6tIjfW-20" edge="1">
          <mxGeometry relative="1" as="geometry" />
        </mxCell>
        <mxCell id="gLxaz6misHDndj6tIjfW-18" value="Widen M113 Deployment" style="rounded=0;whiteSpace=wrap;html=1;" parent="1" vertex="1">
          <mxGeometry x="200" y="360" width="120" height="60" as="geometry" />
        </mxCell>
        <mxCell id="gLxaz6misHDndj6tIjfW-19" style="edgeStyle=orthogonalEdgeStyle;rounded=0;orthogonalLoop=1;jettySize=auto;html=1;" parent="1" source="gLxaz6misHDndj6tIjfW-20" target="gLxaz6misHDndj6tIjfW-18" edge="1">
          <mxGeometry relative="1" as="geometry">
            <mxPoint x="170" y="390" as="targetPoint" />
          </mxGeometry>
        </mxCell>
        <mxCell id="gLxaz6misHDndj6tIjfW-20" value="The MICV Project" style="rounded=0;whiteSpace=wrap;html=1;" parent="1" vertex="1">
          <mxGeometry x="40" y="360" width="120" height="60" as="geometry" />
        </mxCell>
        <mxCell id="gLxaz6misHDndj6tIjfW-21" style="edgeStyle=orthogonalEdgeStyle;rounded=0;orthogonalLoop=1;jettySize=auto;html=1;" parent="1" source="gLxaz6misHDndj6tIjfW-22" target="gLxaz6misHDndj6tIjfW-25" edge="1">
          <mxGeometry relative="1" as="geometry">
            <Array as="points">
              <mxPoint x="300" y="540" />
              <mxPoint x="390" y="540" />
            </Array>
          </mxGeometry>
        </mxCell>
        <mxCell id="gLxaz6misHDndj6tIjfW-22" value="M113 Combat Support Integration" style="rounded=0;whiteSpace=wrap;html=1;" parent="1" vertex="1">
          <mxGeometry x="240" y="470" width="120" height="60" as="geometry" />
        </mxCell>
        <mxCell id="gLxaz6misHDndj6tIjfW-23" style="edgeStyle=orthogonalEdgeStyle;rounded=0;orthogonalLoop=1;jettySize=auto;html=1;" parent="1" source="gLxaz6misHDndj6tIjfW-24" target="gLxaz6misHDndj6tIjfW-25" edge="1">
          <mxGeometry relative="1" as="geometry">
            <Array as="points">
              <mxPoint x="480" y="540" />
              <mxPoint x="390" y="540" />
            </Array>
          </mxGeometry>
        </mxCell>
        <mxCell id="gLxaz6misHDndj6tIjfW-24" value="The M60A3" style="rounded=0;whiteSpace=wrap;html=1;" parent="1" vertex="1">
          <mxGeometry x="420" y="470" width="120" height="60" as="geometry" />
        </mxCell>
        <mxCell id="gLxaz6misHDndj6tIjfW-25" value="The M1 Abrams" style="rounded=0;whiteSpace=wrap;html=1;" parent="1" vertex="1">
          <mxGeometry x="330" y="560" width="120" height="60" as="geometry" />
        </mxCell>
        <mxCell id="gLxaz6misHDndj6tIjfW-26" style="edgeStyle=orthogonalEdgeStyle;rounded=0;orthogonalLoop=1;jettySize=auto;html=1;" parent="1" source="gLxaz6misHDndj6tIjfW-28" target="gLxaz6misHDndj6tIjfW-43" edge="1">
          <mxGeometry relative="1" as="geometry" />
        </mxCell>
        <mxCell id="gLxaz6misHDndj6tIjfW-27" style="edgeStyle=orthogonalEdgeStyle;rounded=0;orthogonalLoop=1;jettySize=auto;html=1;" parent="1" source="gLxaz6misHDndj6tIjfW-28" target="gLxaz6misHDndj6tIjfW-46" edge="1">
          <mxGeometry relative="1" as="geometry" />
        </mxCell>
        <mxCell id="gLxaz6misHDndj6tIjfW-28" value="The Navy&#39;s 20th Decade" style="rounded=0;whiteSpace=wrap;html=1;" parent="1" vertex="1">
          <mxGeometry x="1110" y="160" width="120" height="60" as="geometry" />
        </mxCell>
        <mxCell id="gLxaz6misHDndj6tIjfW-29" style="edgeStyle=orthogonalEdgeStyle;rounded=0;orthogonalLoop=1;jettySize=auto;html=1;" parent="1" source="gLxaz6misHDndj6tIjfW-31" target="gLxaz6misHDndj6tIjfW-62" edge="1">
          <mxGeometry relative="1" as="geometry" />
        </mxCell>
        <mxCell id="gLxaz6misHDndj6tIjfW-30" style="edgeStyle=orthogonalEdgeStyle;rounded=0;orthogonalLoop=1;jettySize=auto;html=1;" parent="1" source="gLxaz6misHDndj6tIjfW-31" target="gLxaz6misHDndj6tIjfW-65" edge="1">
          <mxGeometry relative="1" as="geometry" />
        </mxCell>
        <mxCell id="gLxaz6misHDndj6tIjfW-31" value="US Air Force Strategic Refactoring&amp;nbsp;" style="rounded=0;whiteSpace=wrap;html=1;" parent="1" vertex="1">
          <mxGeometry x="1910" y="170" width="120" height="60" as="geometry" />
        </mxCell>
        <mxCell id="gLxaz6misHDndj6tIjfW-32" style="edgeStyle=orthogonalEdgeStyle;rounded=0;orthogonalLoop=1;jettySize=auto;html=1;" parent="1" source="gLxaz6misHDndj6tIjfW-35" target="gLxaz6misHDndj6tIjfW-39" edge="1">
          <mxGeometry relative="1" as="geometry" />
        </mxCell>
        <mxCell id="gLxaz6misHDndj6tIjfW-33" style="edgeStyle=orthogonalEdgeStyle;rounded=0;orthogonalLoop=1;jettySize=auto;html=1;" parent="1" source="gLxaz6misHDndj6tIjfW-35" target="gLxaz6misHDndj6tIjfW-37" edge="1">
          <mxGeometry relative="1" as="geometry" />
        </mxCell>
        <mxCell id="gLxaz6misHDndj6tIjfW-34" style="edgeStyle=orthogonalEdgeStyle;rounded=0;orthogonalLoop=1;jettySize=auto;html=1;" parent="1" source="gLxaz6misHDndj6tIjfW-35" target="gLxaz6misHDndj6tIjfW-36" edge="1">
          <mxGeometry relative="1" as="geometry" />
        </mxCell>
        <mxCell id="gLxaz6misHDndj6tIjfW-35" value="PAVE Phased Array Warning System" style="rounded=0;whiteSpace=wrap;html=1;" parent="1" vertex="1">
          <mxGeometry x="-260" y="185" width="120" height="60" as="geometry" />
        </mxCell>
        <mxCell id="gLxaz6misHDndj6tIjfW-36" value="Upgrade Ohio-based SLBMs" style="rounded=0;whiteSpace=wrap;html=1;" parent="1" vertex="1">
          <mxGeometry x="-125" y="275" width="120" height="60" as="geometry" />
        </mxCell>
        <mxCell id="gLxaz6misHDndj6tIjfW-37" value="Deploy Ground-Launched Tomahawks to Europe" style="rounded=0;whiteSpace=wrap;html=1;" parent="1" vertex="1">
          <mxGeometry x="-400" y="275" width="120" height="60" as="geometry" />
        </mxCell>
        <mxCell id="gLxaz6misHDndj6tIjfW-38" value="" style="edgeStyle=orthogonalEdgeStyle;rounded=0;orthogonalLoop=1;jettySize=auto;html=1;" parent="1" source="gLxaz6misHDndj6tIjfW-39" target="gLxaz6misHDndj6tIjfW-40" edge="1">
          <mxGeometry relative="1" as="geometry" />
        </mxCell>
        <mxCell id="gLxaz6misHDndj6tIjfW-39" value="&lt;h2&gt;&lt;span class=&quot;mw-headline&quot; id=&quot;Advanced_Maneuverable_Reentry_Vehicle&quot; style=&quot;font-weight: normal&quot;&gt;&lt;font style=&quot;font-size: 12px&quot;&gt;Advanced Maneuverable Reentry Vehicle&lt;/font&gt;&lt;/span&gt;&lt;/h2&gt;" style="rounded=0;whiteSpace=wrap;html=1;" parent="1" vertex="1">
          <mxGeometry x="-260" y="365" width="120" height="60" as="geometry" />
        </mxCell>
        <mxCell id="gLxaz6misHDndj6tIjfW-40" value="The Peacekeeper" style="rounded=0;whiteSpace=wrap;html=1;" parent="1" vertex="1">
          <mxGeometry x="-260" y="475" width="120" height="60" as="geometry" />
        </mxCell>
        <mxCell id="gLxaz6misHDndj6tIjfW-41" style="edgeStyle=orthogonalEdgeStyle;rounded=0;orthogonalLoop=1;jettySize=auto;html=1;" parent="1" source="gLxaz6misHDndj6tIjfW-43" target="gLxaz6misHDndj6tIjfW-54" edge="1">
          <mxGeometry relative="1" as="geometry" />
        </mxCell>
        <mxCell id="gLxaz6misHDndj6tIjfW-42" style="edgeStyle=orthogonalEdgeStyle;rounded=0;orthogonalLoop=1;jettySize=auto;html=1;" parent="1" source="gLxaz6misHDndj6tIjfW-43" target="gLxaz6misHDndj6tIjfW-52" edge="1">
          <mxGeometry relative="1" as="geometry" />
        </mxCell>
        <mxCell id="gLxaz6misHDndj6tIjfW-43" value="The VFX Program" style="rounded=0;whiteSpace=wrap;html=1;" parent="1" vertex="1">
          <mxGeometry x="895" y="247" width="120" height="60" as="geometry" />
        </mxCell>
        <mxCell id="gLxaz6misHDndj6tIjfW-44" style="edgeStyle=orthogonalEdgeStyle;rounded=0;orthogonalLoop=1;jettySize=auto;html=1;" parent="1" source="gLxaz6misHDndj6tIjfW-46" target="gLxaz6misHDndj6tIjfW-48" edge="1">
          <mxGeometry relative="1" as="geometry" />
        </mxCell>
        <mxCell id="gLxaz6misHDndj6tIjfW-45" style="edgeStyle=orthogonalEdgeStyle;rounded=0;orthogonalLoop=1;jettySize=auto;html=1;" parent="1" source="gLxaz6misHDndj6tIjfW-46" target="gLxaz6misHDndj6tIjfW-49" edge="1">
          <mxGeometry relative="1" as="geometry" />
        </mxCell>
        <mxCell id="gLxaz6misHDndj6tIjfW-46" value="Carrier Power Projection Focus" style="rounded=0;whiteSpace=wrap;html=1;" parent="1" vertex="1">
          <mxGeometry x="1330" y="250" width="120" height="60" as="geometry" />
        </mxCell>
        <mxCell id="gLxaz6misHDndj6tIjfW-47" value="" style="edgeStyle=orthogonalEdgeStyle;rounded=0;orthogonalLoop=1;jettySize=auto;html=1;" parent="1" source="gLxaz6misHDndj6tIjfW-48" target="gLxaz6misHDndj6tIjfW-58" edge="1">
          <mxGeometry relative="1" as="geometry" />
        </mxCell>
        <mxCell id="gLxaz6misHDndj6tIjfW-48" value="Advanced S-3 Viking Tanker Capabilities" style="rounded=0;whiteSpace=wrap;html=1;" parent="1" vertex="1">
          <mxGeometry x="1225" y="350" width="120" height="60" as="geometry" />
        </mxCell>
        <mxCell id="gLxaz6misHDndj6tIjfW-49" value="The Harpoon ASuM" style="rounded=0;whiteSpace=wrap;html=1;" parent="1" vertex="1">
          <mxGeometry x="1420" y="350" width="120" height="60" as="geometry" />
        </mxCell>
        <mxCell id="gLxaz6misHDndj6tIjfW-50" value="" style="edgeStyle=orthogonalEdgeStyle;rounded=0;orthogonalLoop=1;jettySize=auto;html=1;" parent="1" source="gLxaz6misHDndj6tIjfW-52" target="gLxaz6misHDndj6tIjfW-56" edge="1">
          <mxGeometry relative="1" as="geometry" />
        </mxCell>
        <mxCell id="gLxaz6misHDndj6tIjfW-51" style="edgeStyle=orthogonalEdgeStyle;rounded=0;orthogonalLoop=1;jettySize=auto;html=1;" parent="1" source="gLxaz6misHDndj6tIjfW-52" target="gLxaz6misHDndj6tIjfW-54" edge="1">
          <mxGeometry relative="1" as="geometry" />
        </mxCell>
        <mxCell id="gLxaz6misHDndj6tIjfW-52" value="Select a VFX Program Winner" style="rounded=0;whiteSpace=wrap;html=1;" parent="1" vertex="1">
          <mxGeometry x="975" y="350" width="120" height="60" as="geometry" />
        </mxCell>
        <mxCell id="gLxaz6misHDndj6tIjfW-53" style="edgeStyle=orthogonalEdgeStyle;rounded=0;orthogonalLoop=1;jettySize=auto;html=1;" parent="1" source="gLxaz6misHDndj6tIjfW-54" target="gLxaz6misHDndj6tIjfW-52" edge="1">
          <mxGeometry relative="1" as="geometry">
            <mxPoint x="960" y="380" as="targetPoint" />
          </mxGeometry>
        </mxCell>
        <mxCell id="gLxaz6misHDndj6tIjfW-54" value="Restart the VFAX Program" style="rounded=0;whiteSpace=wrap;html=1;" parent="1" vertex="1">
          <mxGeometry x="815" y="350" width="120" height="60" as="geometry" />
        </mxCell>
        <mxCell id="gLxaz6misHDndj6tIjfW-55" style="edgeStyle=orthogonalEdgeStyle;rounded=0;orthogonalLoop=1;jettySize=auto;html=1;" parent="1" source="gLxaz6misHDndj6tIjfW-56" target="gLxaz6misHDndj6tIjfW-59" edge="1">
          <mxGeometry relative="1" as="geometry">
            <Array as="points">
              <mxPoint x="1075" y="530" />
              <mxPoint x="1165" y="530" />
            </Array>
          </mxGeometry>
        </mxCell>
        <mxCell id="gLxaz6misHDndj6tIjfW-56" value="&lt;b&gt;&quot;Big Cats, Big Decks&quot;&lt;/b&gt;" style="rounded=0;whiteSpace=wrap;html=1;" parent="1" vertex="1">
          <mxGeometry x="1015" y="460" width="120" height="60" as="geometry" />
        </mxCell>
        <mxCell id="gLxaz6misHDndj6tIjfW-57" style="edgeStyle=orthogonalEdgeStyle;rounded=0;orthogonalLoop=1;jettySize=auto;html=1;" parent="1" source="gLxaz6misHDndj6tIjfW-58" target="gLxaz6misHDndj6tIjfW-59" edge="1">
          <mxGeometry relative="1" as="geometry">
            <Array as="points">
              <mxPoint x="1255" y="530" />
              <mxPoint x="1165" y="530" />
            </Array>
          </mxGeometry>
        </mxCell>
        <mxCell id="gLxaz6misHDndj6tIjfW-58" value="&lt;span style=&quot;white-space: normal&quot;&gt;Spruance Class Destroyer&lt;/span&gt;" style="rounded=0;whiteSpace=wrap;html=1;" parent="1" vertex="1">
          <mxGeometry x="1195" y="455" width="120" height="60" as="geometry" />
        </mxCell>
        <mxCell id="gLxaz6misHDndj6tIjfW-59" value="The Nimitz Class Supercarrier" style="rounded=0;whiteSpace=wrap;html=1;" parent="1" vertex="1">
          <mxGeometry x="1105" y="550" width="120" height="60" as="geometry" />
        </mxCell>
        <mxCell id="gLxaz6misHDndj6tIjfW-60" style="edgeStyle=orthogonalEdgeStyle;rounded=0;orthogonalLoop=1;jettySize=auto;html=1;" parent="1" source="gLxaz6misHDndj6tIjfW-62" target="gLxaz6misHDndj6tIjfW-74" edge="1">
          <mxGeometry relative="1" as="geometry" />
        </mxCell>
        <mxCell id="gLxaz6misHDndj6tIjfW-61" style="edgeStyle=orthogonalEdgeStyle;rounded=0;orthogonalLoop=1;jettySize=auto;html=1;" parent="1" source="gLxaz6misHDndj6tIjfW-62" target="gLxaz6misHDndj6tIjfW-72" edge="1">
          <mxGeometry relative="1" as="geometry" />
        </mxCell>
        <mxCell id="gLxaz6misHDndj6tIjfW-62" value="Strategic Bomber Command Restructure" style="rounded=0;whiteSpace=wrap;html=1;" parent="1" vertex="1">
          <mxGeometry x="1700" y="250" width="120" height="60" as="geometry" />
        </mxCell>
        <mxCell id="gLxaz6misHDndj6tIjfW-63" style="edgeStyle=orthogonalEdgeStyle;rounded=0;orthogonalLoop=1;jettySize=auto;html=1;" parent="1" source="gLxaz6misHDndj6tIjfW-65" target="gLxaz6misHDndj6tIjfW-69" edge="1">
          <mxGeometry relative="1" as="geometry" />
        </mxCell>
        <mxCell id="gLxaz6misHDndj6tIjfW-64" style="edgeStyle=orthogonalEdgeStyle;rounded=0;orthogonalLoop=1;jettySize=auto;html=1;" parent="1" source="gLxaz6misHDndj6tIjfW-65" target="gLxaz6misHDndj6tIjfW-67" edge="1">
          <mxGeometry relative="1" as="geometry" />
        </mxCell>
        <mxCell id="gLxaz6misHDndj6tIjfW-65" value="Evaluate Vietnam War Air Combat Experience" style="rounded=0;whiteSpace=wrap;html=1;" parent="1" vertex="1">
          <mxGeometry x="2124.5" y="250" width="120" height="60" as="geometry" />
        </mxCell>
        <mxCell id="gLxaz6misHDndj6tIjfW-66" style="edgeStyle=orthogonalEdgeStyle;rounded=0;orthogonalLoop=1;jettySize=auto;html=1;entryX=1;entryY=0.5;entryDx=0;entryDy=0;" parent="1" source="gLxaz6misHDndj6tIjfW-67" target="gLxaz6misHDndj6tIjfW-79" edge="1">
          <mxGeometry relative="1" as="geometry" />
        </mxCell>
        <mxCell id="gLxaz6misHDndj6tIjfW-67" value="Adopt the Navy&#39;s VFAX Program for the Air Force" style="rounded=0;whiteSpace=wrap;html=1;" parent="1" vertex="1">
          <mxGeometry x="2160" y="450" width="120" height="60" as="geometry" />
        </mxCell>
        <mxCell id="gLxaz6misHDndj6tIjfW-68" value="" style="edgeStyle=orthogonalEdgeStyle;rounded=0;orthogonalLoop=1;jettySize=auto;html=1;" parent="1" source="gLxaz6misHDndj6tIjfW-69" target="gLxaz6misHDndj6tIjfW-79" edge="1">
          <mxGeometry relative="1" as="geometry" />
        </mxCell>
        <mxCell id="gLxaz6misHDndj6tIjfW-69" value="The F-15 Eagle" style="rounded=0;whiteSpace=wrap;html=1;" parent="1" vertex="1">
          <mxGeometry x="2030" y="350" width="120" height="60" as="geometry" />
        </mxCell>
        <mxCell id="gLxaz6misHDndj6tIjfW-70" style="edgeStyle=orthogonalEdgeStyle;rounded=0;orthogonalLoop=1;jettySize=auto;html=1;entryX=1;entryY=0.5;entryDx=0;entryDy=0;" parent="1" source="gLxaz6misHDndj6tIjfW-72" target="gLxaz6misHDndj6tIjfW-74" edge="1">
          <mxGeometry relative="1" as="geometry" />
        </mxCell>
        <mxCell id="gLxaz6misHDndj6tIjfW-71" style="edgeStyle=orthogonalEdgeStyle;rounded=0;orthogonalLoop=1;jettySize=auto;html=1;" parent="1" source="gLxaz6misHDndj6tIjfW-72" target="gLxaz6misHDndj6tIjfW-76" edge="1">
          <mxGeometry relative="1" as="geometry" />
        </mxCell>
        <mxCell id="gLxaz6misHDndj6tIjfW-72" value="Cancel The XB-70" style="rounded=0;whiteSpace=wrap;html=1;" parent="1" vertex="1">
          <mxGeometry x="1780" y="350" width="120" height="60" as="geometry" />
        </mxCell>
        <mxCell id="gLxaz6misHDndj6tIjfW-73" value="" style="edgeStyle=orthogonalEdgeStyle;rounded=0;orthogonalLoop=1;jettySize=auto;html=1;" parent="1" source="gLxaz6misHDndj6tIjfW-74" target="gLxaz6misHDndj6tIjfW-72" edge="1">
          <mxGeometry relative="1" as="geometry" />
        </mxCell>
        <mxCell id="gLxaz6misHDndj6tIjfW-74" value="Continue High Speed Bomber Development" style="rounded=0;whiteSpace=wrap;html=1;" parent="1" vertex="1">
          <mxGeometry x="1620" y="350" width="120" height="60" as="geometry" />
        </mxCell>
        <mxCell id="gLxaz6misHDndj6tIjfW-75" style="edgeStyle=orthogonalEdgeStyle;rounded=0;orthogonalLoop=1;jettySize=auto;html=1;" parent="1" source="gLxaz6misHDndj6tIjfW-76" target="gLxaz6misHDndj6tIjfW-80" edge="1">
          <mxGeometry relative="1" as="geometry">
            <Array as="points">
              <mxPoint x="1880" y="530" />
              <mxPoint x="1970" y="530" />
            </Array>
          </mxGeometry>
        </mxCell>
        <mxCell id="gLxaz6misHDndj6tIjfW-76" value="Big Four B-52 Enhancement" style="rounded=0;whiteSpace=wrap;html=1;" parent="1" vertex="1">
          <mxGeometry x="1820" y="450" width="120" height="60" as="geometry" />
        </mxCell>
        <mxCell id="gLxaz6misHDndj6tIjfW-77" style="edgeStyle=orthogonalEdgeStyle;rounded=0;orthogonalLoop=1;jettySize=auto;html=1;" parent="1" source="gLxaz6misHDndj6tIjfW-79" target="gLxaz6misHDndj6tIjfW-80" edge="1">
          <mxGeometry relative="1" as="geometry" />
        </mxCell>
        <mxCell id="gLxaz6misHDndj6tIjfW-78" style="edgeStyle=orthogonalEdgeStyle;rounded=0;orthogonalLoop=1;jettySize=auto;html=1;" parent="1" source="gLxaz6misHDndj6tIjfW-79" target="gLxaz6misHDndj6tIjfW-67" edge="1">
          <mxGeometry relative="1" as="geometry" />
        </mxCell>
        <mxCell id="gLxaz6misHDndj6tIjfW-79" value="&quot;Paveway&quot; Laser Guided Bomb Kits" style="rounded=0;whiteSpace=wrap;html=1;" parent="1" vertex="1">
          <mxGeometry x="2000" y="450" width="120" height="60" as="geometry" />
        </mxCell>
        <mxCell id="gLxaz6misHDndj6tIjfW-80" value="The A-10 Thunderbolt II &quot;Warthog&quot;" style="rounded=0;whiteSpace=wrap;html=1;" parent="1" vertex="1">
          <mxGeometry x="1910" y="550" width="120" height="60" as="geometry" />
        </mxCell>
        <mxCell id="gLxaz6misHDndj6tIjfW-81" value="20% research bonus&lt;br&gt;&amp;nbsp;speed for 1975 Interceptor" style="text;html=1;resizable=0;points=[];autosize=1;align=left;verticalAlign=top;spacingTop=-4;" parent="1" vertex="1">
          <mxGeometry x="1990" y="310" width="160" height="30" as="geometry" />
        </mxCell>
        <mxCell id="gLxaz6misHDndj6tIjfW-82" value="M113A2 Research&lt;br&gt;10% bonus" style="text;html=1;resizable=0;points=[];autosize=1;align=left;verticalAlign=top;spacingTop=-4;" parent="1" vertex="1">
          <mxGeometry x="120" y="225" width="110" height="30" as="geometry" />
        </mxCell>
        <mxCell id="gLxaz6misHDndj6tIjfW-83" value="1985 Cruise Missile 15%&lt;br&gt;produciton reduction" style="text;html=1;resizable=0;points=[];autosize=1;align=left;verticalAlign=top;spacingTop=-4;" parent="1" vertex="1">
          <mxGeometry x="-520" y="255" width="150" height="30" as="geometry" />
        </mxCell>
        <mxCell id="gLxaz6misHDndj6tIjfW-84" value="15% research buff for&lt;br&gt;Peacekeeper" style="text;html=1;resizable=0;points=[];autosize=1;align=left;verticalAlign=top;spacingTop=-4;" parent="1" vertex="1">
          <mxGeometry x="-290" y="440" width="130" height="30" as="geometry" />
        </mxCell>
        <mxCell id="gLxaz6misHDndj6tIjfW-85" value="Radar construction time&lt;br&gt;-20% nat spirit (360 days)" style="text;html=1;resizable=0;points=[];autosize=1;align=left;verticalAlign=top;spacingTop=-4;" parent="1" vertex="1">
          <mxGeometry x="-405" y="380" width="150" height="30" as="geometry" />
        </mxCell>
        <mxCell id="gLxaz6misHDndj6tIjfW-86" value="Stops B-70 research&lt;br&gt;for 15 years&lt;br&gt;" style="text;html=1;resizable=0;points=[];autosize=1;align=left;verticalAlign=top;spacingTop=-4;" parent="1" vertex="1">
          <mxGeometry x="1854" y="320" width="120" height="30" as="geometry" />
        </mxCell>
        <mxCell id="gLxaz6misHDndj6tIjfW-87" value="B-70 -10% &lt;br&gt;production cost&lt;br&gt;" style="text;html=1;resizable=0;points=[];autosize=1;align=left;verticalAlign=top;spacingTop=-4;" parent="1" vertex="1">
          <mxGeometry x="1570" y="320" width="100" height="30" as="geometry" />
        </mxCell>
        <mxCell id="gLxaz6misHDndj6tIjfW-88" value="B-52B &amp;amp; B52G&lt;br&gt;+20% agility&lt;br&gt;" style="text;html=1;resizable=0;points=[];autosize=1;align=left;verticalAlign=top;spacingTop=-4;" parent="1" vertex="1">
          <mxGeometry x="1750" y="440" width="90" height="30" as="geometry" />
        </mxCell>
        <mxCell id="gLxaz6misHDndj6tIjfW-89" value="Research Speed&lt;br&gt;1980 air to ground&lt;br&gt;missile +25%" style="text;html=1;resizable=0;points=[];autosize=1;align=left;verticalAlign=top;spacingTop=-4;" parent="1" vertex="1">
          <mxGeometry x="1950" y="410" width="110" height="40" as="geometry" />
        </mxCell>
        <mxCell id="gLxaz6misHDndj6tIjfW-90" value="+20 max&lt;br&gt;command power&lt;br&gt;" style="text;html=1;resizable=0;points=[];autosize=1;align=left;verticalAlign=top;spacingTop=-4;" parent="1" vertex="1">
          <mxGeometry x="1770" y="215" width="100" height="30" as="geometry" />
        </mxCell>
        <mxCell id="gLxaz6misHDndj6tIjfW-91" value="75 Air XP" style="text;html=1;resizable=0;points=[];autosize=1;align=left;verticalAlign=top;spacingTop=-4;" parent="1" vertex="1">
          <mxGeometry x="2195" y="217" width="70" height="20" as="geometry" />
        </mxCell>
        <mxCell id="gLxaz6misHDndj6tIjfW-92" value="20% research bonus&lt;br&gt;&amp;nbsp;speed for F-4C" style="text;html=1;resizable=0;points=[];autosize=1;align=left;verticalAlign=top;spacingTop=-4;" parent="1" vertex="1">
          <mxGeometry x="2280" y="320" width="130" height="30" as="geometry" />
        </mxCell>
        <mxCell id="gLxaz6misHDndj6tIjfW-93" value="This should be an event&lt;br&gt;defines the political angle of&lt;br&gt;US Naval doctrine" style="text;html=1;resizable=0;points=[];autosize=1;align=left;verticalAlign=top;spacingTop=-4;" parent="1" vertex="1">
          <mxGeometry x="1410" y="205" width="160" height="40" as="geometry" />
        </mxCell>
        <mxCell id="gLxaz6misHDndj6tIjfW-94" value="Flavour event about&lt;br&gt;F-14, 20% research boost" style="text;html=1;resizable=0;points=[];autosize=1;align=left;verticalAlign=top;spacingTop=-4;" parent="1" vertex="1">
          <mxGeometry x="1040" y="320" width="150" height="30" as="geometry" />
        </mxCell>
        <mxCell id="gLxaz6misHDndj6tIjfW-95" value="Research bonus&amp;nbsp;&lt;br&gt;for abrams" style="text;html=1;resizable=0;points=[];autosize=1;align=left;verticalAlign=top;spacingTop=-4;" parent="1" vertex="1">
          <mxGeometry x="456" y="564" width="110" height="30" as="geometry" />
        </mxCell>
        <mxCell id="gLxaz6misHDndj6tIjfW-96" value="-20% production&lt;br&gt;Cost for MBT-70&lt;br&gt;and M551 Sheridan" style="text;html=1;resizable=0;points=[];autosize=1;align=left;verticalAlign=top;spacingTop=-4;" parent="1" vertex="1">
          <mxGeometry x="690" y="315" width="120" height="40" as="geometry" />
        </mxCell>
        <mxCell id="gLxaz6misHDndj6tIjfW-97" value="Research Bonus for this&lt;br&gt;tech (RGM-84A), 15% OR 20%" style="text;html=1;resizable=0;points=[];autosize=1;align=left;verticalAlign=top;spacingTop=-4;" parent="1" vertex="1">
          <mxGeometry x="1420" y="415" width="180" height="30" as="geometry" />
        </mxCell>
        <mxCell id="gLxaz6misHDndj6tIjfW-98" value="Range +10%&lt;br&gt;for all US &lt;br&gt;Naval Aircraft" style="text;html=1;resizable=0;points=[];autosize=1;align=left;verticalAlign=top;spacingTop=-4;" parent="1" vertex="1">
          <mxGeometry x="1200" y="307" width="90" height="40" as="geometry" />
        </mxCell>
        <mxCell id="gLxaz6misHDndj6tIjfW-99" value="Research Bonus&lt;br&gt;For TOW Missile (20%)" style="text;html=1;resizable=0;points=[];autosize=1;align=left;verticalAlign=top;spacingTop=-4;" parent="1" vertex="1">
          <mxGeometry x="380" y="325" width="140" height="30" as="geometry" />
        </mxCell>
        <mxCell id="gLxaz6misHDndj6tIjfW-100" value="A general deck size &lt;br&gt;bonus of US&lt;br&gt;OR&lt;br&gt;Research bonus&lt;br&gt;for deck tech" style="text;html=1;resizable=0;points=[];autosize=1;align=left;verticalAlign=top;spacingTop=-4;" parent="1" vertex="1">
          <mxGeometry x="975" y="520" width="120" height="70" as="geometry" />
        </mxCell>
        <mxCell id="gLxaz6misHDndj6tIjfW-101" value="Not sure yet, probably a&lt;br&gt;research bonus for destroyer&lt;br&gt;hull" style="text;html=1;resizable=0;points=[];autosize=1;align=left;verticalAlign=top;spacingTop=-4;" parent="1" vertex="1">
          <mxGeometry x="1270" y="515" width="170" height="40" as="geometry" />
        </mxCell>
        <mxCell id="gLxaz6misHDndj6tIjfW-102" value="Not sure" style="text;html=1;resizable=0;points=[];autosize=1;align=left;verticalAlign=top;spacingTop=-4;" parent="1" vertex="1">
          <mxGeometry x="551" y="476" width="60" height="20" as="geometry" />
        </mxCell>
        <mxCell id="gLxaz6misHDndj6tIjfW-103" value="A flavour event,&amp;nbsp;&lt;br&gt;some air XP" style="text;html=1;resizable=0;points=[];autosize=1;align=left;verticalAlign=top;spacingTop=-4;" parent="1" vertex="1">
          <mxGeometry x="960" y="215" width="100" height="30" as="geometry" />
        </mxCell>
        <mxCell id="gLxaz6misHDndj6tIjfW-104" value="-50% ahead of time&lt;br&gt;research penalty&lt;br&gt;for 1980 light jet" style="text;html=1;resizable=0;points=[];autosize=1;align=left;verticalAlign=top;spacingTop=-4;" parent="1" vertex="1">
          <mxGeometry x="790" y="295" width="120" height="40" as="geometry" />
        </mxCell>
        <mxCell id="gLxaz6misHDndj6tIjfW-105" value="Carrier hull research bonus, 15%?" style="text;html=1;resizable=0;points=[];autosize=1;align=left;verticalAlign=top;spacingTop=-4;" parent="1" vertex="1">
          <mxGeometry x="1160" y="610" width="200" height="20" as="geometry" />
        </mxCell>
        <mxCell id="gLxaz6misHDndj6tIjfW-106" value="-20% production&lt;br&gt;Cost for M939 Truck" style="text;html=1;resizable=0;points=[];autosize=1;align=left;verticalAlign=top;spacingTop=-4;" parent="1" vertex="1">
          <mxGeometry x="610" y="220" width="120" height="30" as="geometry" />
        </mxCell>
        <mxCell id="gLxaz6misHDndj6tIjfW-107" value="XM-701 Research&lt;br&gt;10% bonus" style="text;html=1;resizable=0;points=[];autosize=1;align=left;verticalAlign=top;spacingTop=-4;" parent="1" vertex="1">
          <mxGeometry x="40" y="425" width="110" height="30" as="geometry" />
        </mxCell>
        <mxCell id="gLxaz6misHDndj6tIjfW-108" value="M113A2 10%&lt;br&gt;production&amp;nbsp;reduction" style="text;html=1;resizable=0;points=[];autosize=1;align=left;verticalAlign=top;spacingTop=-4;" parent="1" vertex="1">
          <mxGeometry x="260" y="325" width="120" height="30" as="geometry" />
        </mxCell>
        <mxCell id="gLxaz6misHDndj6tIjfW-109" value="M113A2 10%&lt;br&gt;production&amp;nbsp;reduction,&lt;br&gt;25% research bonus&lt;br&gt;For 1970 Engineer and&lt;br&gt;Recce" style="text;html=1;resizable=0;points=[];autosize=1;align=left;verticalAlign=top;spacingTop=-4;" parent="1" vertex="1">
          <mxGeometry x="110" y="470" width="140" height="70" as="geometry" />
        </mxCell>
        <mxCell id="gLxaz6misHDndj6tIjfW-110" value="20% research bonus&lt;br&gt;for Poseidon SLBM (1980)" style="text;html=1;resizable=0;points=[];autosize=1;align=left;verticalAlign=top;spacingTop=-4;" parent="1" vertex="1">
          <mxGeometry x="-60" y="239" width="160" height="30" as="geometry" />
        </mxCell>
        <mxCell id="gLxaz6misHDndj6tIjfW-111" value="Requires &quot;&lt;span style=&quot;text-align: center ; white-space: normal&quot;&gt;Restart the&lt;br&gt;VFAX Program&quot;&lt;br&gt;in the US Navy Tree&lt;br&gt;&lt;/span&gt;" style="text;html=1;resizable=0;points=[];autosize=1;align=left;verticalAlign=top;spacingTop=-4;" parent="1" vertex="1">
          <mxGeometry x="2287" y="476" width="130" height="40" as="geometry" />
        </mxCell>
        <mxCell id="gLxaz6misHDndj6tIjfW-112" value="Light Fighter 1980 production&lt;br&gt;cost -20%" style="text;html=1;resizable=0;points=[];autosize=1;align=left;verticalAlign=top;spacingTop=-4;" parent="1" vertex="1">
          <mxGeometry x="2230" y="418" width="170" height="30" as="geometry" />
        </mxCell>
        <mxCell id="gLxaz6misHDndj6tIjfW-113" value="Research Speed&lt;br&gt;1975 CAS&amp;nbsp;+20%" style="text;html=1;resizable=0;points=[];autosize=1;align=left;verticalAlign=top;spacingTop=-4;" parent="1" vertex="1">
          <mxGeometry x="2005" y="610" width="100" height="30" as="geometry" />
        </mxCell>
        <mxCell id="nDVw2krUvJT1cIF6sBkJ-2" value="4 RADAR in each of these locations" style="text;html=1;align=center;verticalAlign=middle;resizable=0;points=[];autosize=1;strokeColor=none;" parent="1" vertex="1">
          <mxGeometry x="-355" y="160" width="210" height="20" as="geometry" />
        </mxCell>
        <mxCell id="nDVw2krUvJT1cIF6sBkJ-3" value="" style="shape=image;verticalLabelPosition=bottom;labelBackgroundColor=#ffffff;verticalAlign=top;aspect=fixed;imageAspect=0;image=data:image/png,iVBORw0KGgoAAAANSUhEUgAAAeAAAAIGCAYAAACMIVyXAAAgAElEQVR4AeydB3TUVvb/0xPCJpu+SXbTN2WT3WSTbLLll0ISagjNVENoBmM6xt1gjMEYgwHTMd0VU4wxvVfTMb2GAAkQOoTe8f/c//nKvEGjkWYkjTSjmXk+R+epPD1Jb+T30b3vlvuI//Ee4D3Ae4D3AO8B3gMe74H7PH5FfkHeA7wHeA/wHuA9wHuAOID5S8B7gPcA7wHeA7wHvNADHMBe6HR+Sd4DvAd4D/Ae4D3gEsAbNu8gvvA+4O8Afwf4O8DfAf4OaHsHXH1iqALwzVu3iS+8D/g7wN8B/g7wd4C/A+reAXysuPrjAOYfF/zjir8D/B3g7wB/Bwx+BziADe5Q/uWn7suP9xPvJ/4O8Hcg0N8BDmAOYP5Vy98B/g7wd4C/A154B0wFMBrnC+8D/g7wd4C/A/wdCPR3QE7aR5+4+tM9B4zGb9++zRcdfTBjxgzKysriC+8D/g548B3InjCB8saOpfyRI2nqsGFUkJ5OhWlpVNi/v7AU9etHRX37yi6sDsrpAwfS1KFDafLIkZQ3ejTljB/Pf0cP/o5WGzvBQg5gHSD01gcEBzD/+LDaIOIP95M7dqwAxWnp6TSjXz+a3bs3zU9IoEUxMbQ0IoKWhYebtiwND6fFUVG0oFs3mpOUJEAcoJ4ybJgA6ezMTA5pP4U0B7APwRfQ5wDmAPYH4HnrGXLHjxckWEijs3v1ooVxcbS0a1fT4GoUuBdHR9PcxESCpD1tyBCaNHo0ZXEw+/yHCQewjwP4t99+o6tXr9K5c+fo+PHj9Msvv/j8S+mtwZlf1/8+bvLGjCFItbOSk2kBYGuiJGsUbNW2AyhDYi4cMIDyR40iLin73vvLAexDAD5w4ABlZ2fbAJuXl0c3b960m0u/deuW7TgHiu/9Q/LfzL3fDMCdPmAAze3ZU1DrqoWZP9SDqhxq86LUVEGdziVk994lT/wvcgD7CID37dtnB1+8HAsXLrSDL1TU169f5wD20/kiTwwIvnaN3HHjaPqgQYIkuDgy0vKqZDWgXxERQQcHDxaWnwcNor39+9POlBTanpxMW5KSaGNCAqGOq7YA5Hk9eghGYvkZGXxcsOC4wAHsAwDevn277D/Pli1bHAAMdbSvDaL8fq3/pW6l3yhnwgQqGDRIgIuvqZSXd+1KxdHRtDYuTgDp5p49BagCrGw5PX48lRYVOV0AYVcAlh5fGBsrzCEL88cWhJGV3jFP3QsHsA8AeOrUqbJQPXLkiAOAr1y5IlvXUy8Uvw6HqRnvAIynMNc5v3t3n5rHBWwPDRlC57Oz6dqUKXRnxgynYHUFXnYc0rAUsFq2F0VH08w+fcpU1RzGXhszOYB9EMBLliwRDK7kXKEuXbrktZfJjIGXtxnAQM/MpCnDhwvqZV+wVJYD4P6BAw0BLgMvK38aMMAtAIvvFe5P0CjA15n/v3n2/40D2AcADMtmzPdiOXr0qIPUKwbxxYsX+T8R/6L36XcAAS8Q1AJWvmJQ+OL62YkTTQHwiTFjDO8bfOTAqhofPRzEngExB7APAFgMWFfrv//+O//n4QD2yXdg8ogRgvWyr83rKn0YwFDq1vTppgAYkjCMs5Su7e5+uGwJUjH3NTb1f4kD2M8A/NNPP5n6wvAvY898GQdKP2dPnCjM7S6KjTUNJu7CSO/5m3r0UAVfSLN6QH27sJBKEhNN7bclERHCXDGszQPlnfTkc3IA+xmAly1bxv9RuARs+XcA840wqoIxkF7A+cJ5h4cPdwrhoyNHCs8Pa2g9EIZh1xoPfLzApWlWnz4EP2tPAsrfr8UB7EcAvnHjBiE4h7+/tPz5fFcKhwsR5nchWXkLoHDh2dW3L8FACoBEaea97E5NFdTFcu5FmCNm1waEbxYUOAU2M8ISlxdzc2lVVJStHdaeWSVCYk7ifsWGjLMcwD4IYIScZBBatWqVzSjr8OHDtv3sOC99F1b+9NtB4kUc4yUWCJZxLjPTAXLHMjJMBxh8gE+NG+dw7X1pabZrQ6WsB8IAOdo3C7rSdjFPD4MtLhG7N75wAPsggGENzQZnSLzXrl0TILxu3Trbfnacl+79g/D+c7P/MjOFSFVWsmiGxCiWINk6JFQ1EaakMNKyDUieHDvW7vpQPYvncvVC+Pjo0R4DMHtmWE7Dnxh+2vx/Rfv/CgewjwEYbkjSF33v3r0E/99p06Y5HJPW5dva/0l4n+nrM2TtsaJx1dXJk+0AyACMEnA+kJ4uANFMiRKwFF/3+tSptrlcBO9Q+kgQnyO3/svQoR6HMGCMOWJMLXBfYm3/KxzAHgQwEiUgnWB+fr6wIL6zK7ci6XGx9MvAAClYnKSB7eeltn8G3l/G9BfmB+fpCJXIpCqzyxvTptnBTw5k2Id6Zho4wfpZfG1Iwrimu9GyjAzSofW3gKYD2af4/5K6/yUOYA8C+Ndff3V4MXfv3q0JwjwfsLoXmw8Anu8nYZ63b1/L59fVAjixkZRWGKmpL1VHi4HszjoMv9Rc36w6SAKRh5zF3CPBaR9wAHsQwEouQjt37lQNYQ5gz4OFDyKu+xxSz2IPWuLqBcfKyEg7qVMN5MwMeAE1t5x1tJr7clYHHxk7+vTxKoRhqIX5Yfh68/8h+f8hDmA3AXz69GkhLjMzhJKqjMXbzlyEtm3b5hLCSDXI53nlX2T+D+6dfskdO5bglqIXiN44D1bH8J91BjDxMVglY251Q/fupjwnDL+QrEF8TSPWEahja69eptyzlt9tUUwMD2+poAngANYJ4PPnz5NUoi0sLKTly5fT2bNnZWGKuV9noFizZg1BGkY0K8R/hsHViRMn6NSpU7Rr1y5SyorkrE1+zDtg8vt+z8wU8szC+EbLYGyVuoCeHskTmY3MeIbVMTHkzDhML5ClFtZm3LvaNuG2lMOtpe0YwAGsE8AFBQV2HSkecAFKOQhz6ZXDUPye+Oo6XE4wx6d24LVqvSMjRmiWOiGpmvU867t10xUNyxWcYdilJ3+wGc+JyGeTebIHGzs4gHUA+MKFC7YOVBpEAWEkRhCroIuKilyep9Qe38/hbYV3YNrgwZYIpmEEHPQAGHOrmEc24vpybcB4yhVQ9RyHmxMAL3dNb+yblZzM54azsogDWAeA1SY8gH+uGMBz587lAFaYC7ECXPg9KH/kIIQkVIjeGKzNuqYeAAN+23r3NrUfdqakCKErYfz186BBhknFmPdeFx9v6r1r+a0WxsUFfEhLDmAdAIb/rprBWgrgRYsWqTpPTdu8jjIseN8Y2zfw613ogYD/WgZvI+rqBbBZ88BKzwRDKj2JGuQkZU8lb1B6Ful+2BAg7WGg/s9yAOsAMAJqqFEnSwEsNdoK1JeOP7exgDSzPzE4ItygdOD0h229AL6Sn+9xSfLypEmGqaZh7GVmgBE978acXr0CUiXNAawDwFArHzlyxOVXmxTAmDuGVTOsmw8dOkQ4Dvcjrpr2HSCZCTsrtZ2dmUmYp9MzmPrKOZBk5aRENfvg4gPXJE9lITISwHg+tAfLayv9Vgvi4ihv7FiX46qV/k/cvRcOYJ0ABoQXL17s9GWRAlg8HyxdB5iXLFnitD13f2x+Pge9mncAydfnm+TzaqUBH8ZUl/LydEMYIIOFMeZpzU7icGbCBLfuU+6jAhBG3Gkr/SaLIyMDymeYA9gNAG/atMkpMLUAmAEZgT24qpqDUg0ozaiD+V64ilhpUDbzXmCUBIjKAUrLPsytIgazWQkcAHhpAgct96dUF0kfrAZhTHlMD5B5YQ5giwGYgfjkyZNO4W7G4MvbDGzww8XIX+d7nUF8e3Ky2wkQGOAwv7qnXz/TPmDYdYwsf8/KMu1+nfW7q2Oz4aqUmenX4yAHsEUBDEMvDsTABqInf/8iE6HhaqC1wnGkIDQSalDvwqfXaInY2T0iccSWpCTa1bevZqtpb8eNVnoHEPAFLnCe/F/w5LU4gC0KYEjCOTk5fvviefIl59dS/pCBhAFJQ2kADKT9ACbgBT/fksREwdIZhkruBMeAahpzxGvj4tyeJ4Z/sDMAI7Qm+72gWtcyv40PBnau1Ur4CyPmuD/+H3MAWxjAkyZN8suXzh//kXzxmQDfuT17WnbgtRIIIF06g5+aY+6kNgTE1Vzj8PDhtt8T88bHMjJUnYe28aFhpT4X3wvsEvwxvSEHsIUBPGXKFA5gHjnLlHcAuXvnJyRYdsAVD77eXoeRkhFWyAhjCUlY6/McHTlSNUQBUkjCYveoU+PGqTof89dmW3NrfXZx/SWRkZQ/cqQp/w/e+oDmAHYDwMhe5OyH02MFzYywUPLkDcqqU2f9zo857zdkpFlgobjA4kHWautQRUONrEb6VFMHMFX7jIChnoxNuA/c8+aePQVVOtIpqrk31Nk/cKDq+1P7HEbWA4Qn+xGEOYB1Avjq1avkSkXsLoCnT5/uFPAcNM5Bw/vHsX8E+OqQwowcRH2prYODB6uGlxrIIaSk2rzCWtTHaq6tpg5cssTSsxV/K4SvnOInGZU4gHUCGBGsXA3wcCUSS7Ra19WEu3R1D/y4I4QCtU84fMM1S3dI46cGXFrqwDhKTUYlGEZpadeouojwZUXwiu8JEPaHtIYcwDoAfOPGDUK6QWcDOcJLagWutP7s2bOdXsPZ9fkxDl7xO8Dhqx2+bMA3UgXNIOkqoQMAjTljVt/TJTIxsee3aukPEOYA1gFgqJbFg5vc+sGDB90G8Lx581xeR+7afB+Hr/gdgMEVn/PVD2CtRlBKsETUKaiVEfhDDmow9sKcM+BnRtQrpfuS2w/4w+1J7j6ttE+AsA/PCXMAawQwAmQUFhY6BWNBQQGhnlSi1bq9cOFCp9cRD7J8nUNX7h0QrJ0DIK6zmVCAX7AcpLTuW+/C8A1ZlrS2aWZ9JJxQ+lgws7+1ti1YR2dk+ORYyQGsEcDIYiQ30In37dy50234Ataukj2Ir8nXOYCl74Dg55uYaHkpRuuA6+n6sEZ2Nx/v+exsl7+D1QAMuOO5YU3t6T7Xer3F8BMeM8bl2Cz9H/H2NgewRgDPmTPH6Y8My+hr164ZAuClS5c6vZa3Xx5+fWtDf05SkuUHTq0Drbfqwxr65NixwnIuM1NRUgWwWD1xqUaS3JeWRgikAfUzgnZAZY35Z3fh766UDMtoGKN5q+/VXhcQRiYvXxqXOIA1APi3335z+eNu2LDBEPhCAl6xYoXL6/nSy8bv1XPALrJwVCO1A6qV68FfVmokhW01oNXzXGtiYwUouwtTvedfnzqVMBeOjwoEJcEHAlvgq2zWc2vtqwXx8YRpF18ZaziANQBYTZrAAwcOGAbg4uJin3mRfOWFD4T7RCo3rQMXr6/dSAuJDwAmBjVPhHKUAz+7PsoLOTkENyK2QKIWHzdrHVG0jE48ofednNujB2X5SBYlDmANAJ45c6ZLIBoJYFeRtgIBJvwZtUnNCFAQiCkF9Q7W7p6HoBUILwkJ1d221J4PVbUYpIAfJFMkkpALJQlJVVzfrHUz0zCq7RtWb1Zyssux2gpjCwewBgBPnjzZ5Y9qJIDXr1/v8npWeIn4PWiDpFn9BSMUWISyQYiX2qVaX+gzQB8qX1hVq4latbVXL48AGEZkVuo/aILM+l8zql0OYJUARvANNZ1uJIA3bdqk6ppq7ovXsQYkzfodMO+1yINSmJUGWn4vzj80ENQDLkVmSb7idj2hhlf7ey8ND6fJI0ZYegzlAFYJ4PPnz6v6IY0E8JYtW1Rd06xBnbfrO9DmaQWdQ0jtoO2P9TBvLIakmetQd1upDxdHRVnaMpoDWCWA1VhAA1hGAlhNvGkOSd+BpFm/VWFamvGDXpcutKJjR1rZvj0Vt21Lq9u0oTWtW9PakBBa16IFrWvenNY3a0YbfvyRNjZpYrdgP1tQF+esCQ2l4rAwWtWuHa1o356Wde5s/D2HcwjLwc+MUJpKEIdFtNw9eHPf/G7dCD7xZv3/udMuB7BKAP/888+qfkAjAYyAHu78uPxc/4ezYHSlEzzLO3WiVW3b0ppWrWh98+a0sXFj2tywIW0NCqLtNWvSDpOX7bVr09a6dWlzgwa0KThYgDbuBZDmgDbmY2JHnz4ek34BZYTa9CZsla49MyXFkmMpB7BKAG/fvl3VD1hSUmKYG9Lu3btVXZOD1v9BK/cbI8ECgg8oDTq2/Z07C1Ls2pYtBUl1c/36tK12bdMB6y7AtwUFUUnDhrShWTNB+hYk5y5dXD+vzg8SW3/50fm/Z2V5FMBwe7JqP04dOtRy4ykHsEoA//LLL5Sbm6vqB0QwDiNiQe/bt0/V9eQGZ77P/6E8r0cP2cFuRYcOtCYkRIDtlnr1PCLNugtbtedDaobEDBU31OLLuSpb9h0ABDf16OFR+EICRsQwqwIYHgK5Y8daakzlAFYJYESmQn7fadOmqfoBEUYSltNaEzCI66tVe3PY+j9spb9x4YABtoEOc7VQ3UKFDPWxWpj5Qz2oyvGRgbno1aGhXHUdHi7kGobhlTdiS8NH2aoAxn3N797dUkE6OIA1ABhwvHz5Mi1YsEAVhJFO8MqVK7ohrCbxg3Rg5tv+D+P8UaMEgyYYPwUacF19NDAgY05bmEv2I3WyWrAheYKSkZTZ+xEMRO19eqvejP79VY3fnhhLOYA1AhgQhnpZbZCMGTNm0MWLF3VB+PTp05Z5UTzxMvJrKH88wIpzyrBhhAQLUMG6AhE/XmZEBiMvqKsDCcbeBDBSN3oLrGqvC//gfIvkEOYA1gFgpiZW66cLYyp2jtYSUjQHkzKY/LlvsidOpGnp6TQ3MZGQeBwDDAySOFz1WWjD8AxqeswdL/NjY66dKSlek4Ax76wWhN6stzA21hKuSRzAbgAYkrCr9IQAhDv5gbkaOvDgi5CSRX37EoIIiAcp+OPuqFWLA9gA9yhIxvBRxvy5uI99fX1dfDwhfaDZqmal9nF9X+lD/I95+wOeA9gNAEOaPXv2rEvraLgwaZV8WX1AXk0SCG+/SPz67n0oIJQkYtcinZrcALa8SxfaWq8eh68B8BVrEDBnDJU+goX4uu9xcXS0g+GVNGWiEjiN2g/pW+79teI+QRWdkeFVCHMAuwlggNJVwIytW7fqBjDaP3bsGOXk5Hj1ReGAdQ+wSv0HtwhB2nWRRAFGRWJw8HV9amhn/batTh1BKkaAEisCw9k9IRXgucxMO8n3xJgxQtIGT0L4Ul6eT/Xdgrg4r6qiOYANADAguWjRIkVAYq6YSbR6yyNHjii2rzS48/3mQNOIfp06bBjBjxdf4c4GVhxDOMjtXPXssQ8Q9DXmilciIpeK38cKdX4bNcoOvuezs233Dt9coyRcNe34khSM3w6hXI34n9bTBgewQQC+dOmSoo+wO0ZYDNhXr1712kui58Xi58jDH9F4lNTMSgM5wkM6k9z4MeOlYfQp1NMlwcE+YUEt9flFfmDx+3RoyBBCnObLkybRrenTTQWyr0nBSyIivJawgQPYIAADlKdOnXKYD549e7ZDVKxdu3YR9u/du1e1ZMwBLA80nwB9ZqYwv7soJsZuUBQPkErrSGLAAWsOYLX0K+aJkUxC6Xfy9v6rkyfbQVUKYPH9HR892q6uGqlWax1fk4Lh3ueNsYQD2EAAA8IIWZmdnS38mJi3PXPmjB1kEU2LzecWFhbaHWPSrlzJAeybAJ42ZAgtjIvTNXDD8ArxkLWAgtc1F9YljRpZUiLWAmBIwlqBqrW+r0nB+ECZ7AXfYA5ggwEMeCKE5PLlyx0k3GvXrtH06dPtvrSQ5lAOuNJ9169fpylTptid640vNn5NdR8C7oCXSSvrW7Tg8DXY6tmoDxQkibDSHLE05SAMsNh7JC0xP6wVqHrq+5oUjKmhLA+nLeQANgHAUniy7ZUrVzoAdMWKFaoAjDbOnz9P+fn5Dm1wKKqDoif6KT8jg+YlJCgOftLBUGkb/qlIPGAUMHg7xkvGmCNGGkUkv1D6HT21XwpgqJmVro15YD1A1XqOL0rBBenpHh1fOYA9BOD9+/fL/rDIsKQlXvSePXtk2/EEXPg1lEGfM2ECzUpOVmXVrDQwivdv/PFHDl+LSr/Sjxl8KMFNzJt+xFoALK2rFaxa6vuaFLwoOpoQgc5TYx0HsAcA/Pvvv1NeXp7ij6olUtbNmzcJc8eeekH4dZShK/RNZiYhMxFSnYkB6s76yg4deMQrH4GvGMaYr0dWKnd+ez3nroiIoJsFBXZSrTMJ2GwraDGgfVEKLvRgsgYOYJMBDGDC4tkZyJCwgamp1ZQ8TaELKGZ55jiyEi3o1s3wAXdT48Zc+vVBADMYC2ppD4a4PDpypB18AcBjGRmy7+Xu1FSHumJgmrHua1Lw4shIQmQ6Z2O2Ucc4gE0GMIys1PxYx48fVw1hhKcsKChQ1a6aa/M62oANFdXMlBTD1M1iqWdV+/Ycvj4MXwZhqKXXtmxpetKHLUlJskCVAzBCVV6fOlW2vhngZW1eyMmR/RgQv/dWW5/Rr59HxlcOYJMBfODAAVU/ZHFxsWoAQ0ret2+fqnY5XLXB1VV/TRk+nDBPZNaAgcAPbBDnpfGGU57u083169OK9u1NeV8AVKX53H1paQ7XPDx8uMfhCwifnTjR4V7M+v8xql1MKcGuw9V44O5xDmCTAewqTjT7ATFHDF9fNSpoVufXX3+lqVOnmv6SsHt0p5yQmU1jJmRTxvhcGj4ml4aMnkTpGZMobSSWydRvxGRKGT5Fduk7vOx4/5H5Qv1BGWXnDhuTR6PG5dLYCTmUmVXme+3OPTo7V5B6+/QxReplgwZy1noaEPx65kMe0vAaJHswOKylkj8v5nhXSTJp4dq/Z2V5BcAAv9HP7on2ilJTTR9bOYBNBvCmTZtU/YgLFiygGzduaAIwQAxor169WtU1nAHG3WMA4OjxuTR0TB6ljcwXQJo4eCrFDyqgyLTpFJlWaPoSM2A6dU8voKQhUyl1xGQaOGoSDR+bR6PHA9D6JWG4Fi2KjTV9EOFzv+bD0JsfHPAdNir94YH0dEWYKkXBUpKWmarYrBLzzp4AptHXgBRs9lwwB7DJAF61apVLOM6dO5cQpINJtiihYobxFpYlS5aQqzniw4cPK8aidheu0vPHTsimoaPzCBJpryFTqJsHIasX5FFphdQtvYB6D51CaaPyCdIzJGfps9ltZ2ZSUb9+pkq9bNDgls/+DV8GfkEaDg11C0g7+vRRhC8guj052aF9WEqblRUJc7xbe/WiksRE+nXYMBJH5cI115tgqMj+b8wuzU7UwAFsMoCdZUnCYD9r1iwH1bNS+sH58+fT0aNH7UAthjYgvmbNGudQ0SgJTpiYRSPGlsEWkmXsQEi05kuznroGnqfX0KmCanvUuDyamFkmKeeOH29IQA21AwT3+w0MADMQI9uSHr/hjQkJTpMpwMgKqQml7926+Hin0NYj/d6YNo329OvncC1cG/eJBBCAsvRefGl7MfyCTYyOxQFsMoABWDupSgTAoqIiunz5sgNQS0pKFM9BW5CKDx486JDkgcEYqQv1WklDlTxyXC71H5FPCelTPaY+9hRwXV0HknJK34k0pVM3mt8xwiPS74pOnXi6QT+wfGZwVVsKBloaomitjYtTNLpiAFWab4WEyuoYVfqae5Fe8E8zMToWB7DJAFYykoLvL1IYMmiKS4ScBGRZUgclgCOuNDIwic9l61qkYaiUYdjUc8hUih5QJt2OKtxO2QsPUOb8/RSbPsuvpF5nEE6NHUkTWsbThBZlS2bLOMpvHU1F7SJpUWdHyULvP7X4PERRUjtoW73eTh4+U9NvCZX0ahUq6ZWRkUIqQVfwhOQpfrfY+t7+/Q0FMAy6WNv+Xi6Ii3MqECmNz2r2cwCbDGBpBCzEct6yZYuD2pmBU1xCOkbQDcwjK4Ec7SlBGG1BZT1p0iSHFwgGU7A+7p4+zQGu3YbOpVkbztLsjeeEBRB2Bi1/OBbdr4DSuwy0gZcBWFrmtY6lwrZRtKCTMTDWmvHoQHAwyUHulyZN6ECjRpoGfwbzI82a0SE3g3+gjTtxccJysnVr2Xtk1+Olo7p9fbNmTn2Gfxk61CVAnUWdgjrYFby1HPd11bLWj4bJw4c7jKFqAOuqDgewyQA+dOiQIMlqAa8YwuL106dPy6qWJ0+eTDgmriteh48xXgS4AcFwqsxoSnked0TBVht8GYSHTinxWwjH9p1Cw9unuISvFMa5rQBjSMbhuqWBNa1bq4bm/oYN6f9160bHQ0IczjnaooUAv3316jkcUwLezlq16Gy7dkKbaPdmdDSdDgsjQF7pHKX9uCe0wRa0ddSPJHul5zZyv7N5YbloV1Jg/jxokOJ7iOxI0vrubK/xgFeAVkiaWX9uz54cwGKo+NL62bNnCekEjbjnOXPmyL4IShC+duMWbdh5mHoMdpR05STX6IFFVLjmpAOAIRHHD5njdxDulpxHo9skaYavPYzjKD80hma3j6QlXbTBeHPDhqphBwkXgLsVG0uAp3jw39+ggXDsYqdO9HPDhgSJGFLpsZAQOhkaSmfbtqXzHTrQpc6d6RpiB0dHC8BmwJSW1yMj7doXX0tuXQpg1h6u5a50LXc9f923BYE7OnVyACksiZ1ZMcMSGYE5lCBkdArC/QMHKl5L6R58ef/S8HDKHTdOdux1JeU6O84lYJMlYCOgK24DhltKPyggfObMGQH0Zy7coC0HLtHcTWVq5LGzdhPgKgdd8b7+Wasd4Muk4J6jFrk8X9yW1deTEifQuJDubsL33nwxoIw544KwaFUqasH1SIPxEQMwICoHoNuxsTYJlAFQbwlAy11DaZ8SgNn1tUjmStcIlP1I6iCXaxjQk0slCMMruBk5A5zRPsDnMjOdXs/ZvfjqMTOSNHAA+xiA4ROsBGDBZWhiIc1Z95ssRPOXHabuw+Y5hWju4kOy5wLCfcYtd3qu1YErvr+U+Aw7Yyt7idYeqnqPTWoNqTiClhUQ/MEAACAASURBVCpIxRuaNVMNud116tDFzp0FwB5u2tThvN1BQU4lWgZCteWNqCi7a2DeGSpwJZB6GsB7goIU74WBGlL/1a5dBcn/RKtWds/D6li1hHFWcViYLOQgDR8cPJgg1W7r3Vu2jhRyzqRnqSpaTbYktOdM4pZe3x+2F8XEUJbBLkkcwD4GYKiypWro8RNzqP/IyYRIUIAMVMVTVhyVBemMtadoQM5aWZD2GLFA9hwmAUM6FkPMV9dTY0YYKvW6AnR2SCwVtYuiJaK5YsH4qk4d1VCAShjwFNTPMpbGmLtVC1c19aA6FsMJc8w4D4ZWgJ/4GNZheOWsXSVwS9tRuw1Ve2l8vDBnjY8T6XmnQkPt7gfaAWkdq28LFtJt2qgCrCvAuTLiQrxm+PTCihp+xGqsppV8gF3diy8fN9oYiwPYxwAMdfSVK1cEN6WMcblC2EU5EALCU1fKS8IAataCn6n3mKU2oEI9DTU1g61cmT5pg62+3DV9YV9a1FCPwlcMZ6aehtEWXE/UAgDAY3ADaKXn4TjAyOrIlbdiYoR5YFf12LlSNTe22TFIluJ7AAChsmbH5UqjAQyJ/3J4uHBNXBtz3fhIwHK6TRvZe5EDtfg52DqkfSZh761b1+5ZWR1Pldtr1iQY6rkLLaio5dTXkH4hScupsF0ZbiEWtbv35Wvnz+7VS1EDqaSZdLafA9gHAXzhyk0q+fmS4KPrbF4W7kTOIAzITlt1TGgHkrEcdMX7hk3d7LMAjuo/XZWbkRiYZq0DxEuDmtG2GvbuKBj45UDF5n4BNrnjAKIc9Ng+SM/MdelgcLBLWOM8GGyJISOWsCF5QrXLlhvR0YJkzrZZyaCM+nJSs7h9Pet4Jtwne05XJVTouA4M2KCSPteuHUGSBsiVDNOsorpeh9SGbiZz2Nyzp80SGnPCTNW8q29fh7YRzvJibq6tvlRNjW2cvzomxuFcd+/TyucviYggJGZxBlUtxziAfQjAAO+m/ZccQAk/XaX5WUi2g/LWU0HxcYfzxHBVs54xY4dPAhjwHdw5zWuSrxTkE5vH0aKKDWjJd/VoTdUg2lajzKIZcAREAC6AAWpUWDIz9e6V8HA7KDJouQKw9DxIi65gBfck1j5K8UeA+FxI1Lg/OekS+wBjPIe4LaPXxR8H4nuTruNe0VeXu3Rx+fzs3ENNmph671r6Yl2LFm7BDhmSAE7AF6EpAWRAlEmyiLSFuWUtBlvwPQ40CE8dMoQDWGwZ7CvrCMCB9IRa7/fq9Vu089fLNGfjveAYcsDEvO/g/I2ykauMAPH4OXt9DsBlku8Ay8AXMJ7coJMAXwAYy9KK9WhdtSC61LlMpcoGf2kJmMkN2DDKktYVbwPm4vMY0MV1pOtwXRKfg3Um0aIuYAawQhUsrSfeBoSZ9C3eb/S6mo8K6TOq2TZDcnfn2d2BMOZ3AWCoohFZC768NwsKBPcmlHJSrpp9aC+QIDwnKYkDWCvEvF3/1q1bBDchRLRSey83b92in49fpfklZa5EctCV21e07jSNLtpJcuppd0CMeWNfmOdl9wj4DrGQ5Msk4Vk/tLADMCC8pX4YHWwdSRfCYwXjIjk4YB5XbvD+qX59pwDGnKj4PDVqW8ylis/B+pm7hl6AryvwSs/1xDYzFJPrOz378Jy7ZAzePPEszq6hF8LiLErIWITEDWoAq6ZOIEF4qYFqaK6C9qAKGhKwWgAfPn2NFm3RBl45GOct+YVgPIX5YAYmlMOnbdGsksZ8sbgNK68DvoPCXYeWZFD0VJnZLNamfmYS8MagVrQ/JNK2/BoaSVci5Y2qMAcsligBX7gMOQPMrz/+aAdTqKSd1ccxSLtSdydEyMIxgMkZILx1jAUjcfVsWo6jbxHYxFvPpHRdPRBGpCw1MNVbJ5AgPM0gNTQHsAcBDMlXmvdXKg1jnnft3gua4SgHX+m+SUt/FcDbd8JKgjpZelzNdlr2Gp+A8KCugyyldmaAn9zQXv28sU6IDbxiCGP9ZAcYN8XLwhLuSDAcUhN8Q6pGxblqIQQDJQYgwB8GVf4EYADWVR/imaGSF3/4KIHRk/vXhIRomhNWE85SL3zZeVfy8wXVtpUNqYy4tzkGWUNzAHsYwFLgsm2om/ceveJynlcNJM2sAyk4asAMS0O4X/RwS8IXEC6qGWJTP6+r2VwRvgzGB1pF0vlw9cCUglXqzwvVsbSOmm2orWHtjLqWBfDdWNlqngd1mEsXwAotgSvNALQCUhcsTwJXei24KKnJpATgwKrZnXleBlg1JdTb/h4reklkpCFBOTiALQDgE+eu05Jtv+uSSM2ErVLbsKq2qvo5JS7DsvAFgBdWbmQD8I7g9i4BzEB8uE0UXY+WV0srAQeS7m+SuVxIs0r11e6HRMhceqRQ8OY2LMblngE+zDAYEy9K7kVQs7OIY3JtSQ3avPm8uPb2WrUUI2YxSQ+qZy2RsNRA1lWdQIDw5JEj3TbG4gD2IoCv37hFWw86uhUpgc8q++HSBGMuq0G4V8J408NLMlWynjK3cYQNvksq1qOfWkSoBjBA/HNIBJ3trGykxYABa2nASE5lelgBUuxctSXgridrklpgAZYXOnYUpFJIna6MvpQsuwFfuX5wdR/4wIDUj48NcZ8ogdtVe2YeR8SsFe3by6qjzZ73dQbinSkpsvfEPgx8vSxKTeUAZipcXytPn/ctqVcKf8wjWwnAPZKyaXzLbpaWfguCwmwALv6+iSb4MkkYpZw0DLUwAkvAX1c62MNFBzDBfK6W+V8xeOTWcU0zIMz8ocXXxH07S28o91xQv8v5J0v7x9k25r2Z6h33Y8bzOru+2mNbg4JksyjB8vmnAQMIoSgxP+sMmEYf83cAL4iP5wD2NfDeuHmLth267DPqZil42Xa/zGLLADguZTKNaZ1oafhCYp77fVMbgKWWz2LAqln/OSSSznQqC9gB9xtnoGFxpMVAM2pdzl1JLTSU6jkLLKIk0QK24mcCNKXGZ0rXc7VfbGUOSdtVfW8d39ygAS3r0sWp1HkgPd1jEPZ3AEOCdzdFIVdBe1AFff7yTZq5+ldKHrvMkMhUDIbeKK0C4Oh+BTSqbW/LwxfuR4sr1rcBWMv8ryOQI2hNjWYENfaqKoikZR/SUgwASHBiMBm9bgaA5aRZGEDhQwLqdaaOxrNB4oe7lPgjA/7SOCbuB3fWIemL+w0aBXfaM/PcTcHBTgFckpjIAexmSE+x6nza4MFuScEcwB4C8JHT12heyTlKGb9CkBwROhJJ7r0BTyOumZSx2BISsBUDbcjND09q1EWAb3H1JrSzcQfd6mfAeFNQKxvI4Uu8rGJdKqleWxYKaoJuiOGidR1GSYitbCRUxEZQAK+c6hnXlAM1YMncpoy4Jzl1OPrIjA8PI+4XbTjzEeYADnf6gSKGq5r1WcnJHMBWVkND5bz5wD1DKwZgzJ8ihrMRMPR0G7hvK8z/psaO9KjkO6VDH93Xm16nDS2r3NAt8AK+O5t0sIMvC+aBcm3VINpeo4YNhocaN7aT3LTCVW19AcIGRozCfWM+G5KtM7jDdQgfGAzEMJgyInYz2sUzOfMPBuiNUnEbBV7WDtyTihXSGHIAGwvghXFxHMBWBfDFKzdpxc7zdpAVq24RpcrT8HT3epDa5UJcehrIPZKyLG3xLJWC51RvRiuqBrsFYFhNr6hyz41JDF+2vqpyEO2uW08IHMHApBak7tRTmptlUDC7hHEUwO3udZRSGYr7BvPNiEDm7rXMPH8bLKM7dHCQ9rQCGHmC9RpnBcIcMKTknAkTdEOYq6BNUkHDynmhTCjJwjUnCerb7sPmkZoUgO4C0+jzx83e43XpN7bvFBoTan2jKzGEF1VqQKurN3ULwOtrO8aQZuBFiXnh7cHtCKEsb8TYu8+IAWLWOrIMmQkVM9uGEZtY9a3UR5C49bg1mXnvSm1vqVfPwShrQ/futjSErsCKyFkAzIWcHF0QDhQATxk2jAPYSlLwkdPXnUa0mrn+jM9JvgA5pF98OHha2hVfDzGeh3foq1sVLIaip9ZzmpT5/66r2cINAN81vLqbQUkMXqyX1A21axsRtJTiSSvBxYj9vgInMbRgsCU24hL3A9TasIKGhC8NaiJuw6rrG3780UEKRlrC3ampBOnWWYAOpCq8MW0a3S4sFAD8e1YW4Vy1ltSBAmB3/IG5BGygBIyMRzt+8X0XIyWp2QrSrxFhJjGXuyRxFK3uO1FY1qRm0br+2cKycWAebRw4yW4p6Owe8AsadKCNQSG0r0W4HSQdrZvvJWRQOra5Xqgwl7ysUkOyLZUb0t5m8m0jcIcYKGavW101KwUlEjg4U9VbMeKX9BlcbTsLV4k0gvsHDqSLubkupVwAGSEtkQPYlfSM42cmTKAVEREOHwBqjJt8qc68hAQuAXtbAkZUq3X7LvqkZKsEXPF+SL8Jw+d7VfpN7Jnp9rzvnJh0O7hKYSu3rRfAE1vGU1HEANrWJdlt8CoBWc1+JHWQRnQyC8S/WCiBvSsw4biryGBWTEeo5rnEdYRIWTLzwVLI/TZqlCqwqoEvqwMpG7mHpdfyp20hLnRWli4IcwnYAAn42o1bVLzbnAxGYgh6c33C3H1ehW90v2k0uk2S26pnSL1ykHW2Tw+A88KSaE1qpnCtvR0SvQpgQPpYu2i6E2f+vLCVfWTFUGLrUJlDykXwD+lHCqyglVTqe+vWJQTlgHoac99GGICxezKjLGnYUBUEDw4e7FQtzcCqpcQccnF0tKrr+yqYc8eO5QD2hhR86epNWrZdXyKFonWnaWDuOho7a7flDbIQPEQ8F+vpdXfTC2aGdKMZXdM0wxdgntYpRTP4Z0cPKrvWgDza3yra6wAGhA+HRdEtkyHsiWxB677/npSWbSI3LCWQbahenTb98IODwRhALJ0LhnoaqQgR/AOGWvBJxnywFNbQKCCbklgDgHtZXa0alchcS3pvqItnUnP/0nPVbq9t2VIVBNd360bHMjJsc79aYKtUF6EwfRWuau57qk5DLC4BuyEB/37pBi3aog++kGb7Z622QQ0Q9qaE6+zaU1Yctd2np8GL6/VMnKgZgDCwggoY0uuihJG0Li1HF3wB4KkdtQMYc8w4t6TvREvAl6mqYSGtlGPYCLU0olBBOlQLBa31VlWtSvfdd5/iMvZ//3N57RfLlaOKL70k1Gv37rt0/333CfDDvUDlDMBK+wJ+v9KIWNI6bBthMKEJWFSlinCfsX//u8t7Gvr550Ld8SruX2ufsfpqVdEMOEgpeHLsWEPU0phjZu36Yzmjf38uAXtSAgZ85dyMnIFMemxU4XYb2PKXHbYsgIdM3mS7T08DOCZ1mm6Xo6U9M3RDV6ySFgM4O7QHQb2c48INCkZdaGNr4khLARgg/iU0km7GmqeOhiSopLplMNBbMgC/98c/UrcPP3RYllSu7BJ2YgBHfvABPffYY7T+++9t5yHjEYOpO+XBdu0EqMZ/9JGtbaXn9gSAce3NKlXRYkhuSUpSNLyClTSSPayLjxesqpUkYOyHwZe4XX9an9OrFwewpwB87uINml9yzm1gwid4dNFOmrT0V0uHpfSm69HArum6pF9YOosh6s46s5K2byNPsKQGjKXuTAA2q7sjdqDlAAwIH4KvsIkQhr+sEmzc2c8AXOnll3W3Lwaw3L0YBeBDHToIAE6vWJGOh4Q4/SjxFIDxvGtCQjSDcHnXroTUhrCEBkzhvgQ/Yenc7p5+/QTXJTkQw/XJn6ArfpYFOiNicRW0RhX0mQvXDYGvVBq26vbEeT95TfpN6JWt2+p5ZfJ4GwQZDM0p82hxj5FUFJFmW1b1uXft3V1TLAlgQPhg60i6Hm2faMAdiU96rhnzwa4AXPTNNxTy179S4Tff2AG61z//SR3fe0/YJwZw9hdfUJf336fNP/xAiypVoq4ffEA7WrakqXXqUPz//ke5NWvSLVEyhuuxsTSiShWK+9//aFb9+rSkcWMK//xz2t2mjSA1l4SEUNR//kNdPv+c5jZsKAB4SKVKwrFrkZE04osvKPSdd6jtu++SWN0sB+BZ335L4e+/T2HvvktS1Trmigf861/U5p13qMN779H0ChXsnlfuw4LtE1TRnTrpgiHU0oeHDyfME4sBJF7HMQZqMYhPjBmjeI74fF9cX9q1K5eAzZaAzxok+TqDbe7iQzSiYCtNXn7EbQnb2XXUHIPlc9SAGV4BMAJujArTl+VoepdUD8HX3l9YDvB7Ova0LIAZhM2MmoXsRZgPNSo7EQPwW088Qe3ffddu2fLDD7SpenX64yOPUM1XXrEBCYZQjz7wAAW/8YYDgAE3zCnDAGriF18I6//985/p2XLl6KtXXxXmh6u99ZZNJV3rnXeEfX977jmh7vOPPy7UK27WjOY3akQPPfAA/al8ecLx8g8/bAfghLvtv1CuHD31yCPCsaR//lO4JymAsY17fqlcOXrziSeEuq3fftv2TN+8+KKw790nn6TnH3uMHrj/fsLHBIOsq9JV1iR3IQi1tBi+WIe62t12rXy+ntSEXAJWKQGfvWCM2tkV+Jhh1tApJV4F8Pg5e70CXjbH3DdulINqV6rqldvG3KweVyM5eBqx76c2cZYGsKCObm3unDCTjC+HhwtZhJzlLgY4AGuogU+FhgoL1pF9CEkSNtapI4AHwHn4gQfslo3VqwsA+vHNN6ncgw/aDKu6f/ihAE1Ix2hfLAHbAFy9Os0LChLafrF8eTp21xAr9OOPhXOvREfTma5dheMx//2vAOTGf/+7ANk78WXz6f/585/pj48+SqfCw4XjzT/8UKgPCRh1Krz2GjX9xz+EwB/ra9akJx5+mP713HPCPYkBjGQKLzz2GL395JO0okoVwZK6xiuvCJBdVrmyYMENw7HKd9XwmL/Get9PPlENYPSDUsIGoyCHQBxSCG/q0cNvITx55EjNUjAHsAoAX7hykxa6Ye3sCrri4zB4QsKGkdO3eQ3A3o54hVjP40K6awYw1MDuWDsbAVy7NuCCFOI6upUV6sAwy0zraAZhlLAm/r19e0KqPyapIesRsh/JWSCLz2UQrPPOO0LGJIBZGn0LqlsAKvGu8dMHTz1Fnzz7rO1acgA+EhpKy3/8UQDmgO++s0m8iV9+Key7EBlJv0dE0IP330+dPvuMSrt1o3p/+xs9+eijwjq2IfH+8PbbtnPXNG9uAzCeAffe95tv6JvXX7dJx39/+mkHAM+vWFE4T87ae/R//yvU//TZZwUgf/zMMwRDMpzD+lJtubVuXYdY0UbBF+3A6ApSrxjCsKo28hpWaktPbmAOYBcAhp+vO65GYrj6yrq3sx0NCh+oGb5zYwdbRu3MIGw1FyRXoD/cJopum+wnLIYp1uF3i7li5P2VHpPbZgCu+957dvURFEMMns+fe44+evppmlahggCzVJF0KAdgAJYBeEa9era2xQCGFPvt668L7QG8ACTmiXGfN+PiBOjXfvdd27lbWrUS6kACPtu1K7365JNU7qGHKPiDD2ho5cr03tNPkxyAIamj7XqvvUaTv/rKbimuWlV4TsxZY14bki9U7lB9a5WA0V/OcgcbATfEgxYDGOuIJW1E21ZrQ48rEgewEwBfvX6Llu+wTyfoCYgiWQNy7mIO1tOJGxAcJHpgkdfUzz2SsjXDF6rohQkjLAfgLUkZPiMBMzgfbYuwld1sEJGDoDf3KQEYgTHEuYD7ffqpAMQKL74ozLeKA2+IARz56acC7NQAuKhePaFuSoUKNLpaNVrepIldP338pz8R1NdoC33U4+6c78DvvqPsatWEcwd8+aWgXl9ft67g/gQAw0I6867UO7lSJcJc9uMPPSR8QLDAHIAroDzi3/8mAPr9p56i9M8+E2AMFfSTDz9M+OgQf4SoWXfHIEstADEfjEAcp8ePF2AMC2rElFZ7vq/Um52czFXQRhliIbbzSkkuX0/AF9cYnL/RBsC4wbMJ88HTVh3ziEo6fdIG27XZfKwnyxHt9SW9LwzvT3KJFJg06o1yW8IwnwMwQHy8nediR2uFuRKA0Q6iVrEgIFtr1BCMkwAtWEWLYSQA+OWXhQhXDJJqAHywfXt6plw5AYSPP/wwPf3YY/TmU09Rfu3aAnBnN2ggQP+D55+n7954Q1BX4/pJn31G077+WlAZv1q+PMGACvO/UGe/8+SThPzCM+vXF9pd1qSJEJ866oMPhG0YYMHl6g8PP0w4F1G1YGiGZ2DGZt/eNcjq/Le/2T2n+JmdrW+UyZhkBvTgysTyC8NKemNCgl9BeG6PHhzARgF40/5LHgGeHNTFABbDD+EgMT8sXYZN3WzIvY6Zucur8E3qMUGX9MuMsRD1an1armUk4e3x6T4JYED4bCfPZlFSC+JLUVHU8P33afBd1x7peQgCwsJGNnjjDQGI8ypVEsJI/tywoSB9tvnoIxpUsaIAzWlBQUJ7V2NiaF/btgSjK6iOWbtwNcK+azExlPz11/Tc449TVo0aNOb776nnl18K1s4wvMIcMM5ZFBxMjT74gKCKzqlZUzh38t3gIJBev37xRWGJ+fvfCRbQDV5/nUpq1aJNLVoI97GrTRthjhz3Ctej2q++Sl+88AI1e+stwSCLgXRhpUoEYzMcgxq698cfO4SxxJw6/LGh4ndmiQ6jr5Xt23sEhshHzFTSR0aM8Mg1zfiYkGtzQbduHMBGAHjv0SuGAE0Ormr2KQFYDGPpuhKc07LXCIE+1Fx3UN56rwEYbkcZBiRbyG/Xm9b2K4tC5Q2pV3zNndFpPgtgQPhiV2tCmMFRqcyrVYuqvPmmYCCF+Valelr3t//0U8E9acIPP9Di4GABxP944QV655lnnF7jSLNmLiVT5BoW3w/mxt2JJgZ1vFzoTBi5ySWOKAkO9ggMSxIT/RbAi2JiOIDdBfCR09e8Cl+AUg+ApUCWbkNqRkxnZyBGOEyovKXnemK7T/xot6RfJgWjzG2TSMUp2rMeieFpxPquiFSfBvDPIZF0Ncq8QB1i4Bi5vrRxY/rXSy9R0Hvv0YkuXezA5s51YEgV9skn9O+XXxZUz5+//LIg7e4IDXV6DaQ8ZJKrUgkrcGRWEt8fkkAo1VfaD2jjPLlkEaxtHGOqenE7q9q2NR3CCOThrxKwnrSE3AhLZIQFX985G886hZQzgBl1DIZXcAXqMWKB4TAE3J3dJ4ywEKO629C5hl9bCeTR/Qp0x3sWg1e8XjYn7DpQhhGgVWpjt5fzADPDKnfKg6084yPM4OCr5b627Snxy+8o+j9f0drmLQWQwrJbjfTLICjNTQwJ1pXPNDsXJc5XbU0eFuYAd7UpC+XUr1r2XZ40SYCwv6mg0QfZmZmapGAO4LsAhsXzkm36Mxs5g5reY7M2nBVgGJs+y1AYqsm8hGvDCrv3mKWGXlsOwinxGW5Jv5PaJtnCQLKQkIjfrARGT+23ehQstWBGGkMWbMJXAWnmfS9t3JQeffBJuu++8sJy/33lqde//qNLhSyVgs+EhQlBSMRpDsXQxTrSKMKQS8szAu5yUnCxB6RghLKEFIwMSbv69qVVUVGmS95aPhDcqZs7fjwHsFY19K1bt2jdvotOJUO9EDXiPFhA9xq9xDAQAugFxcdVP6+ZltGY+x0d2lM3gJF0wVLBNwbek7r3tUvwaRW0GNAn2qvz09UCAX+p+9kLr9rgyyD8xMN/dDCKkoJTbhuBReT6BVHE5OpjHyKGyZ3jap9crG6zpWBYPkuDc8AtCdbRe/v3d0ju4A4MvXFu3ujRHMBaAbz3iHeNrtRAGhIp3JHkJEg9+/qMW64awGamI0zuNkY3fK1m9SyVrPe17eY3AAaML4T7plGWKxC5c/xip0707KNPOwAYIF5WpSxohhI45fZjDldOjewMwBdl8hereSbMBcvF6DZLCkaSBil82XwwK+Ge5MtpC/MzMjiAtQD4xLnrqkGkBpRm10F2ophBMw0BMeZ61dyvWQB2x/LZin6/DgAOi/crAP8cEmFq9iQ10LBaHUTg+kJGAn7+sWcI7j1ykHW1Tw6ozgAsB2y1/YSQoNL7McMiem1cHF2bMsVmgMWAK1dCRe0N6dWIa+ZrjAcd0HPAl6/dpAWb3c/rqwZiRtZBpiQ9Uq/0HGQ6yll00CWEzQJwr4RxuqTfWVEDvT6/K4Wt3LYvJGIQq5nVrCNcJZ8PvhcpDACe9W1F+lO5Z21ScPmHnqTR/1WfmUgKQDkAw79ZWg/be4KCdKmfGaAhBWMOWdr2CoP9gpE7WA62cvsgBcNa2gggerqNySNGcAlYrQS8du8Fl/AxEpxGtQV1tBSmerfhduTKPcksAGuJepUZ0p2gcrZiyEk5+GLfT61j/EoCZoA+3THGrUGfDf7+ULIY1KurfU99Pv6Menz4CS2qVNkBaFLAOduWAzD66my7drSrdm27tuHT604/KhljGR0dSwuAAWXU9zQ8jbjelOHDOYDVAPjnY1d9Er6AuJEABrjjh8yRzT88ffUJISuTGS5JCb3UxXwuihhAK5LHWS7MpBJ0xfv3t4r2SwADxJci+HwwLI8RdUsJppAsj7VsKUSjQqANpXrS/TgPYTXlwAp1MyJcAbxoE3PQcvXU7jst446E+0GM6OWdOhkGQa0Avl1Y6DRUJeaJL+Tk0JX8fMUF7k4HBw/2qJX11GHDOIBdAfj8pZuW8Pd1RyLuO2GlYVIwIIx5ZbgdsXvC/DBU1Hola1fnDe6cpkr9bAV3IjFUtazvD4nyWwDDP9hT6QvVwsTselDXAnoAIBZn8IX/r/h+cC5cieDXq8a3FzmQxeebtX6gUSPFDwMjMyVpBTCkYEAY52H+GK5KbGHwlVNfy+27WVBAvw4b5hHjrqlDhtgBOD8/n2bMmEHz58+nFStW0Pr162n79u20f/9+Onz4MAXcHPDNW7dohZeSLDC4GVUiY5LRwTpYXGkzw1Ii3+/4lt1cAjgvo3p61QAAIABJREFUrKdPzPUqQdmfAQwpGEkbzAKDFdvVEpkKLj7OngGAFUu+gDOgzXxztfr1OruWs2PwO1b6kNgaFGRYvmA9AJaDqTv7MLeM+zBzfpkBODs7m06dOkWuhMGAA/A+L8d5Ngq+rB2oo2EZjVjQrqRONceZe9LwaVsMaU/umv2ih7uEL6JaQf2sBDdf2O/PKmg2HxwoqmgAEeEixdB0tg7rYmfgYxIx2oBUjW1W3x2rZtaGlhJzy0rPsrpNG0PU0L+NGqXaCMsdyKo5F5I17geStRHzvmijODqafs/Koov799P58+fp0qVLLuELOAcUgC9c8X3VMwOvXIngGqOLdgpzunLgU7MP871oG+poNfW11oHr0ZjQRJcAzm6dQCt6j/VpAPurERaDL8qDrSPpdtw9eGgZ+H2p7sHgYEVIieEFaRJzuHAbkj4fDJ6w/1y7dgTjLVg2u5KUpW2YsY2MSeJnEK+XNGrkNqRWRESodkFSA1Cj6iAAiHgOGXPKbEFgELacHDuW2AIJmi3IccyWS3l5wgfG7ePHVYGXScYBBeDi3edtc5xyAPOXfVNX/uZWLGfEg4YBlla4qqnfs2emS/ginOS6/tbIaOSOpO2Pbkhi+LL1kx38WxUNgygxlOTWoUK+LWM4BckZqmvMtUolaGwDxmZAVUubzgAMX+YVHTq4BeED6emWkX6NgrdSO7dPnuQAZl8X4vLXU97PcuRJwCN8ZcLw+bogOmnpr8KHitHzywB0epcBigDOCU2kZUljfFrqFQM7UAAMEF+J9L2sSWoh5SopwoHgYLvUf7diYuh0mzb0U/36LsGNc9Xeh1n1nAEYHxswxsK8qRaVLQymEOcZkiPmXpWA5W/7b58+zQEsBi/Wr1y7SfNLfC/ghrvAhkq656hFNghDvZwyfoWQ7hBzvNEDi2zHxNIrMjHh2kanRYxJnUbjQ7orAnh5L99WOYvhi3V/C0XJJF658tc2UXbzmGbBwlvtKkFK7DKEeVyAV+qrKycxs32QggF4bz0Xroscwex+WIn7gtodbkrXunWzARTznLtTUwlqZen8KayT96WlCapbqHf9Da5qnuf22bMcwFIAbzt4KSBUz3LAnrH2lBBoAykOpcezFx6QhTBiTqMuomSJwezuuqu4z3Ni0v1G+hUA7EfJGOSgK933u5/HioaKGepo8SI2npJLbsCA5qy8bGDOYr0gv9q1qwBcuFfhY0Pqh1yam2sHVEi1xzIyaGuvXvTTgAF0LjOTAhW6YjDf/v13DmAxgOHzO9sCOX6l8LPKthyEUyeuEgAMC2slKVkPjId16Kso/cLq2dfdjqQSsL+kI5SCVmn7QAD6BouBpxTUwhl8cQznidux4nrp0KF2ABZDh68X2frm9pUrHMBiAK/Z45vhJj0J6NzFh0iccxhBOfKW/ELIG6wHtHLnwPd3Qst4pwAGhMuiXt1L6SeFmi9t7+6S7LeBOJQg7O8GWc7gqBfA0qAdzq7hrWOlPXtSaYCqlbV8YNy+eZMDmAH42NnAMrxyB9owvEJcaAZPAFm8zfbrLVPiM1zC1x98f8UfCLsiUgMOwPtDIuhGtP+7JcmBEGEhpZbOYumXBdkQ78M65lrl2rPavtLsbJukpwVKgVL3zuzZmuALTvmtGxIiXi3b/rvDvKc7kPL3c/tnrbYBWC9olc5zpX4GfLHA/3fDgFy/mAveGZ0WgACOpGMBFiFLDEr49sqBFsZazA9YehzW0uI2rLpeOmQIB3DRPXWz9MPizsKFHMBM+g00tyMjPg7MArBa9TOD8NKeGX4B4B1x6QEJYKinr0V517LXmxCDAROMmZikC+CKo1tdj4yknaKsRjjuzftVe+3SpCQOYGcAXr6cAxgAhvS7ZBuXfrVAGZGvjFQ5iyVhV9bPDLysnN4l1S8AvC1hWMAC+EiYfwfnUAOtG9HRhFjLUotinHs8JIR+bthQADWiYqlpzwp1SidN4hBWgPCd1as5gAHggyf43K8W+KJu92HzTFM/q818xAAMNbR4LtVX17cmZQQsgCEFX+YpC30GrGrhXjpyJAewEoBLSjiAb9y8RYu2cOnXKgBG7OdxrRJUGWAxAKNck5rp8xDenDIhoAHMpeBu/gfgvn05gJUAvGcPB/DPx65yw6uN2qN+mSUB90jK1gxfAHh134k+D+BNabkBDWBIwf4colKt1OhP9UoRFauggENYBsJ3fv01sAGMud/FW7n0q1X6NVMF3T9qmCYAF3TuS8UpE3wevkxtHkjxoOV8g4+ERdmkwIudOwvZf5AL94wPBJ/wJ3Aa+SylEydyAMsA+LaK/L/MSJiVfuWGdDjAEi7oAa3SOUhjKDacMmp9RPs+qgHsL8ZXDL4o93ZIDHgpGBbRCNnIrIJZeVSSB9dISPC2zFN/c3ckeVek25cvB64EfIv7/bqtekcSBiNDT0b3K6DxLbupBvDChBF+I/kyCO/umhIQAN7XPJz2NOtsW/a1CLc9N/yC4XrDwCsukcbP28kIOKy1wbo0OZlLwBIJ+M7MmXT71q3ABfDxc9fdBpCSdBhI+xGCMn7IHEOk4UQVuX/tDa+y/A7AO2IG2EAkp6L1h327m3ampRUb0JLv6tmW4u+b2D33idC2sgAGjBGkQuwny4GoDYje6K/SadM4hEUQvrN4sWb4Qg3tNypoHvNZu+GV0oeFNI2hXnV0v+jhqqXfSW2T/A6+kIK3JY6wA5E/AFf8DDuC29Oyyg1t4BVDGBIxq7s16EdFAAPCCEyxu04dgkQszjDkDbjwa7r+ACidMIEDWAzgDRsCF8BlGY+MA5ASmAJpf9G60zQgZ61bkvCwjqmqATwraqBfAthfXZG2B7ej1dWbyoIXEF5epRH91CJCAPDeZuG0tGI92l6jplMIM9X0sZAQDuFuriHozQ8Fnh3Jfh74jg4XJL+RgHf8cpmrn3W4Hqn5oBhVuF0XhAX/35DuqgHsb7mA2RzwxgF5tL9VtE0SZBKhL5cAq1jSlVvf0jDM9syb64UK9ddXq6MKwADx7qAggpEWLKe5RGw9GJempnIJWCQB3z56NDAl4Bs3b9P8Ei79qoGpnjpQR+tRQXfrM0k1fDEP7LcAhiV0+x42GPkyeNm9uwLwsioNCVmRWH3MBwtSccW6qgHMpGGmnj7UuDGdDA0VksVf6tyZkPTAmxJgoF+7NCGBpycUA/jixcAE8C8neeANPWDVco6eGNG9u4/jAB5Yltd4V0RfG4wYlHy5dAVgwHZn4w53nzmCllasb5OYN1evrQvCYiCz9bNt23IIe1FVzeNCl6mh9aQh9Bs/4FW7LnD1s0nqZwbpXqOXaJaC0yKHagLw3NjBfjkHDFX09vjBfgVgfDysq9XCBlU5FTSzgt7XoqtdveIqQYYBGCBGDl5Io3BzYuuBLp166vlLx43jauiiIrqzYoUu6dfn54DPX77J4WsyfAHhgbnrNANYiwEWVND+DOAtyWP9DsCA8MY6IXZwlYJ4ZbVgWlWtsV0dLcZYTNJ1VsJ6ek/QPaifbdeOS8Uekop5QI67EvCOHYEJ4L1HrnAAewDAegyxxrbuwSXguypofzTEYip0ZmAlha+z7Q3VjFNDS+G8s1YtOtq8OZ0KDaVrEREcxibCuLRfPy4BFxWRXgMsn5eAedxnzxifZS88IOQKThg+n3qOWkTJY5cJC1TTSOIgjZ4VkzpVE3z9XQKGGnpPx55+KQUDxJjvXVWtzNDKGXjZsZWV70msUoAavY2cu+fatePRtkwAcWnPnhzAAPDVq4EnAZ+5wCNfsTlaK5TwG5668jfKWXSQMsYu0Qzg+fFD/XYOGAD2x4hYMMZi4SfhF8wAq6bcqtIn2CggQ019uk0bDmKDQVw6fXpAQ1hvBCyfN8Livr+ekX71wH1q5nJNAJ7YEvl//S8Mpc0XeOAk2pqU4XcScEnd1rLQbfP2h/RiufJOlxkVKlO911+nV8uX122UFfbuu/TGH/6g6Xz4F5/v0IGrpg0CcWlubmADePNm3dKvz6qgkXhh0RaedlAPHD1xzuShRZoA7I9ZkMTwxfqm/jm0PyTK4hCOIESt2tWkk7AgxjO2xT69bO4XZXF1ebVz0of/o+p/flNYKr/0Ot133330p8fK2/bhWNE3P1D1v/yFnnn0UU0AFUvEDV9/nR5+4AHN5yPSlqcshf39OqXjxwc2gA8dCjwAc/WzdaXf4dO20JBO/TUBeHmvsX6tfmYwtmpqQqiS4Va0rJJ8TGeolBl4tzdqR8XVfxSWJRXvJV9QUjvP/LqWAOD/e/7PDtLy914C8O/t23MAGyUBjxwZ0ADWk4KQqZ99VgLefdj61s+IINVt6NyAstKesuKo4K40sm2yagDnhflnEgYGXXG5I3agDWQMaN4uAV8AVQmgbD+7zxVVg13WZeegdAbgqn9+RZCAS374gQZ/9hn1//RTWl6lik2izfnySxrx73/btiH9Dvn8c8r/6ithn5wEvKRyZaGdYZ9/Tuu//97uXJwPtyWe/tC40Jal6ekBC+A7S5e6Jf36LICXbfcN9XPhmpMBCWAtLkgLug0PCOkXILaaP7Ba+AKkALBWQytXAK788qv01COP0H+ef54eeuABeuSBB+jxhx6iKV9/LYCz4ksv0UvlytlB9I+PPEK1XnlFFsDJH39Mjz34oCBxQ+39l8cfp6JvvrE7/1jLljbp91ZsrOCutK9ePWLLgUaNhIxMR5o1s4W+vNq1q0ehjfvC4gvq60B2Rbrjhv8vk4J9Lh3h+cs3AgpqnpizNeoakICRhEGc49fZemZIN1qXlhMwAIY/8E+hsZaQgsvgKz+HK5Zg2ToAXFK3LKkC26emdCYBV3zpVQGWf3/6aSquWpUWVqokgLjB669rBvC8ihWFcwHtzT/8QIsrVaIXHnuMPn32WTsAI1AH4HaiVSvaVVubP7LRkbZwH4hvDb/lg8HBwkcAJHRI6vgguO0DEC7t3TtgJeDbJ04EngT883Ee+9koYBrdDgAcl5KvGsCF4f0DB753g3Ls7pridQAjPCRLkKAGoqhTpoKOoLU1mhmmgv7uxTIAM4kX4Hn+sceo6p//rBnAvT/+WID5c48+Kki+kH7LPfggPfrgg7S95r00iACcVvDivrAYaT2NDE8/1a9v93HArsPKw82aWV4KFpIyiJISlAbIuhD/+ebNwAPwun0XuQTsgehXeuAMlXvftGmqARwoxlfieeBtCcO8CmA98L0H4Eghxy9y/aoFtzMJGAB+6hF7K2hnAN5ao4YAVDkVdPj77wsAbvX229Tjo4/sFkjEDGrulEYnfxCH0FS6L6OvaYZau7SgIOCk4Dtr1rgNX5+bA7556xbN3WRdC2A90PK3c+bN2k6T27s2wsptkxhw0i9ALLgjtfKOO9K+FuGaIlaJIcsk4PW1nSdhEJ+DdXcB/Nxjj9ngmfLJJwJk5QAM4yzM+8b/4x+2+h3fe48+eOop2lC9um2fEujU7If0jKhaRkHslyZNXN4Xrmn11IulU6YEHoB/+SXwAHz6PI9+ZXVgL5m1jTYMyKWiiAFOJWF/Tr4glnjl1vd07uVxKbgMvvaJEaSwdLa9vnZLWqNR/awWwOKoWGIJuPlbb9H9991HER98QF3ff5+eePhhwe9XDsCwpEZQDqicm731FrV55x1BBf31iy+6hByD7966dWWNrU6Hhdm1cTwkhKBCdhfEmP9l13ZWAtTuXsvM8wMtGMedmTPp9vXrgQfgvUet735kdUCafX/LCktsku3ChBEEQys5Qyx/j3wlB162z5NqaIAXgTWkWYmcwdbIY7Mr1KZXyj9BtV/5q4Pauskbf6NPn/kTbfz+njHU/73wAkGNDCCtqlqVKrz4ouCq9PLjj1Pap5/SZ889R23ffVc43uG99+idJ5+0QQwuTHVfe43+/Pjj9GK5clT71VdpdbVqtuPOIMeOwfhpf8OGdgszjGJ1UF4OD3cbihc7d1Z1b4hnbSZA3W27NCsroCTgO+vWGQJfn1NBr9njG7l/ERM5c/7+gJyrXj51vQ3AAE5xygSa1DbJDsJTOiTb1WFgCpRyU1oO7TdZDb0xqBUtrVjfAXp64bq0YgPaFNRKMfqV3nZx3pqqnkvOIIaoO+tGWETDClrNPeCjwF1Imnl+oEXDunP4cOAB+Nat2zR301mfgNqkpb9SxowdPnGvRkvEK/OLHeC6rn+2HYALOvcV1NSBAly559zdJdlUNbSz4BrI0wtrZrYohZQUQ3VZlYa2+90R3J6wLT7uzvryinVVgUgNrDxVx6hoWoCrq3tG/GozAepu26VjxgSMBHxn1izD1M8+JQGfu8j9f42GpRntrcpZ7gjgtBw7AEMljQhYK5LHOdQtU03nOeyXg5gv79vWY7gNaGUGTpGGbitFrIJUXBbf+d71AFRXAIXls/g+S+pp9wl2do1tHs6O5Ap6ro4bYZ2MfMVy6m25a7sLSTPPL83ICBwAG6h+9ikAHzp5LSAlSjMgaWabxZlLHOCJYBty88DYVxSRJhhswXI6M6S7UC+/XW9a1We8Qzu+DFyHe0dQjtYxdlATA87d9a0N28pDtWI9YU5Y3P66ms4tmyHtIu0gOwfxoJ3BVM+xkur35oHlAGTmvu01ahI+ALbUqKW4oM72GjVs0ioMqLRCDYZbMOg6FRpqi8Cl9rmsHBmrNIDiQd8+dsww9bNPAXjLgUscwBb1/xUDvXjiYgdwOgOwEpixf2bkQL+OlLUzqr8NagxuRpZKVsuQjuEPjGttViHJQp3N7gsZkoycW2awXlfNmHlgQBJW1Zur1xaMu9ZVqyPMMRdXCaKVlYNoRaW6tKxiXVqqIpEEuzdxifNw/pZ6IXQkLJqOt4um051i6FznWLrYNZauRMbSjdh4WStpqK3VAlda70Z0tGbga/1A0Fu/dMSIgJCA7yxYQLdv3QpMAC/fcZ4D2AcAvHriIsMADAhnh/agOTHpNDd2CCFuNCyrlySOouKUiQ7XcZAy70afsur+zSkTbGBjgDOyhAW00lwtpF4ch3GVGDBy66jL7mtHcAeH+nMq1KZ+H1egwZ9+Rwu+DXI4LtemdB8AKYWOs21IpJCaN1SrTWurBhHOx1yytF2ztuEPzfpEvoygX0Ij6be20XSyQzSd6xJL22vXI9y3s+eSOwY19U0rA3j48MAA8J49hsLXZyTgGzdv0+yNvmGAxaTB/GWHA/KDYfWEhQ5g1CsBO5OOobK2Kli13Je+FIURgkoYamG2SOd1GRScJVBQkpCl0IL1M2sPEvCyyvcMsEZ9Xpmef+w5uu++8sLy9hMv0dQvamgG4bKKysZICCW5uXotWl+ttsdBK+0Ltg0DNtYnakv0I86HBL2qShBB6sdHhCsoGxn8Q6+U6+y80qFD/R7Ad4qKyN3UgwCudPGJZAxnL/heAI5+mcWE2MgMyP5WTl5+hHqOWkR9J6yk9EkbaFThdsH1atmIIto40N6ICsZWzmCq95g/hLJ05hMMqO7+sRPtD4mwG+wBQQYCVkqNpMRQgNUzqyct1cSE3tIgzO76SORQUre1AOJXy//JBl8G4a//9Jbi9aTXF28zQywAF2ACoFZW8ZxUK74XV+urqze16xNxfztbZ65ccBODNgElPmigGoc71iYJkI+2aGFZ1TODcumQIf4PYINCT/okgH89xQ2wrAbwgbnrhNy/kWmFduXw9ilC8I31abk2CRVuR3oh6+w8f0jmAJ9gOWOsjXVCbBBbVqkhrfmh6V0YR5KS1fLOJh1tUIB6mYFAySLaFWTYcUjRrC1xubZROwf4AsJPPfoszarRguZXbUxLVM61Lvy2viDdYp6WXdfK5apqTWT7RNw/atfxQYOPHLTJnhlA3lK7EV2NjKXSeOPy9zJoGlkGAoBvHz3qIL1KYapn2yck4N2HeQQsKwEYQUak4GXbwzqUwZZJp6v7TjQFvgBzXlhPG+S1qH2tVndHzACHwRwSFhuMWbmuVtm8o5IVMqCNQR8loL2lfhjta455XseAHIiMpTazkRjsYqjsbdGVHn3wSQcIv/bsG7bffGKLOJrSqjvND0ukJS2iaUWTzrSwelNaXLEezf+mPs3+uiEVftmICv4vmOZWcD0fzfrC2yU+asR9YdQ6tB5bGoYRQn/ubdZFuMaBVpF0on00XYqIpTsWhHHpsGF+LQHfWbzYFPgC2D4B4PU8A5JlVNkT5u6j6IFFigAe2rGfMPiyWM+zogbaBmNn0qyeYwhzaTWY6rmfTf2yHCJjyc3PMmtkOUMoAIkBGvBlgJKDLwb3MmBEKBppsfNRMhBIIQPJLfjtf9kB+P77ylO7CvVtvzl+f7E2ZEVKDs2IG0fpwb1pUJ14GvFDVxpbpQNlfdeair7VH6tafL+eWBcHJpH2i5nbB0Ii6Vi7aMHi+nac+/GojZCES/3cCOvOwYOBDeCl27gFtBUk4GmrjimCl0nAQzr1FwbfrFYJVBjeT7BiBlzHNo+n0c3iKaNpNxr5Y3ca1iSBhjZOoCGNE2hwMJYeNEhYEmlQsNzSQ6iH+jhvWOMEGt4kgWbHj6blKTlUnJpLa0Vqbz0gNPscgAhAgu8z+mZ6l1SCen5Khz60sGEHIV4zs64FJMUggSUygIfBHeplptrF/O6G2iHCfCIb+MVxn1dUaURQIWOByxECaLA5ZcGgSkVEK3Zd1j4rd7aMoMxm0dTmq7r0r9c/ov++9SlFV21qgy+s1dGnq/rm0tzELJoSPZHyo8qWvIhxNLhpX0qt39O24PfPbBZLecHhVFCvHRXVakVzv4e0bD3JGB82rB+8Vf4cEiG4QV2O8K6a2p/dkO7Mm0e3Dcj7q6SetrwEjBCUvmYBLYZlQfFxy0iv4vvSu54wfL4shLv2L6SOfYsope1AAa6A6sBGiZTWMNE2wIoHW6PW04J7U074WNvAjgF+SsxEKozPpLmJ2bQwKZuW9SkD9AYvuiUBvlM7ptjgJJX4c5pE0uLv6hOTcmHdDAhDTby5XhuHwV4IjNHS3jiLgUCqWoaBVpkx173oV9hWclESg18RNK2jaXPKeOEDQvos2B7XPJ7m9phABbH3oMvgy8pJkeNpeMsBtvcD74pcW1BjZzeNovxGnWl6UNjd+eUmto8Q8f16cl3pw4T9Dp4sD7WOpDOdYulGTJzHjbb8ORDHHRNcj8QwtjyAL1656dMAS8pYTEhUrxd4VjtvyORN1Cl1BoX1mUkte82mJolzqEHCXKrbbb6wRIcMsw2oRkHWVTuDm6bSmLChdsvYdsPsoFw26JcBYXZClgDmFSmek5qXJGbIwkUMnDnVm9kA7M7gDctaKYiglkZWJLSLOV2xmlpaV7wNCVruXrYljhCk27X9sim7dYLt2aDhSA9OoH71ezp8GDHwSsvRYUOoX8Mk6tegp60dcb8orWc2i6FJwV1omiAth9Dc73+kRR6UlpVU83L95cl98D3GfLGnjLf8NRSlEPf5yhXT1M8+MQd8iucA9iq8i9adpdzlp2j0/JM0qOg4dcvcb4Mtg664jGg90uMAVgJ0XsR4GQg7SmTTYicSoLwkuUxSNksVvaL3WEElj7lrGJBB/QyV9Pz4oYLlOFSvUB8DkFAZwzIWbitQS2NOGMZXagZynCeGKFuHuwvU13KAZnWkJVTc0mvuiE+3m3tfnDhKmFZg2o604GSa0GGkqr5nMIZKOiN0MGW2kpeClSAst99Tamw25y7tH6tsHwqNFCJ03TJ5rrh07Fi/NMK6s2OHqfD1CQBzF6RzpgMYhlXDpm6mtOw11HvsMopMX0Ctk+dQx8FrqWf+YeqZf9Ruic86QK3S1smCuHPYGMsAOLvLaE0QYDCYHD2RZnYHkLNpTf977lRGgLnMIMneT7ooYoBN8ptdvbksPAFGqIyV1J47G3cQwA3AwpJWzooabcBCWk34SQZiqbvNrshUG3zXpeUJmgSo/Ee1HkRDm/cjSLNqP3xYf4vLlSk5QqQzzIvLwVXvPrEau6BuW5pZI4TmV3Vfja1kIW4VCOM+YLh1qkMM3Yw1x2irdMIEvwPwndmz6fbVqxzAe4/6vgvSjLWnLKuGHj9nL3XuV0ht+syiH3vOofrdy1TJTKpt2mclxWUesAMwA3L0+H0OEO7QboJlADy+/XBdABYDAeuYx5yXmE2w4N0gCTLiLpThriWGSm7jCEUAA4riqFQYXAFk6ZwvtrEfCRnk5nkhScOSGkE4IOEC1jDy2hhUBudtDdsSgA4jLRYzGtfa0ymJNg2A2j5PmF+X9pMR20uTc2yAn9E1za5vxP1k1DrAnNMkgqY06ECFdUJp9g/NaWHlRk5/A/ZxgrLsA0V+Lt5KEGb3Agvqa9HGzhOXZmX5H4B37TIdvj4hAW896PtJGJIhVaYVWgrCU4pP0+DCQ9S4pz1wGXjFZf2EBRQ6cIMDiOMyf3YAcFjHbMsAOCM03RAAi8ECS16oq2HYtX7AJBss9IB4w4BcIS2jFCazflDOTgSjKBZ2EqXY4lkMBiYpQyKGClt8DBbUztXZEYKqGueygXtf2260vm8Wze+ZTZOjJxjer6yPYTTH+rI4ZYLpAJb2PdvWosaG3y7rJ18pAeLrBoG4NDfXrwB8Z84cun3tGgew8IXw00XTVbBmGzrlLj5EvUYvoaJ1p736LAVrztDYhSep3/TfBIn2x+TlDgAVg1duvVnKSuo0YjtFjt1DDXsudji/VZdJlgHwsBZppoECwICqetZdGOuRjJFcgg344pJZRNtB87t6NohCWnXmQgQoS0GAoBzS9lAPASVgaIX5YTmfYcBlX0g0LY7LEJ6XgdKsEpoGBmCU0zopW46L+8wT65CWc5m0XDuUYDS3EH1XpWxuXdrnvrCNRBHuqqZLJ0/2LwDv3u0R+PqEBFy8+4JXoWU2nM1uf+aGc5S59BQNKDrmoEaWA6gcdLXsa951qmUAnP5jX1MBLIYQJOP5idm0OlX9nPGa1CzKb9cXWjmLAAAgAElEQVRLFsJKUjCsl3c26WDnCywF6z3jIKhG76lH4eIkretqe943jaiw7SCP9ePsHll2AF6WNFq2fwBcGLN5AryurgFpeUX0ANrebTBhjlxIsNE62uEjyKpAhj8xXJj0BvYonT7dbwDsSenXJwC8dNvvHMA60hBOLT5DI+edoN5T7A2o2PwtSjGAv++YTa99WIkefvRxuv/+B+gPT79Mb/+7DtWOLrJJuR983YweLf8U1YmdbdsnhXPj6CLLABg+wmJIemo9L3wUZYc6WvMiOAmkXnGyCmSKkvMPzmoa7eBSUwbfe/GeMWcrB1BIu1BBI340pFrM9UKdDKlZTsqVawNhIREictT3nWlUa+NV+Uq/xcwEewBDCs4LS3IA7ezodCGQiSs4euo4Czoilt5L0rJpS/IY2h7vG2BGyMuznbW5L5X26OE38C0tKqI7Bw54TPr1CQDPLzHfCthsKZS1n73wgJBBaHTRTlM+KmZtOEfZy05R2gxHaZeBF+pjqJ7F6ucfuuRTuSefp/vuu5/+8v5X9P5XP9IzL79L9913H730189tsH33v/WFfXViZ9n2SQFcL34e9W2QZBkIw71FabA3ej8CS4wIGUgDFAJKMBhA6kWGqHuDdR6JLaFZvel12gjBJqDihLEP8+MVS1LwRQWIcRzAhXoaQTqk4SrZvDFLiScHXexb+G09Krobm3l85XbC7zi0eX+P9SECqNzrl7I59oXd7VX1iCCGjxiEO2V95e1yac8Mh/uWPgfbLumXRVuTRhHcuXZ3TaF97RJof0iUZSTmw22i6GqkOkOt0uRkvwHwnaVL6fatWxzA+DLAUhYFy38APHXlb4IxFlx+GJSNKAvXnaXRC05S8lRlaRcAjhy7Vxacr/79WwGs/6oRITo+j15442Nhf4VmA4X9agAMIPcO7mMZAGd2zvAIPMpCK6YKzz2iyb3AFM7AUCYN3zPkwiC+uMdIgmU0DJDWp06kn9rE6RyYIwgRsABVzPMyAEMyVsqONKdCQ5r+f2WJEbK/bUUDg3u77Vak9SOnINYRwHDdQl9hAYxhvAaYob+c9a8njk1sGU8LE8qCkjDA6ilhXY7IYtt6DKedMWm0u3Nv+ilM729/L+KZ+GNN6/rxdq7nh0v79/cbAN8+ccKj8LW8BHz9xi1DQWUE7NxtA/lzB+SsNeS5CteepVHzTlAvJ2pmJvmibNlvjQiwZdbPtaJn0AMPPkRPPv+aw7HPa8UIAP7wu1BFAFdtP5E+qxlF/64dR5CkAeCEpmk2AId905KC/lWDWnzRmJKDutv2h37dnFp/3UzYDq/SnoL/U8/uuFJwDa37ESVLKwS01offK4trjGhO41vEqwIDgnC4Gqyd5Qt2NaAKVswy4SqRIQlW0PAJBoznV6hvy0iErEQFlUJpQruhlB9lnrWzUh9jLt1Vn7Dj6/pnC1CeE5NOMyMHEtJTIrhJdmgPVf1vBKBnRw9Sfb/svrWU3lZjw4f4nBO1dGl6ul8A+M66dR6Hr+UBfOWa/wF4yoqjQjYh5NOduf6MLhBPX3uGhs89QUmSABli2MqttxtS4gDZb1oMFiD7ygcVHI4Fxc2hGhHTqHbMTFkAf1o9nB548GFhefChR+jRx5+kr5sOoNiWQwSwfvzah0LbUGVjefYPT1P3GlHCsdeee4Vefvolev+uqhvHe9SKsQFaK2id1UeYSqUB34j9mCNl10eyCDUDOyJh2auh70nCdgP0gDzaK6goy3x+xX65rgB873iEAFwkbYDPb0ldJGRAUocIKmkUTvOrtBLSAc7+rgUtrtWRpnUeJfQXYmzjA2Z0m8FuBdfQ0sewLLd7fh3xu5EC01MQBvzdvV+t50ul5T2de5kuLR9tG003ZAJ5+EMc6DszZ9Lt8+c5gJnqmZW+HgdaSVoePm2LoIruPWapJt9gqJoz5quXeKUQDs/Y6QDZL4NTBDi+/e8gh2PS+V2xCrp65zwBvC++9ZkA6Bpdp9ITz75Cf3zhDerSZgx1rhRG5R55jL5893/Ut35Pavq/hsJ1qn9U2QbgB2Ds9Wh5QfrtWLENpdTrYQMZA5oRJeIMSxM2aIGCq7qI/sTuExmf1AAY85iQ4NQMvpv7jBfSFbL5W8wJM4jeg2wkldRtbVM1Yz/UzYh6JReMo6R+O1od1JmWVA+jwq+aCABeVL0tTe9QFrwkq3MGIaQke67+DXuRUYFNXPWnmj5xVac4xTMQ9gaAlZ5dCmaj1diCNNzF3kirdPx4n5eA73jQ7YixjZWWTsbw+6UbuiREJfBZZT8k3x4jFggQ7j5sHk1efsTpcyIec8b8k9RrsvM5XilwpduxEx3jOH/bcogARjkJuGZEAf3lb1/SBxWaO0jA/wnqLpz30MOP0SOP/UFYIA3ff//91LrdeGHg7l4ziup9VosgCT/x2B+E+t++/5VwDBIwANyhYqhtkMdg3/yLpvTac2/T80+8Qp++/m9KqGmMVGymKhoq6LRGvRSNr2DFuyY1UwAuVKQM0EhiAEMiuNoAGOKBFfOey5LG2CC9MzpNsGZmxlOIDS2GL1TKOAbYssxH62o6hrVc9G09mvVVQwG6cyu2FMArqJ3/L5hG1ehKLHwnnofBl5VSa+js8DFCzGfEfXYn/KQUyOJ+cGddgLAoUQTrdyNLGNSp/ZBy51ncOdemxk4YQjuj+rntJnU4LMomDZfm5fk0gO8sWWJqukEGWqXS0gA+d9E/AYwPgbwlv1DUgBkChGMGzaScRQcdIAwfXgTOSFY5xysFrnQbISWlUi3Uy1AfP/HsX6hut3l2x5l6+vWPqjgA+ONqHQWg/u2LYPp3nXi7pXHnXOpcqS09/kg5AbKvP/cqVXjvCwcA/+Xpl+0G+dZft6T77weoy9uWvzzzlmGSMYL9uwMKZ+ci6taIJt1tcGWDPFTN8PfFACpn6czqwZgHSRnYQAs1KjsGdeq0Dsm0oOq9hPWYu8UcLxYYWImlXFhFA85QOTNgo1zwrWSuF/O9d5dxVewtnjGXzcDLSjGAx7cfIWQwYscGNu5DRhm8rR9gHyub9YmeclWf8XbZmlifGlkCwsgKpef+vHmOO9bYcFm6iIxLPuwDfKeoiG6fPu0V1TMDsqUBfObCdQcoWUWKNeI+RhRsFQAcP2QOYW5Y3GbeitO2iFVSkOrdbtlvtR1gGYzf+LiaAMePKoWJjs8TpF/Mzf63boIDgL9umiac8/5XTW3nQFIu//RLVKtLHn3+5qfCcSbhtv+utQOAX3nmz3aD/IevfGIDrxjC7b61l5LZoK+3hHSHIB2IlDUqNJ0mdiyb85RKYmwbFs5DW/QX7lW57njKDLGf/81tk2iDL1SVagb9gs6pBOlXzsVmStMoweUIgEWwDTFcxesMwFBJs/2zv25ogy2DLiuzKoZSv/pleZvhO40PFbm+hSqf9ZnccezDcXdBjCQPRoIJc+2ZIY4fR2p+D7V1xB9aRt67p9vSosYWrLQzptCN6TN8Ugq+s22bV+ELCHMA6whyIQalO+uzNpwluCYhRCULU4lwkekzjztErdILXXaekgsSIFwzsoD++MKbAiD/9MYn9MY/q9DTL/7Vth0UXyYZi+eAsQ++wrCgfu0fFemvn9UiqKPhuoQ2v37/a+H8j179O/37zU/pkYceFrYhCWOghgpaCuD3X/5IFsChFUJkgaAEAT37BzXpI+QTlkq52V3G2M2FKqmy5yZmkxiyOaH34ItBVJwz19WgrlR3cvtk2hXRV5BuoWZmcJWWcD8S0hk2DCOonIu+vAffmRWa0eLvw6iowo8CkPMrNKf+9RIM71/0Jz5uMJeMDxl8xEBlDThDZc32s48ccYlkD0aDB33nqt/dPV72weXoRmX0s3ijvZLUiWW+y3GDbL7LezonCb/T9iH5dHmKb0XDujN/vsfiPTNpV660NIDPXvBfFbQY3IVrTlLc4NkUMXQldc8+aDh8AeGE3F+oQY9FNmmVSb+srBk5nQDYP77wOpV/6kUBrn//pgWJg278s3I7eurFv1KduLJIWLWiCgXwwvAKbkxvfvI9/RA+WbhGROMU+vT1f9LzTzxLf3nmZarxz6r01gtvCDAGIP/1xsf0yWsf2Q38df8V5ADgJ8v9iXrV6WZXTw9g1Z4DY6ORrQbaYCE3Fyon4RWn5hKiWiEiEhamdmaDpREAQBub0nIIiRGgelZKOQggF1dvQnuaRdDCqq1p+pfBwpzvomphtKpOZ2FZWC2MpnzZhAYGxXusb6W/AYzXxOBl60ZLwPgNjOh/NYCGOpr95v+fvfeAjls77v/tOMWJ48Rx8ov9S5y45Bc7jp3Y8YsdO7GTOHGKY8dxt1+3X+9FT/3pqVd2imJvYu9FIimRYlOneu+9UqJIUZWSqPfPmf/5grpLLBbAAlgsFsAOz+EBFm2xF3Png5k7dyaeltuTK+hKmTcgLLmeL12KufXregvYz2PAcgAXd5yhJ+eNwfFnMztoUuGRqEBYbRqSALDdS0RCKxVuuM8o6P6tv/x6YBz4wx/4KE3+9i8p6efRiY4Odz9wuaodg7q3AhZYqmVvUipfzBc1osD1jgFEcN0d8/KlqGiM86JsoHz8V1jDADDyQPf99A3q+d7L1Pv9VwPwBYS7vvcypX9/iurvU/vN0doGK1nelli3cwxYPIfql6NvAYtnh6A68b3xtjyeW02jDe52Sb+7b58r4MsAjqH7GQBu3jIW3Tyr8qxkoT65cL1kPQLC00tO2g7hd8rPEK5tN2zVrvfsq2WGlfvin84kefaorMcmUtJPXg1KaJH9xHQCoKMFArPXlbtQ5TVstRRu79zgur9CWZtZCgDjO/ZOSQpEQSOhhgCvWI4BeGyu78YfjVm9wvrFsumFFCp+NYtg8Zv97XYej5ccZcIPrwO4+uX5cQtgyObBzCrXjgu/29vreLpJNdez2OZqF7RfpyEBvqjHK8oCinFaLJGr+eezOumF1O30SsZuennpTpqQe8A2GE8vOUHPp2zVdUerAdXstkcmNRpS7MkPz6S8J41VtUGGqaWPzggEDNkJArPXghWM8WFkbjIGjPKIk0MgGjow5SWxnA6+MkuCMHJEC/CKJQowjOWEfom2/vBZWvVvT0kJNwDf1qcWBKxOuNPV3Oxm2yOS45UufSulHbVefMR2QNHMy06kxxpKsmIhyYj4PW5f7kqtcN248LsrV9L9a9dcY/263gK+duteUGSw3G3r5fXCTmNzeuVRyzMrzkgQBoynFh8jWM1ycJtdhzWsNyZsFrhqx8//+XgiB6WCXgKr9zFrkal5T06jlIdj45ZW/o6Mx2YSlDtczOFcj3a4oTGPWFRT2r6wiI48M1mCsDy/M9aVVY/a/vknUtBV448nBeArXL9jgWZzDb0wKX+/HZ/l05twT+L32QkZzKmOFKpmzh97ThrZzXwMXvkz255SQUPlda6JkH73xAlXwdf1APZbKkrkbk5uMh7hPDH/MMEtjRzOAriPzOmSXMg/mbFaqmj0dMImeil9zEqGdWsGxNF2R09/IjlEqWN+afojM4Lcy2YUm/zY3Cemx2x8WIAnV5H5CtOH5EpIrGNqUeObCbZAQJ59adesLKmSDmoEYzxYyv/81FuqBRfqvvUEJfxkpmoEMjKFJcoyX4nfp7dEpLPafGG9c9T2wQ0trGA7UlGKNlcuUcwB0elyGYrmOgpqKO8h/j6XU//y2phD+N0dO1wHX9cD+O69+76xgCt6B2h+mGpFRuApAKxmcWLbT2a00+Pz19KzSVvotay9qkDG+DJc3YC41nXs2P7q83lBAMYYbs4TxtzNZhRj5uNv05IYjA8jOEztPseKLARPpUFktNqxVrchqQcsakRby8eDRXYsuUUMt3T7f/ycih+fJI2jI8UkSicKC1gsAWEk1FCDpHwbXNZj+bULJXCaBbf8WvJ1zLUufmXZuJs9SpYi2gwwrnxxrq3PRPksK15ABrTQ+sbxB+EKOlcYOwi/29MT02xXYrxXbenqMWDcsJddzeLe8zoumS6coAVjREjLa/mGAyVA/GbOfnolYxc9nbCZHpnTHTF0H5vXSz+btSbsdX7xRrWkzJVBVkpFZddnp8eHMx/TfpmofXVBEEjsBrBos9YpabQV48GvzQkEZQHCcgCv+dZPqezRCRJs4L5PfnReCHwFhDFfF8k0AEO1f7iLcYw4HkvMnUbyDjsCuvCSht8GOAq3PrwH0YIWxmpRRan4Ke1nKdraytIvCTrsaP+TeTX0bqOzEdLvtrbS/Rs3XGn9ut4Cxg22bfduPeDGzYNRSaoBdzQKK8DSDQfgSPcD3AD461n7AhHUGJt+YsE6+vHbYyUNtb7jJ9NaKekRBFkZK1BgRcEpz0FAV6oD48N4qVB+t/IzgqYAXiivtfOQKct+Jb9y0lg1nm1LSunw89MDEEauaCkg61s/pqqfvRp0r3VvJIdEHsuBGm4dAFYmLBkDcb4EYnkRB7mFa2Q98QGA5W2JdsM0Irj3x4Kbgr0LdsABliqAH42MWXB7I7WoHffp9Wscz6mm+w5BWJrvG4Mav2qWrtY211vAa3Zd9aQVXLPhCi2sjax4gpYVLN+OAgvPJvVFxZ38WuaegAsbbmszLuufvt1Gz81rpoyXFgQpf7lijeZ61uNvR3XaEsaxjd4/grQwDQkF5O2EMNzQcoUsnx+MSkiAcP0Pnw+5T8Bs1azlQVasFnQR7Z30yDwpUlo+3ovxX61zMK2o8OVllPrEorDubCWUkzXc+vK2RqYwVJNqfzvD9oAtRJljjN3O54R7x8sYjwmPBaUdyXJmrnAsqxxpAVe53fUAXrt/2HMALu25THNsKqAgh63e+ozy09K4LtzTCK56eHan5KqGpQqLFe5nTD9CMg5YtRgfhmWLf7kFi+Pxj2Pk3/fUko1Bx8nPUa4/MbuF3lg8VmgiYWJ6CADkyjTa6xmYtvRT++cPW7HqEYlrFsJIbwjYKNtpbJw5NMpWBGXBDX3g9XnU8MbikHNxLbjIm6YX6UAU+wp1g6wQPa0N4bFrI/1k1jPJhqc6wXuh/K16n/E7ouGihkWs1u569xJuH14c4n16knhhBISjaQm/u327a93Ocgi7HsBbjlz3FICLOi/bNt4rB6Dd6yIQCxHWcoCK6U7y7wPcjYz5PvxOG72ysFkqMPFWQoO0fGf2clMKNZwSs7If84dhsdoFYsxdtnIfKEkIBWQEwpjGguPElBy4sGteWUAYU0QAkVBkass901KlknNIrI/zMcapdr/1ry+hqrfyKO/FDFr2VJKUu1kOVABWaaGKz7CKlQk05Ocq1+G2Boi1souJ66Y/atyzIH5TNNM/rnknU7Jelz89wxarGC5uVGhSe27xtu1wZhXdb2yyPUL63Q0bXBt0JYcv1l0P4N0nbngCwCiskNnWH2Q1yiHmtvUXUrcFgVdAWCsDF0oZYswZFrby/+czO+iZeStowgPoCvhiOXFJPeU/bV6pCuVq5xLjw4CnUPZWl3Bvm72vtqlpQUoXcIWF1fxWkuTyBFQ7Z2ZLrmoROQtrSQ5howq6L6OB1pX0BL4P19a6X0yjEi8mgKM8wKrgpQzNtoKLWQlZI5/DJf6Ax0LrXvW2G22bSI4DOPXuweg+ERcQyb345dzDkiVsH4Tf7eqi+3fueML69QSAD5295XoAo25v6grj83vdAGNMQxLQlS/HknwYH7tObr5IS8q20pycTkou76Ocpn1U2Ho4yApOfc2e+a9GFVy44yJJaymidMN9h3w/SgyGKsxyaYpKz5w8VbckismLgCC4ocdAHOpyVl53S1oNreo9Qyu3DNL64k7pe+VVmuT3JdazHhsvdgFLWIAUNY61XlLyX8wIHCeON7pEKUit62ZaTM6ibIdofbYjmQoDOFiOj2ZX07s2WMLvtrXR/evXPQNfTwD4RP9tVwO4qW+IACE3QNXMPUwuPCqN9YoxX7FEUJeR68yrPkfI6AXLX0y3ki+np7cGIDxvurNZiARYwi2laUsqhefV4JD86ALJOmydUSRNL0KwDlzKcE2G+x7sh6WL8VgEQAGoRb8MjgzvmJEZgDSqKsHVrLwuXMmBVJRqc2STK6mj/UjgebRsvkwbc1s1XdDy66c9PF6SUFi36U+O1UBWaw9MOcL4rlHoyo/TA7DWPHGAD+2HYCb5fYv1aAFXeV2MN6s9G3Ef4ZZwl+PlSnndeP98Mq86Ile0lGZyYMBT8PUEgC8OjgQUilzBu2G9YfMgLW44bwhYRqDmlWPSVvZT/WZ18IrnklG7MwDgKQurVZVmOGXlxH4EU6XK4KMGG/m22teWBCnP1ilptv22sajeCoLFrPXbASAEcykVNsCQn1AdaPPsxr1SvwGESyYZu0fhnocrGtZvwsP66SmVVaHkkNVb1wOwWnAbIpLlvxnRxKumpRPGyeHGN+odULaZ1c9oa7wIif9Ni0ukaUYYp4dHA/cDK3fVtKWEaWJ4cUKwWPuMZYExfavf7efzrCbr8Cp8PQHga7fcWRNYgm99fMEXxSMq1w4YfiHKbd5Pk5KaJCjEajqSFsiU28fSWuqPDyc//A4po4/tzjEMRa28N7XPsAgxtxT/GCvOnJ4dgC/G3icnN1Pd+ovSs5qVtpKyng+f9Sn/yWmmpm4BpHqg1dqnBWC9udWAMLtug123foTxpRJzuaPfbW6m+y6f6wvQav27PghrdPQ+tcS4bKCw6sSyftMVWlRnfJzUK5at1n3OqTpHuavhbjafFKW88xRNS2uhBVOzDYFFDTZObtMaH0YEb/us4Ny+iJC1e76old+69OWFUrCbPPgN6wsKeqm695z0EgQvRPbzc8I+A7iAF/9kluYYrdwbYAXASHepFQltZHwd+bR13fBqrnneFuIxcS+8y2mwzBiEJfhevKgJNy3ouWm76wGMxurc7Z5kHCiosCiOLN+kpgtUu1Hf3SxeTLSWsMTmL1tFhYpxTyuwceoc5fzh0jeySV4mD1mZnLoXve/Jfm42TV5UG2T9KkEsPk9dUEk5z4aOLSuvv/TRtw0BGOPiWlau1vZlTyVqXhseBuW9qH3GfFq4d8UULffCxP8WazTaHlWUblbX644JI8vVu6dPexq+YJsnALzp0DXDbk8tCNixHfB1IruVliXq5PZ5NeeouPuybe3e3HeFqt7JMaRg1ZRuLLbl/WI8rWXhc4uk4Bm4fJsmuCOqG9O7ps+vMARfAWFYwkbc0UbGxfNeSA8L4OWvZVPq44sC/3ILWrluJrsY5AHBUGPBa/anpowGWPiaxl9IUE/4Tl2DKoQly/f8ec/D1zMA3nvqpm0gsArieBrzxZSqcEFWVtqxq2mnlETCDW5bM0CHW3b5U1Pd9fLwy2k0a1axKfgGQfgF/TFhJC+BS1hAEm5juOHFP+YIa1m549sLCVayuEa45TKLc4ABYgwHMOCMA84LbXUgozIkUYcUcOXhMV+l+9sTFvCpS7GNhEZRBQQgOWmBxuK7FtdfoMp1xoOszEK4dcNF2ppcKQUNeQnClc9Opq7XX6cVL02g5U9NcQWIF07JtARfAWG4rZe9NF/3tyAiWSTpQET0OFjDpbAc25/zXKph+ALOWlOQjLwsITrcC1DhezT3knAid3x6kgTfy5d9YfkKEHsCwIPX7sTMAkaSDYyDxgKITn3nnKrzUpBVs8acXrOg1TteJIfAfEgjitUNx7S8PIG633hD+u987Q1qeGESFf0idhZx0oSUiOBrBsIiSQcALM+SFR7GhYbzPwvLGFa31efNADYHNi+9CCAy+t2WFrrvM/h6xgV9994ordwaWSCQHhS09iHqN8WDSTbMgDuh8TyhcpNWG9i9vWP1YclS0SoSYFUBR+u8kqemSNavALBYtr/2JlU/O9kyMKzeb/ori1UjngVUzS6RKjTl9UTN34EXpcYpudKcYLihEUSFdJLhAVwklSYUcFUuUVkJZQvTnlgk5aFOfXSe5j0YaSsGsH8BvDmzka5cGPSV5espCxg3273H+UjorFXeye1sBro41u4gK8Og3jJIfRn1UiIFI4o11sc0vDgpYP0K+MqXrS9PoNKnnXFLI3hq0mJjEc9mQbx4Umi+aAwTIHkExlgRoSyHKOCZ9UwKIchKG8aFlPN8mvSf9+JSKnw5k0pez6GyN/NDzml+u1gqL4jaueGeOe4L86Bbp6QF/seiov0LIS9ZrHbe68a8Nmrd2E8oS3v7zqjvIOwJFzQAvO2os1WRCjsv+9btDKu+fpPzHgUB6Z6azVJFmHCKNtb7i34xjda89qYugAHjrjfglp5Ixb+Mnls675l3CNOIzILVzPFSylCNqWJ6STpQGQk5pAFYbRjrjxu3zy6RPCPIMoUsV7Bo9Z4/9mMqmChcYafS52u540VmXUk3tfSNe+f6Dnsrz7OwcvWWngHwsQvO5YQu7x3wRElBs1bvgtrzVNodvSArAdhwy7a156RgLCPWjp4Sjva+qmcnh4Wv3BrueO0Nqnluki44LN1zBBHPZgCMY+fMKKCCp9SrPY0l6RiPjJZbxFhPfnS+ZQD3LEDpxHHFDxADsJjzq9dmyBwmP4/Xx9vQy22xtnydVFBEqUuOX7ztKyvYMwAeuu5MSsrq9QM0p9pfWa6cDLJSdhitzwjGQp5cPeUa631wL8sBa3R99atvEiKn7bp/WKZmQRrJ8ZhbrDVXGFOFlOAVn61ESksW86Qi6ktUn8uLrFeQExSwgCscY9IoaIE80Mix3D07hwEse3HxMnRx71tSq2lNyz7NmJSWrYM0fOOebyDsGQAjJWXbdvOpELUAoLYd040W1flrulFC4wVHg6zU2lVtW/uaY1JiC7sgZfd1Sp+aYgm+ckgD4AjiiuTeEt9KcxS+AtwYa9YqI6mVpAOBVVZc0HXTuDqQ18Fpx/1vzmyiVT2nNeEr9EjP3mG6N+qP8WDPABh+9I0Ho5cRC2X1vFbTV88FPTdMuUAhzNM58NMAACAASURBVLFcbspeSTWvGCs+EAnErJzb8MJbEQMYMMb4cNOL1saH015dYmvEs4Cr1nJiYiPNyuqgJcs30NKaHZS34gAlzSyggl9OD3mJSPzZTCm7VeLD84IsYnNTlYqofEIBVU9YJhVaQLEFpysb2QEOvkbkbm94xFC5y6g+Onjmpi+sYE8B+ODZW4YfkNEHKY7Lab/km6CrlOYLVBdh/mbRLtFcdq7cKwXRrJ6eIbkT4WK0Aku7z8Ec3zWvjc37lVu0RtZ73lQP2mp/7Q1T05ayXohexLMWgFE4Q/m8a9aepwXzywlBYPJ2Ln9xHlVPKqTKiYWU/osl0pzfzKeTJKBqWcGALWoIy/8RvJX5WPCYM1J9cp7nyKHmiReD5ErqqelTHe9VymLw50EavH7X8xD2FID7h6KTkANBV7Mqz3oewAiyKumJfZBVcEfRHjZo6RugvqV1QWN4iICVK/pYrFc9qz/1SAvEO2bNoqvLl9OGydrBW22YthTGLQ3YTZsf3YhnNQg3bLwUAmA8S1RUejupkWCR43kgAhnRx70LyqQ5wZiSFC41JaogKa1lMXasVgMYdX63JAYHZpkFCurz4uVuLF90nADNQ+PBcDmv7jqpKnNGdAimpiJHhF6Usdv3eQrA8PvbPQ6M0oKYE6vnznX7vtlV5yh79SVyIpOVkY5h5piuxp1BAIZiL9KYCuMUjNtesRZ8NVhUJCWPv1tbSwcXL9Z1Ya/UGB+Gu/ed2SWOj/tOSVmhqwgru8/Q/PweSl9STd0Limj9gkIpEGrpg6AsWMFali+2pz6+MMhVLeALV7bWc0WwVcvkFAminTOzqXdunhQ3YLQcYfnzswPXbpqQGDHQzb4A8PHaLz1rK9aZcjlr6ZTD570dFe0pAONtZrONlZEw7pvs8TSTSxrcGWSl1WGU29WsYFg/Wko52tvLnrYWfAXr9/9ragr6H6mupr7p0zVB3Pl6aFrLOTPyHYcvrOGshj26AJY/t1Vrz1LzvMIHz2gqJf98hpT1Sg/ASY/MVwVwusUCDIiCDgc4OYAhN9Uvz+d5wzG2kLek1dCatoOGZU0ud2rrUlT0Te+6oj0HYDvnA+d1eHfc1wtBVmodRm1bd8P2IGUK12G0Qat1fQRMabmYxfZ1EyfSseTkwP/O2bPpUl5eEHxhBe+ZNy/stXDNDqS1fG4SLZm4NCbwzajdaVohLm87TElTM6UArVXTl1HdFP1EG1oAznkiePxX67kot1e8MDtIZtRgrAQwrgH3OU9d0rZM1drRrm0bCtupbd1507KmpjPk21Cu1u2uZq378xyAr96wZz4w5vvO9ui4b1qUygXKhdrJdUQ/9qXXBinUWARkmQm+Or10aQC4AO3madPoSGIincvMpJNpabrjwALk8mXLnDmUmV9G05Ojk2pSbcwX29Krt1tWiE2bB6i27RBtKFhN6xeVUdUkbQinP7kkxALGtCUlWI1+RjrKcGBQA7C4/oqJSbQ5oTTsNcJ9B+8PD3OknkUO+GjqlHNXRjwJYc8BGG8SyAsaycNEhaNFdd4b951fe56WuyCTVSRtr3Vud/22IGWopzyFErV7CStUDsVw64eWLKHtM2eaOkftmqunTqWSwkJavnw5FS9fTklZlTQ5sT7q1nBq5daI+pH8WSJ5QvuiKs1xYERApz6+KAjCyC8dyTNEgJUeAMPJEKxh5LrmiOvwENVrZ819KD1auYFaN6kH98nlJ9J1MMGLAVmeBPC+0zcjUhw5HiyykNHaT019scvfHGkHCXc+cr72ZTQEFGo45RmJ4tY6d5XF4Cs1qBrdtmbSJCrLz5fgCwCL/4KiElqwtIreSogOiFMqtkTUh9SeZ9v6C1STukoXwimPjQdjIauW1rMwuh1zh7UAYFSGkF2re3au5nW0rs/btcG9KXsFtXcctV3G1ORObDt09pbnrGBPAnhg2Pp0JLievTTlaAkyWa0fT0guhM2PS8wLFkoNY3xGlbAdx9mR+coodMVxXRMmUGV2dgC6Ar7yZW5hKc1Oq7HVGkaijWjJDyLx08sOUeHsRlUQwxIGhBf/dCahwEOkzw6uaEBY6U7unZdP2Gfm+kh5KeSPl9pw1WsbTCuUUkk6UFtcKcOt24boxm1vpan0JICtuqGhHBbXeyPVJIKs8jsuE2oSKwXNt5+3DNKmnBZJCcIqMaM8Iz226UV7Ml8JuIZbIkNWTVqaLnzlIF6WV0bTU+psATHm9UZThuo2XqF51ecoKXM7lUyvDAExsmVlPDHf9ueLfNF1ry2Sckcvf9qadY1pT3qA4X0aYE6pIlQ5c8LdrCe7O4/f8JQV7FkA7z1l3g3tlajntJUXqX6zf93Neh0IwRpQck4CuPiX0whTgsJB0879TYsWGYavALEd48OYy6vX/nbtE8lt5padomWJ3VQ+eXkQiPOfnmc7gCN9CRPnY74xg1YDtCrTmDYUdRjK4WyXbIW7Dgr3aEUdu227ZwF86ao5NzTeyudUuTvwCglBiruN50MNJ4he3b++aI2jAK59XjtzlZ3QFddaOWeOafgKCGOZX1RC85ZWW7KGi1c5Ny4nT+86t/QkZST3UvnkEil7Vt4vInc/C2DavcTLHwM4PIBRr3dV7xlHXujM6DLkinAbaLXux7MAHh0dNRUN7fZCC0tb+gnVmMwIml+PRb3gipecs5BWvWot85UAqpnlqunTqaS4OCIACxhn5ZfSjBTj05amp7cSks84KTfKfgcQz59WoVlz2G6YWr0eMm8xhNUhjBfk1V0nHJUjszI7MOwNK9izAMYbBaLejDyYsp7Lrk01KWWyipMgKyPPShyTu6DMERel1cxXZqArju2YPJlKCwpsga+AMJYZeeU0LTn8+HA0g6/Ec1Mum6QSn+Oepxllp+jFhStp6oJKSpyQ6moQIyPbuvkFDOIHbmck0nA6slkpT0Y/eyU5h6cBfO3WvbAAxpzfhbXjCsAteZ3jMshqq/GAsoqO45TzXPQjoZtfCp/5SgA0kmXnW29RRU6O7fAVIC4qXk4JmRU0SWf+cCwADIVZs2GA5lSP9cHJBYdowpLGgPscdYcXTs2inGetJ+WwauUaPQ8pLAFjrX/kxfartbwltVqayxuNDFZGYWr1OMyW0XL9umW7pwGMRlx/QL9GcP4a96WbTFlx0RPlAq0Kvl3nLUttiqoVXPzLqdRpseygWRibiXgWULWyxPjwggz18eFYARjyUNKN6X/nCPPZkQBEmZlr4pJ6mjc9l1CG0SgY3XIcpsytmrZUKhbRlxBZBSe3gByZ6aSo5g0Xwxo5dvV3u6+z+fB1BvC90fuk/Af17XoDOXlpRFNAGjYPEixNt1i9mJpR1Bn9rDB2C3K0rofpMCgA//bSNkoq2xzyHEvaj1PK64lRU8i1JjNfmYWuOL4hISFqlq8WpKVpS4q0lrEEMGRoWWs/Va4dkMahFxT0hkBYQHn6/ApKmJgeUoPYLcANdx+lz86U6ltHWk7RcRgnVxICq9rbj1qoz2vcuxUtfaJ2XaQutos10biO5y3gkbvaJQqzV7nH+uUgq+AOitqz09JaAkp4UlITKevRLixcS5MX1VDuM9ol68IpQ739q199M+pTj1bMm+c4fAWUi4uXU0oO0lqOjQ+jvcs7T4W86Kgprmhs69p9lTYcHPNY4VkjKExAV20JqxjVoZa+ErvqWHryE25fwxuLPeGa3ryskVAQpdXD1q6WvG4/5u55wZ4HMN5K1OYE128adEWxhUUNF6hy3UDMlJ6WYMZ6e1XP2SDlC0tYDuDadRcC++fMsL86UrnFsoPCqjWybJsxw7aIZwFVK8ui4hJKyKyiiQn1hBedgpZDMZFHVDK7NTJKHTvHcrlXdJ2W7kcNvspt0+eV0+JJGZT9vLMJWsJBNtx+FH1w3JJVmaurvAeUBVxbvs5X1q66Tht0dXYsXwBYLRgro/ViTF3PCDoZy2Tl7LQPdSEMtj7dcEzd+osBwL6zbDXVb+gPgkLN2vOB/VDGqa8l2OqKXvFSdDNfdUyZQqUPCixYgWY0zskrHJ8/vLRmR1B7R1smVm0fojt3RyV34JVrd6nlQUDesrpdQc9ZCV61z4igRuBW5gvOTVULB1q9/W1T01wBYaSJRHGE1Z3HfeNiNiK3+0/fdK0b2hcAhhWMAXfxMJB0Y3Zl7MZ+k5svUO3G+MjfLNrcynJeXjfNze0KgS+uJQc0lPCUhdW2uaKjHXzVOWECVYTJ8RwNwBq9phgfTizdFOgzVp6fmXNQQEU+hibqejf3XSG8gKmB1si2t+eW06IpmZTx8kIq/KV7k3t0zMiMCYQ3ZzZRb9VGydJFwRMzz8wvx7bJXv7kMuiGdd8A+OLQeGaspS2xsX5RLrCkhzNZ2dFxGzddDlHK78xebouSrXveXNlBI+5mcQxyPFdnZMRs3NcohIuLiyk1p5xatjghr4N0/VZokvytR8demvNWHAh51kbgqzxm8qJaacw4+Y0k101rQulDpRs4Gp8xbQipIbuadhIS2tjRF/1wjRP9t4NeAN0AX9yDbwA8OnqfEOQRK+s3vaWfGja5z9Xr1c6DjE1KBYvPSyYujdgVHc3gq/qkJNfDVw7p4yfP0K4TN6KqqPs0poPcvXefuvdeJbWXLbVnb3Yb5hjPmlUsjR0jkKvgqbdVZafkmRmEqUR1ry2k5reSqOaVBarH6bmZw+1DZLTtwE2ulIqXwK28pu2AL4Oo7NJfPXuHGcBiOhKoH403kNOXR6SpDk5OO1pYd56QeN4uQeHrjL/EIGBIqXQRGZvxknUFWf7MlKhFPq+YP99T8AWId+zYIfVFJLBft/+qFKCFADk75fDyVe2ECIjfwPjw1NSVIc9a+ewj/TxpcR29M7uE5k/LkbJwLX15IXXMD06igXm8dhcCAXyRUQv/rVNSaeOi5aZhDMsWlcLWlq2l7oYd1NF+hIFrIrEP5PnKNW05jAaPjFzTNxYwfixqQS6uc2bsF4UdUF3J6dy6dipGt19La5rKtPmVlG+x3NyKF6OT93mVSyKe5dat0fWenh7avHkzVVZWEsaHZ6TWU0LJRkIgXKQysunQeDKEjo4OWrlyJfX29tKNG+PTQ85fGQmakhYpaM2cj7nRxc37qLyqj2qKeyhnfokU8LfsxfmWZUxuDSOL1uYlJdQ9O5eKH1jgKJWoag2nVNHmrGZCrmVYtXAjozqY5Ep2OId3pM/djefD02MEik4e4ysAHzhziwq7op/3Obn5ItVu5OjmaHcyTE3SUqZwLZoNupGCr6JQdrB96lQqcVnEs1H4qh0nyh5OSWqQQBxJ/WCRDvD06dNB3oGurq6AMrx06RIlZKln79J6/k5tx7gyEoPAcp49s1DK1oUIbAyFJE1IoaQ3x/5TXk+SwI1offFfPq+Y1i3votbcVZQ8IVU6NuGtdEqYlkWdK/bQmraD1L7mmFTKT5qDy5CN+IVPTye1bhsMROI7CVm97/INgDHFAdFuKGC/oPZ8VKYgcbnAcfewnqDbtQ9R0nqKdtHkZabG6qIRfLXmrbeoPC8vCC5qUPPitoKiElqYUUUTExtocfF6MuuaRtINoXxaWlqC2qikpISGhobo9u3bVF9fT0gaMjPNeGUnPblwwz4kkRH9oLD1cJAcT05uDuwTx/DSGd2CYUohk25Y+gbAJ/rHU1Lmr7HfCk5b2U/1XC7QUcWxqGhdkOJSU6xpJuYHt79mb+arrjffpKrMzCCweBG04e45Kx9u6bFsWmZA3D80Pua2adOmQDvV1NTQuXPnJEUI97f4/sLiEkNVndTkwG3b5POslQDGvaZXbw/qS02bBwjJZ8rWnCQnazbHG/g3HBh/KWQA379vy9sIagMjAloIE6zghTZZwbhOGQdZBdpWtLETS4xDhlOsiHTNej58Av+KZybbHnxVl5ISgIeAiF+XY9OWKmhK0jiI9caIUSRFruCuX79OJ06ckP5v3hybE3zo0KGQ9ssuKJMydoV77m7fL4eoGoBx/3NyOqU50GoBaJXd7it070Sfd+I7bo6ETomTy6qT676wgPGmrXxwyx9UX7EaEY0gq9zVCLJyxjWivH/+PEQpFVvCAhiKDGkKwwVlrXzZ3sxXzR6MeLbj5UBe9hBR6qhsJE8hioxmsO6a27ro8uXLQRBWKraqqqoQAOMekb/a7YANd39IJCP6sBaA9a4BF3ZO077Av1n3v/huXobq72MX3TMn2BcA3nJkPAuWEDhEJ6PYvRUAJzUhkxUHWYm2jNXSKIChyGbMKdWc51n8yymEBBkiWUaky9ZZs2h5cbEqPOyAnBeugbKH85aOBU5NSVkhVbWakbGKJiY20py06kDbdHd309WrV1VBXFFREThO+ZsXZNR4FsKwaOV9Rpn3XA+8WvvwsgMgy6/L66FwNdIma/e5Z06w5wGMqUdajY75uWYAzEFW1gRaq/0j2Q4XHFx0WgpJbTuiVNUio+ufn2gbfFf7LOJZCT6zn+EynpEyHjw1MaGBcgtLg8C6bds2VQBj2pPW96GAxHRFOUW1Z+62bZBZNfexXvlFM78BcRFyj0MkfSyez1XLzKb00Djx2fMAPnL+tiaAIWCwZo1AOHXFRarf7B4AxWvngLsuktzAmCIin4eJdbuCr9ZMnEhlPo141gKhke2IYE7OHit7uCBj3PoV527YsEEVwJiaVF5erglhFI8QpRTNQCoWx8LqzW3er6mLUNvarvtC/vR41Q92/W63uKE9D2B58JXaw6ndMEizq7STcyDIqrSHM1mptV0sthmJfA6nyBInpAYgXPmsPcFXUsTzsmWasBCwieclopgxdUnZBvI5v0qrAtHQpaXBFrP8fCQGeSuh3jZ4hZMdK/uTy/vCWqV2uKHFvc3MbGcAm8yCpdRlG2VT5JQy6eRnTwN48PpdQ4KYvbo/xAqeU3VeCrJq5snvhtpQKcDR+mwHgKGokCAB1m/Ly/ZkvqpNSwsBixwUvL5cs31WrVqlagELRacWDS1vzyWZ7g3KQhBauL6AaPFpaS22vERgLFgeYR3uu3m/ulcT5TBHHpTHFHIYi6WnAbzn5M2wwg8BBGSRs1m4ohMaz1PNhvgszeX2DlnUdsQWRYWc0UvfTKAuGzJfNS1apAkXOSh4XR3CTU1NugCG4mtvb9dsY0yBmp3mzqAsRCvrRSgjGlorpaqwaI0uGb7qMLWq085diX1SDs8CGNWPVu8w/kDgZuYgK+PtZVWo7TgvrWqbLRBesqySWmbNiigAq2XOHE0wuAW4iCbWC2hyy33iPsrKylRhPDAwQMiOpXWvcG1PfTAH2Siw7DgO463L6nZJVidczVrXhIWrlhe+tONE2JgGnIvYB4wTA7LiO95e2kYZtTsJGeEwxrx89TFDBocdfTAerrHzeOxzQ3sWwP1D45mvjAoLlwv0BoChyMKloRRKSntZTwjiKSkqorYZMyxB2AsRzwhiQjpHJKPRm9ajBbZYbJcXYpC7/WAp691PTkEpTUpsCABK+9lHfgyGQpSWbXnnKc3v1huXhTxjCpHa/c7OXkPyOcNIU4njAGLl9xvVc3ycMT3XsVN9epxcJqO97lkA745yDVMWYmNCHK12glLC/FI1pWVkG1yWQpmXFBebtoQ7Jk2isvz8wDXEtdy2XLNmTcCixFir2+5P7X7UEnTcuXNHNxhLXCctp8KyTBiRGxwDq1NNrgFSTDPCyyFcz8jUhrnqSDuJoRO1c8Q2yLPy+1GJCSkoxTFYCnc1LGL5dl6Pjj4avnk30H+iDVu163sSwHA/t++MzgNhQXdPu+avPBiitJRKTOtzRp5iektxMa2cM8eQJdw1YQJVZmd7AmbCAkbn3rp1qyfueePGjTQyEjz+dv78ecP3vjAjepWTAFc1V3KkegHXlFu3Wkk1MMeX4eucDjp5KVgO1SAZzW2eBDAKfEfaIfh854Q8kra2EhWNsUIE7girKbAEhOfN04UwMmbVeCzied++fdJb/IULF0J/83L1wKhAm8Rof3V1NR07dixgfSBZh9F7QrnEd1LHk39ovYSZ3Y5xVrk7GC5neTpIjNGGk2UUVMA5apHKOB/Wsvw7wl2P90dXT20/FttxYE8CeP9pY9HPLLzRFV4n2hcWgdkpHAmZ6jmGJQVfXEwr5s/XhHDT4sWGQWAUGNE+rqGhIQCyzZs3e+b+e3t7A/eN32CmnfKLSmlKkr3zg+WWJ9blAVGAOdJsAsp6cp9Utlny2uDcxk2XdY/Vuw7vc0Z3tcd4HNiTAO7eM175iAXVGUGNZTtnN+417IpGKkTkKQ6nzOsTE0PyQ8NFHe48t+4/e/asBDOMpaK+rlvvU35fIkPWmTNnLN1vRi6SdEQecIVrJJZuCsAyq2GP5nXhkdHrC4hcFvcUDtZ61+F9zum1a7diNw7sOQDr5X5moXVOaJ1sa60IUqHo5Ms56ePBV3Jlr7Zek55OGO9FcYZVM2YQgrXUjvPSth07dtDFixd1p/S45fcAwHfv3qVw0c9695uQGXlQFjwssFYxTovEGnJ5Uq7DstXLxQwXM87B1CUn+wh/l3Xdd3YgduPAngPwqUvmpx+xcFoXzli3HVyBSiWo93mZMvgqzBhnZWYmrZo+nUoLCjwPX4AKU5FgBW/fvt31vwflCOvq6iK+T1Rf0pOJcPsQbY9o5MXF6w1dZ35+j2agFiCuVyc51v2Jvz9UF+47NVafOprBVlrX9hyAt6qUHmShChUqv7SJchxOT5lOT7aozH1g+cqtRBS+91JAlvzerawXFi2nt1PqDMFTS37MFgDBWK/oYyjCkFm/W4perug6rWshi3N46R6dtf5A7MoTegrASDZgJvsVC7l7hNzKs4CrT01hIlpVDcwJWdrl7awodq+es3PnzrgCMJ5TTkEJTUq0NyhLTfbk29Krt0tzgeXbxDqmHCE5h5672kqf4HPs12mt24YIU1u1rNRobvcUgK/eMFZ8gYXUfiGNRZuirqpQaGKJSFSk9wOExTYsJybUq1bi8SpEI7lvzLM9fvx4xK7dSO4hFuemZpcHyYRcPmK1zmPB3tBFwzfvMYDDvWmc6Ofx31iAMFbfibmURhXn3PTQOrSxgAB/Z2znHS/KqDIsM0ZlK5Lj4KlRmxMcqz7F36v+QhCrwgyesoAxaZoFSF2A/NguZqYfoW4swy+28HND+xcXL6eZafYn6YgEwjgXXhs/9lG//KZD526xBRzOAl6zi+f/+kXgjfwOo1WRLAdfhYmQdgNQ+B7Mv1QUFJXSVJuTdEQKYLaC3W04bDt6nQGsB2Ce/+tuATYCVLPHGJ0WkpTNwVcM6mBQZ+WXEZKyRApOO86fldXBWbG2ult/9eyNTSS0Z1zQ5wZ4/NcswLx8PBIjKAOt1JQhB18Fg4dBPN4eiVmVMQcwMmNx7md3wxd6MlaR0J4B8MEznP/Zy0A1e+8oCacGXOW2eUs5+CoW0N2/fz81Nja6ftx9/tLIknQo5U3+GZYtXMsoUSjfLtaRYYuTcrgfvkI3wcuq54WNxj7PALjv8HUOYnC5G0cIcqRLZCUyYv1C0cHVGAsAxfN3trW1SYoKaSS3bNni6rSXRcVI0mF/UBbiE5r7rtDy1cdU4YvoZyTliLQv8PnOAXxg+A4DWOstgwOwnBPEWHd6vWT4wrrAcnpKLcPX4UAyVC26cSO4hBtyT5utZuTkC0xuYSlNtjFJR0rFlgBYtaxfDrrynr46O8AAVn0DuX1nNCDwsYYDf390OxasX6PlB5OyKhjADgK4u7ubbt++rdpHYQ0jA9eqVauopsZ4QQynQJyRZ1+SDpFcQ8v6xfQ51hPR1RPRaN/DMZiK5AkX9OWrd1ig48T9bLTy0aTEBiosDl920CkF7+fvAVCRX1rLO6W2/d69e3Tt2jUJym5pmyWZ9iTpEABGaUK5RwbrCSUbWVd5VFftOel8UQZPAJgrIHnvbdLKGyrG1Kant4YoNaWSw2cE17hFsfv1PkpKSghpLbWsXjXwKrehMlN1tTuelR1JOjC2K5JqLCxcGySrMzJWSVWVrMg+nxN7HbfliPNzgT0B4ANnbvFbpUffKs0olrwVB4IUmhp4xbas/FIGcBTdzytWrKBLly6FWL1wNff399PBgwdV9ysBjM+7d+92zbOC12RasrXKScq0knIAo6RhVc9Z1lMe1lPrD1wLkXc1ebZzmycAvPUoR0CbAZkXj0UdVVgQArB6S0S1+tXqdMPvguUL0CoVTV9fH5WVBUedd3Z20pUrV0KOlZ8LC7qy0j3JUnIKSglDGHoyptynhC/6WHnnKamG8OzsNYTCIV7sd3zP45Z31+6runIsl2m71j0BYGQpYUEZFxQ/tkVh62HDCjElxz3K3A3AjMY9DAwMBCkjfAaY1b4L2zs6Oqinp0f1//Dhw3T69Gnq7e0NuKNhYe/bt4+uX79Ow8PDUvnEY8eOSceofYfd21KyKwzLG6xb4Xb2Y9/j3zSmW1Hq1i6wGr2OJwDctt3f8OEOMERIaqC0OtQ+o+YrB1+NZ3uyG0ziepjru379etq6dasESnwW+8wuDxw4EKTYbt7UD3bB8aWl0R9iWJARPkkHvDJs3caP/nW6LrDrATxyl6cg+R3QmDOpBlu1bQuWVlkGgVlw8PHWQQ+reOXKlVKiDli5Ri0CcRzmFldVRfdZI0nH9GT1JB2YCodoZ0yL83v/4983/oIB3ggZdGLpegAP37jLHcDDgQ1GOjfG0NRgq7YN43cMRutgjGbbAZjbtm2T3M0jIyMRKbJdu3Y58pzzCktocmJoUFZu837WOz7XO2q6yel0lK4HcP8QF2FQExS/bCtpP24YvjM4+MoRKFmFNPJDy62GW7duUXNzc+Ceu7q6aHRU38LA/GG4vq3eg5XzUEv6rYT6gBzC+mXLd9wq9IuuMfI7rt1yNh+06wF85jID2IjgePWYeXndAcWnZvHKt6VklzuqmK0o83g9p66uLihyGpHPjjTbhwAAIABJREFUCLRStgdyR8shLV/HOe3t7SHnKK+h/IxEIZFGWS/JHKuc9MzUHJqbtZqt3zi0fqFDr94Ijf6Xy6jd664H8NELt7kz+LQzlK05aRi+yOWLMTul8uXP7mgTRDoL5YTkG62trZrPShmUJc5bu3at5jnK54wgLaTGRHQ1rGpcU3mMmc8pKan0J5/4Ar3nPR+Q/r/01f+iyq6TrHt8qnu0DJbBawzgQEdGx9x/mssQagmL17fLExnILV219YUZ7simZEapx8uxKMQgdy1v2rRJF4YI0AI4BXjF0kgO6fr6eikqWx5JfeHCBaqoiCwv+Gc/+zcB+AoI/9N/PqYJ4Oqe0/TfP3ue/vCjf0If/N0P0//7iy/Qj598g+rXX9A8x6n+WtZ+hP79fx6nP/jDP6Lf/b3fp09/7kv0+ItvU9OmSxHd2z/86//Q1/75OxFdw6k2sPo9SHss5NGJpest4N0nGcBWhcnN5yFrkBpotbZx8JU7LF21l4rjx48HKS2MBasdJ98GYMoTeJw/fz7sOTgfBR8wb/jkyZPSOuYel5dHNjSRm5tL733vb4cA+Dc/8BHVseDatefoU5/5K3rPe95Dn//S39P3H32JPvuFv5M+//XffoNW9F2JGaQq1hyjj37sE9K9fOlr/yrd25995q+lz1//1vcjui/8xk9/7qGIruFmnYR7u8QAvh/Umbcfu+HrB+52gYzW/SFpvRZsldvfSeXMV3J4uWkd1qzc+oXVALAaucfa2lqptCHOX716taFzjFzX7DHFxcX0/vd/OATAH/r9T1J69fYQ/fPjJ1+XgPbwM5MD+wDdr3zjP6TtM5IqAtuj1X+0rvut/35UuofnJy0J3AMs37/4qy9L21NLewLbta6htT0eAMwW8P1gAPcd5jSUWh1Ca3v9hotU2XUi6L9u3XnLHU/re9Cxrbq1jJYcBIxTOfgqZnAyAjO5O1i47YwWYGhpaaF169bF/Pf91399PwTA3/ze8ySv/Yt+AND+zod+n37v9/+QmjZfDupTM1OrJch97+cvBLajL85Oq6Epi4ooqahjfPv6CzRlYSFl126hxXmtBGiXtB0M7Bd9rqb3DM3LaBjbv+pQyH5xHJawzH/t13+d/uSTnwk57rV3loaAGeeklfbS1MXFlFS0hpAOVn49fMZ3vzwthbJq+iQr3+8W8MAwu6CDLOANB68FCYVcQHhdfarAL16ZJXU2uMjE/3vf+176vx/7JL2TXGlbe37ui1+Vxr6sPId3lq02ZAFjjmbxcvUUiEbgwMdE33UtdyULAMM17KW2hxX88MNP0Mc/8Zf0Rx//Iv3HT1+X5DO1cmtQf8lr2CH1qS999V+CtqMPNG7sp7zGnVTWflTah3HiP/nEpwN9EH3xG//2A2lfcet+afsf/t8/Dez/9d94P02YkxO4bkpJN/3BR/44sP83f+u3JVhq9beEgtXSsd/89k8D1xDHYmwa91bReVzahxfnf/z3HwaujXv727//FokXdbxc4LPQH+/71V+jD334//jeBc0AVljAvfs4D7ToREaXAsAIEsHbK/6fnbBAChjBG3J2XbBSMXpd5XGRANjo9KOFGdHNhuQlSLj1Xs+dOxf00gwIIyrarferdl9wgSNz1+Ks8fnACBJs3BRs5QKKgNK3vvtICOSU/ePJl2dKx06YnS2B71+/+7D0ObNmMwkAI0gKFnDhij308T/7S3r/b35A8lzB+vzYJ/5cemkuXX1Ysm6/8OV/pN/6wAeldeV34TMsbdzbj554Ley9PfbCdOlYLOEte2lqsvT5fx5+UToX94xrIbAM1352wkLps98t4CvX2AIO6sxciEHdylXrgGKbAPDs9Nqgjjhpfr7UiV6cnBi0XZxndqkEcF/TWjqelUNr23eHvf7i4vWqFvDPX1pMX/jaf9MXv/Y9euSVBMopYOtXDRhu2nb06NGgPgsAX7t2zTKAMa6Mfyd+I74HRSFwz3fujhLyztesPU9Ij6p0yaJ/BCzgr/1riIw39w3Qf/7gSSniWPSlghW7pZdfBED91m//jtT/AFwB4J/84s3AdV6ckiTtX5DVLAEZAPzAB3+XPvrHH5f+4frGNriLxfXlS2EB/8t//Sxkf1XXSfqP7z9Bz09cLO3DeO7v/cFHgn4jXgD++E//TNr/nZ88I32XsObRFvFgAQ8ygIPHgLv3XA0RJrnQ8XoooLUA/MvX5kidCiAW7YaONW1JCf3s6YkEMCOKUuzDEm60FyYlEBTFK9NTg96+lQDeXVJHS596mp768WP08rRUqu4+FXQt+XUxtqYMtvrOI5OColHf+ysfpFdeecMRReyEsvfrdyBtpHA9iyXKGRqdGoQSh0jAgQhnWNOYR7xx48aoP3fcn3w61PGL4XMOiDFgTPFRRjvnNmyX+tdXvvGfktxPnJdHv/prvy5ZrXBZ/8O/fE/aLwcw+qroF+IFGWPDgCxg+/ff/O+AF0t4swqadwXOEediKcaAP/nnnwvZn5C/SroepifhWAxHferTnw867otf+WfpJQH7MeUIw1Zwq4vvwHX9bgEP3+R5wEGdGTUahQDwMhS2am0iAAxAoiPh/8tf/3fCOM7n/uZrgU4F+GIfOjoCNzDGBJcYAjNwXbw14+0bSgTL973vV6U3ZASGYL8cwNKY0Ve/KXXaj3/qL+j9v/lb9OE/+KgUvKF2j0trdoQA+IMfwnjYWCIEsfzIRz4RdUXsVzA69bsQRCXAiyWimlEnONz3IzXl2bNngzJo4Vxkywp3bqT7kbd6cHAw6L6NvuyLKOinXp8bpJsw5IO+hBdWyDz6DOYJi/4iXoDlABawxvE/fOwV6Xz0P7iF3/srvyJBW/SfOUvrpJgLnC+2KZciChouZPk+Md6LYDBsx3xejDnDEsdn9HXMZ0afxuef/nKCdC+wqvEZc4t/4/2/6XsA3xzhVJRBnaKTASx1AHQCo/8CwH/0J5+SOiySBPyfj35M6tAIrKhde1a6FgKyoDB+/vQkqcNjbBid8O/+8dvSfryRQ4mIwC0oHBw/M6VK2i8H8Ftzc6V9UDJQHhmV66XxLLWAEPyOnKZ9QQB+c1FtkPUrAPy+9/0OIUAmUoXL50cvGAsJNMRUJCyNRDXD9asM3kLuaCupKK08W4z3yl8aEHxjtH/J5wFjXPYHj75Mf/sP/ybJP9y4IhkHLEaM6T763FQCGH/lV94nHbMwe2XABY3+hH04BkD8+J99luDKxr1gnBn7/+k/fkRPvPSONL/3d3/vDwL9V+1+xTxgWK+4J9wb5ibjOuiv4tqLclul+0GQ2CPPTZH0BM6ZkVQufTdc5xhvhqWMcWJYy7iG3y1gDEPI5SLa665PxLFmF1vAah1Nb5sAsHIMGC5kdCIx7iTe5LFN/v+RP/p4QBmho37/kZfoE//vc5J1i+MmLyiQ9ssB/F8/firoGuJ6au4w3LtaCcKPfAydPNgC/vSn/5rhuzx68LQCL7VzUC8YbuOOjg7Dz6uxsVE6B+fhH/mk1a4djW1KAO84bi7fgDwT1m9/8EOEPvPdnz4biDKGjC+tWCcB64O/83uEZBjPvbVIAt0bM5cFAPzQ33+LEAn967/+G4T1opV7A32vYUO/BD9AHeAF7BEEptf3sU+eCQv3hnFdBGbhxUF+7qKcFvqrh74uje1iTBjTqOT7U5Z3SdDG2C8sdYxj/8t3fh50jPx4768He0SiDV9c3/UAZgvYuOUrOoAWgDEmCzB+4Sv/JHUi4TIDUDHfT/wjCATXQlAI3ooxFeI7P35aelPWArB4W4e1LK6DJQAu7ku+RLWZqakrg6zgJ95Mpd/+3Y8FIPw7H/pTmj1vsWNKORqKnq/pzpcHOYBRA7Z1m/l+Jpdns+siCAseI7Pn8vHReVartg85av16AsBGx2VYKMeFUgvAb8zKlACMSE20l5icjzdy0X5/9aV/kHLIYnwYOWQRhYk3cewXUxfULGBMcwKcEdAlroW3fri4xGflEnMslYFYr8wtp+89MU36f3VuhVQwnYswuBNiXn65kAP4mIHgK6XsRvqZATyuryJtS7vO79o9zABWmv08D9i8oAoAy8eA//RTfyFZswi0woR8CC1cUnBvIbgKeWMRBQmIArTY/8/f/on0GWNJn/n83wZc0CLAQ+6CRhAHxosQsIXjAXJcC243rQ5S2X0mBMBKIOPzvKVciMHLsHPjvcsBHItAT0RQI1YCmbK0+gdvN6/7Immz9QeuMYCVAF63nxNxmBUqBFKI6GexxPgNksYL+IprAsIIwgI0MU0CVjGsX+yHgkBavb/5u28S5hbOzaiXMvlgOgT2/+ypt+iHj78aUCBwcWNcGYFe+F5MwxDfo7VUuqHVAIxtydmRVbtxIwT4nmJn2SNKG7oGyfe1ZJO3OwvAWLf31iPXGcBKAG/kVJS+VhBzcjoNWcETExooK7+Mx4M9EJDl9hcLBIyJqO1tRznXfKzB55bv33vqJgNYCWAuxuDvt1AzVZGmJddRQZEzGZLcDhG+P+vW84YNGyRFe2tklFpMTO9zCyj4PqKjEw+fu8UAVgLY7PQAFs7oCGe02lU5H1jLBS22z0ytoeJi68qXwcVth4xb0DNHL4TPfBUtuefruk9Pnb48wgBWAnjf6Zu+dsHGe0c0GoglAIzl4mVcoIFfJKy/SKBQBFzQPMXRfRCMpT50uhISWOf6ecCHzt1iAPvYTYaAL6OBWHIIp+eW83gwjwdbkgGkv+wf4uCrWMLOjd+NIQmlARjtz64H8Il+dhO5UVjtvCetykhy4CrXJyXWU05BqSUFzNajdevRi22HvM/y+7569SptOcLBV3b2Ya9fC1Wwog1bteu7HsDnrvCbqteFO9z95604YCgSWgnh6cl1VFgUXzCRg4TXjT3748ePB4pD9PX1ERLur9w6NtUunGzy/vhwU6PsrRogo73N9QC+bCJJOncWb3aWho2XaFJSkyUIc5IOYxCKZ1gj5zQqH6HuL8Z+Ee3KusKbuiJazw0ekWjDVu36rgfw9Vt4W2Vh8XsbWHFDC4s4KbsyyMUYz7Dh367+QoLavydOnKDR0fvEBV5Ynyr16aGzzk9BApBdD+B7o6PsLoqDF5Dq3nOWLOAxCNdTZh4n6WD4qsNX3i4r2tcTCoEoFTB/jm8onxtwfgqSJwCMm+zYGd/CES/KYVpai2UIT0mqo3xO0sGegDCR4bPTaghFQOKlT/HvNMaOa7fusQtazUeObUiSzYJkTJC83E6RABiW8IyUWioOo4Dl1hCvh7cY/dRGeYUl0gsegv683E/43u3VhYiAFqlJtRgUre2ud0Hjh28/Zq5YNguovQLqVHtGCmBAmJN0xBdUzbwgJGRWScF+CPpzSqb5e9yvi1DwJ1qADXddTwCYk3G4X4jtUDTvLFtt2QUtArKwTM3hyklmwBQPxyJ96dSkOkou72P4xkFMiRl9tOek80UYBJg9AeBzV0a408RBp2nuu0JwD87MbI8IxJMSGyingIOy4gGsRn/j0txympjYSHXruf6uGTjFw7FnYxSABQh7AsBXb9xlAMcBgEVnR3rKorYjNDe3yzKIpSQdxVw5ySig/H7crLQaWrJ8A+uRONIjQp+EWyIxi7BInV56AsCYisRlw+LDDa3sLCjWsLBwrSUQI+LV72Dh3xd+zDu3sFSSn6qeswxgBnCQDGBOuNPQlX+fJwCMG+7eMxzUcEpFzZ/9C2hYxPPzeyxBODGLk3TEO6QXL6skJHphHeFfHWH12W4/FpsMWALCngEwR0LHd+dB5OrbS9ssQTgjl8eD4xXCmJY2Name2PqNb/2hBegT/bFJwOE5AB+7yFWRtIQoXrZnNeyxBODJifWUV8iVk+IRwum5FTz2y25nTe9HrBJweA7AKJYcL6Dh36n+tr589TFLAMbUpOnJtVRUHH68MB4h5dffXF1dTWWtu6hx02XWHQzhEBno3B3b8V9A2DMu6Lv3OCd0vIMZU0jk833Nri/IqOagrDjIFIb6v3v27KErw1z1KN51ht7v333iRkwDsDwFYNwsajbqNSjvU7cc/dQuU1NXRgThlGxO0uFXixe/a/v27TQyMjaut+/UTdYXbPlqysD5K7Ed//UcgHef5A7lJ5ha+S1Wo6GFtTyWpIPHg/0I4c7OzoBFc2/0Pq3e4f8XUit9iM+BXAzSyN3RgLwAhrH494wLGo2DjCUsPPGtVNKrt0dkAQPESElYwJWTfOWOLy8vp+vXx6eUnLnMuoJ1pbau3HRoXFZiAV7xnZ4C8K0RjANrNyrv83/bFK86GjGAAeFZabWE/MB+tATj8Tft2rUryILhCmr+1wWR6PuTl2LvfgaEPQVg3HD3nqsM4Th+CYk0EEu4orFEdZx4hJWffnNZWRn19fXR3bt3AwAevnGPdUQc64jwYB4kGHPCCo3l0nMARuWK8A3Mb39+bqMZGas0reBJSU00K6tDc78cwFhHkn4/ASlefktJSQlt2LAhyO0sFOleDr5iHanzArLh4DVXwBfy6jkAn7vC84H9DFcjvy21cqsqYBcU9BIyZiF1ZVLZZtVjlACenFhHKNQeL+Dyw+9cs2YNXb2qPofz7r37tGo7v4Ab6Ufxeszxi7cZwOJt1ezyzl0uzBCvHUf87pL246pwTSzdFPTmrwVqJYQ5SYe3xsIvXbqkqUDPcKBmUB8QfYaX4y9lN13ifvakBYyb3njwGguZjovF750NFu60tJYQCM/OXhMiFyjArgSu2ud5SzlJhxesY0Q7j45qj9+t28+6we/9P5Lft/mwO6KfheHpORc0bvzoBc4LHYkQ+uHcpTU7QsCKgutNmweCIAyXNMaF1aCr3JaczZWT3A7hjo4OTet36DrXDfdD347mb8BUVgE/Nyw9CeDhm9zRoimkXri2VjR0/sqDQQDGbzHqip6Y0EBZ+Vw5yc0Q3r17t6YCRWpBL8gu3+O4O9jJtkBsABK0uAG84h48CWDcPBJpO/nw+Lti02n02l0t0Gph4doQuQCsjVrBnKTD3ePBx44dU1WgiA1p4+CrENnX6z/xtm+XC3I/C/CKpWcBfPAsJ1qPtw6k/L0A6+Tk5iD3MtzQcDsrjzU6Fgy39MxUTtLhViu4oaEhaM6vUGSnLnHmK6XM8+dgo+Hy1TuqL29ChmKx9CyAr95gNzR3sCHKqN0ZBGAANLN+dwiAa9ddIMBZOe6r9XnxMk7S4VYIK7NeQXFyoZZg2LBuCG6PtfvdM/dXDnrPAhg/opurI4WAJt46XnPfFXpn2eogsCJRh1o7JJRsDDpOC75iezon6XDl/GhEQt+4MV5KbpCDr1TlXa0PxOu205fdFXwlIOxpAB8+z9HQ8dqh5L+7vPNUCFgxV1h+DNares6GHCdgq7aclFhPOQVcOcmsJVxaWko1NTXU1NREq1atkv7x2ex19I7fuHFjwJ246wRnx1PKOn8et4Dbd7ov+MoXAOZo6HEhi/cOp7SC1YKx0EbYrgZbrW2cpEM/KAsgPHPmDCE5xvDwcKAWr1Aw8uXt27fp4sWLdPToUdq5cyetW7eO2tvbqaWlhVauXCn9I7ezHnjFPqSiRDYslJRr3cb9IN77v97vP3jmVuBlTS6Pblj3tAWMBlx/YDjE0tF7GLzPf8qqsPWwKlThckbSDvkzr+49ZzgiWkB5Trq91puAiB+Whw4dslW5DQ0NSRazkbbp6ekhVLWRP19e91//juSZtmwdohu379kqo3aC2/MA5rqf8d3hkHhDLSuWgOeionUhyTnyVhxQBbY4R22ZmOWvJB11dXXU3d0tWaCwPuvr66mqqopgWRqBH46Bi1k+FmuXYkKmq/379xu6j+YNZxjAcZwVLxyc3Tj1SN5PPA/gu/dGOfl6HHdAtYxYSoBivrCyoy4uXm8SwvWUmWfMPWoUYE4fJ9y8WPb392taBSMjIxJYT58+TRUVFaoghOsYLmW5MrFzHRAO1z5ImjIvrzvk2SqfNX+O15f0Qbp2a7xMpZ3yade1PA9gNASXH4vXDjZEcClPTV2pC1O18WDMFZ6e3qp7nhLkU5LqKL/IuIUYDiBO7l+9erUlWF6+fJmqq4PzZGPs9t696Lr1jAAY+bvxjEo7TjCE4/glXOsFa/ux8Uh5u4Bp93V8AWDOARu/AEbnq+w+owvhOTmdqgoa0dNm5gZD2c9M82aSDgQ+2a08onm9cAAuKCqhiQn1EoDn5/eoPl8txczb40NfIFdENGXUjmv7AsBoCBRZ5o4VHx1L7TlXdJ2mKSkrNC1aJOxQO08tkYfS8lV+XpjhnSQdGNNta2ujO3fclwUonALDmLSWlyApqyLoWeP5qz1f3hafOqHPZVWPtGTdNwA+f4WjIeNd2cCi1cv5jGhpZRshShrjiErIhvucmqM+NqoFDCe3YypPZ2cnIUI5GkFSWsrE7u0XLlwgrWlJ05Prgp4ZIt7lz7ag5RDNyurQ/M9p2hd0vPxcXvc6tAdp2APWL/qLbwAMl1UXF2iIe6VSvOqoplsZcFazlJBTOtw4shLIkxIbKKfAXUFZvb29dOLECd25uHZDMtrXg+tc+fKSmV8WBF88m7eXtgXJflbDnpBj5M8QwXsMWq+DVv3+d3hg7Ff0G98AGD/o+EXOjMVKZYj0phkhYYdaGwHccgVtZB1WWGGxO4Ky5JmhROf2yxJJO+QQnre0RvVZqRXhkD9r7Ec8AGQAFrJ8H6+rw8xr7dKyddDV836VfdJXAEZJMtR89JrQ8P3a/8z08j4jf7Ram5upmCQAPSctOEJYDgqn1lEhyItjvEplpPcZ1j3acyz4qkEVwHiJUnuuvM3+/uXWNsWMGD05cts+XwEYjXuIyxSyEto6JCXf0HIrY+qSmgLRs5wFcNWWCTFO0rFnzx5PKR0rSvDu3btSMBkSoqg9A2yz4lbGM19Q0Euzs9eoDk+oyQlvcyfQW7cN0s2R6E6PsyK7euf4DsDIDctWsDs7iNOKSytJh5alFG7cUEvxY3tGbuzGg5FYQ6+T+2UfAsrmZLZoAlhtvnc4mZMnZEGMAAdneVd3HDnv3pzPWn3QdwDGD2Ur2LudKJzCNLMfCRrUoAnQql1HC9hq11Bum5xYT3mFsaucNDAw4HsI9w/dkSpaTU5uVn2uSEmq9lwx9guw4r9m7fmgY+QAFs8U2xo3XQ46Tu26vM09eqZ7z1W6NzrquT7gSwCzFeyejhFLJYXoZqFU5cuUii2qyhXHo5aw/Fgz67GsnOTnICxhPWw9el16bloBcwCw2vh+Zv3uwDNFtLQ8WAugXVa3S4qilj/r1MqtqjISS3nm79bWa/1D7qz3K2RXa+lLAOPHHjjDNULjvcNC0cqVqljHmJ9W29Rv6JfmjopjzS5jlaQDReqRw1mro3t9O8b2Vm4dr2ylNlygNbSgtHIRbKf2/JFRDWPCsJQhB2rH8DZtCMaqbbYcue5ZufctgBERjULMsRIK/l53tH1u8/4QCCvnjCqflZiuYha+4viUbOeTdKxYsSKqxRFiDfAj50OnGKZXbyfAFUuAU/kcxWfAVJ73u6jtiOax4hxY0lpAF8fwMvZ9HLWg3V5wQa/v+BbA+NE8Lzj2HcQNSkrNWlKrFSy/V5Q5hKUsoGpmiRzF2fnOBWWhLODNm96afqGnlJT7Rkfv05pdV8NCU/78lOu16y5QSftx6V/NTa08fm5ul/Ts4Z5W7uPP7tErxy5EryKXUg6j8dnXAEbH7dk7zB2IK6WQWs5nRM0CtFoKFYpa6b40CuKpSXXSnNVozwVGHV8vp5s0otQuDDqfZlYeC6CWPU1LZni7c3Bef+AaIQOiERly6zG+BjAanXNEO9ch3K580qq2hVi0yIwkD8pR/gbkik4s3RRynhEQz0ytoeLi5UFZnOwEcm1tLV27ds3TCsiIYkRifeVzifZnkchFK7Ar2t/P19fXW3A9D990f7WjcPLtewCjAfCmxAKtL9Dx0j5JZZtDYIqk/eGCbhAVawS6ymOWZFZGDcD79+/3PXxv3A4OvnJKTuEZgcsagVlOfSd/j3EdhZiAcHDzwv64ADAqY7SwG5YVydYhgkWr5laGsg2nANXc2Ergqn1OzymPCoTjAcCHzt0K+1zCPTfebxxsXmir3n3Dnpzzq/ZCEBcAxg/ff5qnJXmhczlxjxjbxfivHJaYA2zkuzFFRX6ekXUk6ciNQpIOvwMYiRU6dl6VXppQahLzefHcUPcZWasQ2YwhhEVF6whzuxEwhWhoIy9TRp41H+M+cCPL4fVb3ko3qQZesS1uAHz33mjEkZTcId3XIa0+E7gYEekKRQ4lbuY6qCs8MbHRFIjHknTYWznJzwDGnObujbtpfn6Pbo1nrRcgjNvD22HmufKx7u/f5674a6573AAYbxx4eNzJ3N/JnHpGsIStKunlq4+ZBgPK6NkZhOVXAJ8+fZoQYDYrTb3soBZ0ldthLYsUlFjqBds5JXP8Pdb1z87jN3wx7iusXyzjCsD4wZsOcUAWKwHrSkDednCLwh2qVPx6n+1M0uE3AKOk4vr166WXFLjs9drRyr4lyzdIFY8wrUj8Y36w/Jnyuj19w+527N4zTHfv3WcA0/jfe8ZX1df06C5/C3ByHSntuFqSOzuZ3Z3Wiespx5LDgWFiQgNl5dsTlOUnAGM6VWNjY8BDsGSZdtnBcG1sZj9KVhod/zciTyj2gBczjEMjk1ZByyHJCkcyGATxYSocUmFimhOCAeFJMXLdeD6mZesgDV33/pQjNc7pMVKdquNbPQlgNMLZgTss9BwVbosMmAUw4DAlqY7yiyIfD/YLgIeHh6mmZtw9X7x8udRGaCuM0SO4ChYrYCWAhspVABkghjF8M9DVOhZzfmdmttO8vG6CtYzr43sAz/yVByWgarmxy9acDAns0/oe+XZ4UKp6zurKIqZCIaUqYg8AdgAeNa3x4qCXSMYv0D434K9xXzmI4xLAaABRWcUvQsq/Iza2VIMYAAAgAElEQVRWvRUAQwHPTK2NOEmHHwB869YtQjYv+dh4em6FBFSAFaAxIts4DnO8AWw54OxeR+CePJUlICjSVlr9LljhmIs+O3tNCIxxfezXujZeQIy0j1ePwewVObD8th63AGZXdGyA5VVFoHXfVgEMhboksyoIPHIIGVn3A4AR7YxKTvLfO2dpvTTlyEqAHCxUWKxw9cJyzm7cK1mOsJ5h0ZqNXlcDH6xRIQ+wyNWOsbpNWS5Rbc66/Np+BvDmw9cJ6YT9Bl3574lbAKMRLg6xK1ooEl5aeyGJBMBQpLD25PAxs+4HAKMf7t27l3p6eqT/9q61hq1eKzKLoCuRZlIOMqPrmN4kd/uiEpPRc40eJ5/HrDbvHBYxMrNhvNlKG3jhHBTfuDXi7TzPctBqrcc1gNEo+05xgg4vdEi33mOkAJ6EJB0FpZYgvG7duphZB4hYPnz4MO3Zsyfo/8CBA3To0KGgfzPFIpxKmIPxVKNAxHEYG5aDUcgjXMTyUodmrqk8Fu5zjD+La2MpUmLiu8W//AVAfqxf1lfv8HaJQS3Yqm2PewAj2866/VwxyS+d18nfAeUrr5qjVKhGP09PrqPCImtFG86cOeMohG/fvk27du2iqirj7vOuri5D93hv9D5B+TrxDAExI+5oPF+4mfXc4Rh/1hun1ZIDABcWNKKlYZnrfYcTbeKG70DE88CwPyOeGcD31ccTkPCdpyY5o/jc0MntugdEzWopV7Pb56SPRwGbcUMjehhQVOvc0dgmnypk5j7Pnz8f9h6dnp0AVzQybWEJly5SXSLaGZYmoKplacprCxe1HZEipc0Gf6HWtJ9dyFb72Lkrd8LKSTTkOlbXjHsLWDQ8HrxVoeHz4hPeVqwePTAnZVkbD3bSFV1XV2faXY4gq5s3w0ezbjzojSQ5kQw74KUN7m/WGaE64+DZW3EFX7CHASyzirnySminYEWh3SaIWNUDqvl99ZSZX2YacLBEkb5RvExGcymfr2vUAu7r6wt7b8M3UHZQu63dtM/IvGNMTQKo5V4SWNmNmy575nc62eYHzsQffBnAMvgKpbXtqPPFv50UdP4u+5R8JJaQFpynJNVTfpH5oCyAEXNqhRxHY3nixAnTLwelpaV0/fr1sPe1N4bBkBjLRyINJPswMg6L2tFaL1+YywsXtryf4fpG5zPLz4uX9T0nw3tHoiHPbrgmW8AKCN+5O0o9ezkoK146fyS/E/NBtUAayfYZKbWEbFBGLUxxHKbyREupjI6OUkNDg+l7Qm7ncPeESmVOxWAAhgh8QgnDd5atDkncgbFcvFghMEpPNjB+Ky/0gPVw5+hdL1737TrhvwIL4eRdvp8BrAAwGufaLQ7KileFYOZ3I0gnkjmlepBelGE8ylgAGMvjx4+HBZ5cARhdx5Qj+fcYXYfVHO47zlx2rkoZ8jHrtbvYhwhppIA0Iw98rDnv0pYj/k+0EU72GcAqAEajDV67S63buJ4oK5XwSgWRs5OTmw0pdqHgjSxTc8wHZWF6kJl5t+EUBPbD+lWmi7QTwOv2Oxd8ZSRxBtJCMnzDy30kugGlBf2e5cpI32IAawAYjXdhEG/mDOFIOlq8nAuXpJHgHCPgFcdMTKinnALzQVlr1qyxdWoSrGqjwFUeF84CRpUbJ2UEY7xIdiHaGC5njOciaAppHTEVSZ7r2cl7i5fv2nMyvt3OcjAzgHUAjIY6eck591i8dEC//k4odyMWllD+RpbTkuuowELlpLKyMurs7CQA8N69e2HdwJD1wcFB2rlzJw0MDAQdD6ArwWr0czgAIwDHaXlAJDIqEGlVNnL6fuLp+/b5vLiCHK5G1hnAYQCMRnQqPV48dUQ//1ZEwcqnnxgBrd4xs9NqqLi42DIEESGNvNFwJSuVAtzVyMW8YsWKwPURubxx40a6ePEioVRgZWVlYJ9R8Irj9ADsZPCVn+XNK78Nke5K+Yv3zwxgAwDGWMX2Yzw9ySsd3Q33CesK7kxU5BH/mKKiB1q9fQmZ5seDBQTFsrm5mVD4HhWIjhw5Qu3t7VRSEnldYnF9+XLLli107tw5untXO63gyf7bjlu/bpCNeLyH4xedy9bmJagzgA0AGA8U1sOO4zdYYXgkWYIblRxc1CiVZzZtoQBzRq758WA5FLGOIC24p5Xb7f4M0IdThDzdL7qBTqUdJwIFHOCV0UqtGc2+0rptiM5fGQkrC+Fkxa/7GcAGATwGYbaEo9lZ4+XayCVsJYnH5MR6yis0n6TDbrgaud62bdt0le7gNU79Gi15h3zJA83ECxzyXjsZYIbCGleuxVduZ7MvCgxgEwAWEOZsWdF9c4+WYnLbdVEk3mw1penJtVRUbD5JhxFo2nkMxo3h6tZSSLtPsDcpGvKIhCB6HhZEekfje5XX7Nx9la7e0B5+0JKLeNvOADYJYAgIyqZhErlS6Pgzg9msDMAigVvaTGGHhRnVUXchRwrjiooKzfnII3dHCa5Js23Fx2u3GTJ8wcIV1q7eEmk3o9mW0I3IKBhvMLXyexnAFgCMhkZgFtKoRVOQ+draCsdvbYPxOQRrGQVxSnbkQVmRQlbv/EOHDmkq4BP9PLXPTvlFIpgpKSsMwRdgzltxIGp665ANFY2QO9zo1Dkr0HPTOQxgiwAWD5GnKMUPJO1UmlrXwhzVpTU7woIYSTqyLVZO0gOnHfsQXS36h3J56tQpat9+KWoA0GpXP25HpD1cynrWrto+yJfd7QGPxunL2kMOSjmQf0YRkWPHjtGGDRsCGddWrlwpTYGTH+fHdQZwhACGUBw5f8t2gba7g/D1vPWiABDDItabTzw1yVqSDjsgq3eNAwcOqAIYgVlZ+WUSMJB9CvBIqdhCyM+MsUvUyUVBA0TsojJRPJbuK+88RUllmwnpMJFZDW0EYGK7vFIT4gf0ZEMNvGIb8pcb0Qdof6TklH+v2nmIZh++aW68F/PPDx48qDsVDnEEJ0+eVJUlv8CYAWwDgCEMxy5gTiOnrVTroLzNOvzhms5u3CtV7hEKVL6MNEmHHkit7sNUJyTykP/DKsb15qVXG7bYAJhoukudkstw039gySIOANWZ5M9WuY72QKY1vLQo95n5jAjpcL8dU5imp7dK3wP3NqpHYZxZeR6SayAmxggQMScclq7Z+edO1bo28hvsPoYBbBOA8WD6h0YcK6um7Aj82TrkvNJ2CJ6B9aKMcl2yTLtyUl1dnZTpCm6+/v5+KdUk3HtW4RrJeYXFJTQpscE0PGAJerU4AkAGOGJsH1Ytpp8BoAAuxm7VnqcZmFo5FveilYYTLwtpVdtUnxGAjJzn6C9t24cIVayMAAkpTvv6+qQ56FbkZ9euXYa+x8i9uO0YBrCNAMbDHb5xj9bsuhrypugVJc/36X6QwzWIWsTyKUzpOeVBUG1ra5Pcd2rpJyGncAFu3rw56BwrytHMOUlZlaqK3QhEAA03yCai1uEOBkABU2Q3A0jV3LTYBuga+X1OH4OIacBU/o8XvJmZ7br3Cyu8a8dFujmin18cQVSwdltbWyOWMYwNuw2cdt0PA9hmAEvK7fY94iw/7geZGxR6JPcABQ+X5IKCXkoqWU/dazfR9u3b6dKlS4YV1qZNmyJWkEYhjDnMVkED6yuStorkXIxHp1ZulcZkld4H8XvwMgR3uTzRBSAt9vthOSmxnhB9j9ziQ0NDqjKGFzsU9MAxRuUi3HF6QX12gTBW12EARwHAeJgYF+FpSgzhSBS/2XPx0nf3nrHxOKFwYCGvW7fONmWppUwz88aCr6yCCOOjZtvDjuNhFZqp9QwLES5cvBhpwdpqG8TyvJmpNUFZ2ABYRLQj3zf+MU7b29tLKOShJQNWt6MWtZBXvy0ZwFECsBCUYxc5OMsORcjXMPYyc9DCPExAuLu723bFKVe485YaD75SAw1cvU7LgFn4qt2317ch/WlSVgUVxzD7GqCuNZQi9KxXlwzgKAMYgoGi4zwubAwgTitZP32fmYhUpcLCmF0kdX/lsFWuo57xxATzwVdyeBmJ3LXzWTJ862lhRhUhcE75PGPxGa5tpcz64TMD2AEAQ1BujozShoPXHH+Lt1Mp8bXc+RLRum3QchIEuRKLFoSTsq0HXwkII+DJKfnDPGQ/uY9FGxpdYqwe87VjAVqt77xw4QIDmIL/3hP8MfSTHt3lHT+e1lEDlfPguhNkTil4O79n3f5rdOO2fkSqmf6FAgotLS22Kd/i4mKallwXcTCS0eQRkbYtpuGYSetoFGpeOA7PKT03OJpeC4hOb0dEtRk59sqxeowMJWrwFgawRet58Npd6trNU5UiVZbxfv6+Uzfp7j37k94jYQICa5C5CnOGS0qsuyGXRRh8JcCVXN7niAVc0HIo4pcFcc9eWY6N81ZS8XL3Vtny61xgBrBFiEb6hoVo1d0nbzqiVOIdVH77/Sj1dvmqc3VWYRVfvnxZgvKJEycIhRb27NkjARrZrnp6eqijo0Oa89nU1ES1tbWENIKwkuaayHylByykq3TiOVqp06x3327eh3H5BRnVlF9kf+Sy3RYyZCxSnevG8xnAMQKwEIYr1+5S9x62hp1Qrt7/jkE6cOaW4dR/QsZitUSyhqyG3RFblHqZm+x8psgOFQ9jv8hGtnhZFSE4zm5QRut68MIgo1asZDla38sAjjGA8WBhDe87zdawncrUb9fq2j1M/UPOWb12KBxRpARu3UjA5lQAFhJpuNlijfTeUEELtaTzCr0DXjnQm5ub6c4db/WBcP2IAewCAIuHBGuYM2hxgJb85aFl6xBhbm80xnqF3EVjiXrZ8ql3iCy2GtyEyknyNonWOjKKRQo5N54/NQlzeStdM6VIDlWz60ixevPmTd9YwgxgFwFYKMIzAyPUvpNBFC1F65Xrbjp0ja7dMlfmTchQrJcXh+6EQBMFFZApygqkwlUUsuOZwtVt5d7ceg6mE6XmlFPxcm9avFpwRoyBXyokMYBdCGAoz9t3RmmPFKTFJQ7tUK5eukbHzqu2zOuNJYS3Hb0RAmA8A5S0C1d2Tw1oSIwR7WfoFwDPSquRphPFMnuVFjzt3I4IfRRq2L9/vxQgiIpfsZR5K9/NAHYpgMXDvHrjLsESirby4evH3uOAhBqHzsHdbC6fs5AVNy2RC/3clRHadOh6iOzCmjXr7kVN5GjLqJcBjDm8CZkVlO+hwCo7YSyuVVFRIU2dQ35zAWY3u6wZwC4HsFCqV67doY2cSSvqSjjaSl7t+hjnRXTzyF375/QK+YnlEi+RSJO5avv4Sw4gbGbKD8aB1QrCq7Wn1W1eAzCqEyHHdkZeeUxzNQv4uXWJCOotW7YQptPFsh+ofTcD2CMAFg/v/JURDtTaOq7IrSpbd5w3SNuPXScASjxfPy/vjY7SxcERaf57+86rVNh62NSYK0r+RQphnF+86ihhPBp1leVy4AUAY+7u7LQaSsupoCKX5Gl2K3iV94UKTsePH3dVX2MAewzAUNCIMD07wCCWK09vrQ/SjuM3aPhmfIBX7aUCMrxz33FatKyKpifXGwYxCsZjvq7Z5w3gIp3lxMTGoO8CdOfkdNKS5RsimiqlNm5t17bJiXU0L71aGtd1S3EEJdy89BlFR9wynYkB7EEAyxUaLOK1+4ZNKySzCoyPj9zqbtk6KNWIvnbLvtzNclnw2vqVK1cIY3ZQ3rmFpVLZu1mp1YREEXrwmpXVYQjCK7YMStYuKinpXc9t+2DlvpNaSwmZVZSVX0rIp+0lwHnhXru6ulxR4pAB7HEAC6XbPzRCmzlYy5UvIqt3DNGhs7fo1og/x3iFDFpZ9vf3B9JWQnFjvO7AwUOUU1RFSzIrCRG9GOtUQlIPwhhfRtAWXNbK8/DZ6nxktWvZsQ3AnZFSQ0syq2hZXjm7lh3KSY1xYSsya+c5DGCfAFgIBeaN7j8dHPDC1mvk1quVNuzeO0yofuW1JBpClpxaIs90VVWVZOXt2LFDUor79u0LWH2YTpNTMGYhz19aTW+n1BKyOgGw6dXbpbFkjO3iP61qmyZgp6e3EhKCwDJevvoYAeJ2ANTsNaYn10nBUyh0L1m4Ppun6wULWNzjgQMHYgphBrDPACyUJpT+qUsjhHJ1VuDB51iDdtv2Idp14iYhq5l4FrwMP60K7uje3t6AW3B0dFS3LCKgnFtQSmk55ZLlOCetmpB4Qs99PTe3K6gvAMRWE4OEgy5eEADaOek1tHhZJaVml1N2fikVFrm34pCAUjwt4XGJZVIPBrBPASxX+oiyhVWMBA8MVmtgDddu6w9ck1547vh0KpFcnpxaHx4epvJy8/VpUd0HZRCRBQpzYxHolb58NdV1H6buPcNSikwxJQplDsPBNHh/PSG1I2AP9zimAeH6+J703DGLtsAD1YXiCbLhfitk7NKlSzF5YWYAxwGAhcJE5OmFwRFp6otQQOHAwvu1gY283UfO36brHFQVNeWFaSPhFGi4/SiNCIta9AP5cujqMBWXlFNeYanmP6oGcfSxvy336upqwgufXDacWGcAxxGA5QIl5mTuOnGDECTEoDXWBr37hqWAquGbHMksl6doru/duzdiCGOcWesejx49GvH1w70E8H73A7yhoYGcTmfJAI5TAMuVESzjgeE7dPDMTVq7n6c0yV9GMKa75ch1yb2M+rbyduP18GO7drXRhQsX6MSJE4H/Y8eO0aFDhwjBWrt376ZNmzZRR0eHJkiRllDvXuRBXwxL98MyWs+orq6ODh486Ng8YQYwAzhEMaEQBBJ97Dx+gzp3x9e4ceu2ISnlJ3IyDwzfJXgK9BQ373MOwkbaGlCWK+cVK1ZICvXuXf2guKGhIWkKlPxcXo9fEGPYYuPGjVKAVjStYgYwAzgsYGD5AcioztS9F0D2T4Um1KyFhXv4/G26fPUOoYiAEUXPx7i3nW7cuCGN55nJ/YvEDAzc+AVuuGff2NgYlTFiBjAD2DRwAKmh63cJdYsRXY1qTfLi63IXrlvWYdli/Hb7sRt0+NwtKScxLH0GqXtB6tSzQTKQcAqY9zOc6+vrCS93dsolA5gBbJtAYe4xpjyhDB0gBxc24Ayr2YlAL3wHILv16HXad+omHb94m1AYHlHKWlGwdnYmvpY3Yb5q1SoGsEPZp7z+ItPc3Ey3b9+2TWcygBnAtglTOADBcr5x+55kPSN15rmBESm46djF21JkMUryqf0jjeOR87ckoCKzFNzhqKqDZBcAPlzkfqihG679eL/9gD9z5gzDl+FrSgbwwmZXX2QAM4BtEya7hJKvYz9ouE1D2xRekaamJlPK1+sWHN+/Pa50ROTb0acYwAxgWwTJDmHka4RCgtskem3CU4/sgVE8Qh3R9Xb0TQYwA9gWQbJDGPka0YMNt21w2+7cuZMtX3Y9RyQDyNIWab9iADOAIxaiSIWQzw+GA7dHdNsDiTvi0Wrj32yvxY/hi0iDOxnADGAGMMtA3MjA1q1bGb5s+domA0j8EskLMwOYlW9EAhSJ8PG50bX0uH3H2xeWCjIbsRVorxUY7+1ZU1MTUdpKBjADmAHMMuB7Gdi8eTPDly3fqMjArl27LPcfBjArX8vCwxbWuIXFbeHOtoDl29vbGxXFG+/WH//+MW9CSUkJIZuaFR3AAGYAWxIcK8LG57gTUn5+LpivyaBgt3O0ZQBpKq0UbWAAM4AZwCwDvpUBjnhm+EYbvuL68LSYfZllALPyNS00ZoWMj2fLN1YywIFXDGABSCeWZl3RDGAGMAOYZcC3MtDe3s4uaA6+ckwGOjs7TfUlBjArX1MCEytLhr+XrWgrMoCxOScsH/4OtrQhAwjIun79umGdygBmABsWFisKkM9hcMZKBhABXVpaygBmC9hRGThw4IBhncoAZgAbFpZYKVL+Xoa4FRlA8XS2TNkydVoGEHdgVF4ZwAxgw8JiVKj4OAamG2Tg4sWLDGC2fh2XgY6ODsM5ohnADGAGMMuAL2Xg6NGjjitfp60t/j53WviAsJF5wQxgVr6+VL5usMD4HmLnCRgZGSEOwHInnOLlpQF5osNNS2IAM4AZwCwDvpOBTZs2sfXL7ueYy0BZWRmdPXtWs38xgFn5agoHW3Cxs+C47a23/cmTJ2OueOPFyuPfGd7LsG7dOk0dywBmAGsKB0PAOgS47WLTdph6BNcfgyE8GLiNnGmjxsZGTR3LAGYAawoHQyQ2EOF2t97uV65cYfiy69lVMoDkHLdv31bVswxgBrCqYDAErEOA2y52bXfkyBFXKV+2Mp2xMt3ezufOnVPVswxgBrCqYDBEYgcRbnvrbc/BVww8N8IYVbnU+jUDmAGsKhhqwsLbrIOB286ZttuxYwdbwOyCdp0MdHd3q+pZBjADWFUwGBjOAIPb2d52RvpJzv/MVrDbrODa2lpVPcsAZgCrCgaDwV4wcHs6157r1693nQXkNiDw/Tj/koKXQ6UeYAAzgEOEQikk/Nk5eHBbR97Wly9fZgCzG9p1MnDp0qUQXcsAZgCHCAVDIHIIcBvGtg3b29tdp4DZ6nTe6nRTm7MFzLBl2LIMxIUMnDp1igHMVrBrZAApKZEkRvlizhYwK+QQoVAKCX+OrTXH7W++/YeHh12jfN1khfG9xMYKb2hoUNWzDGAGsKpgsNI3r/S5zdzTZgzg2ICGAa/e7ihPqKYfGMAMYFXBUBMW3uYewPCz0H8WDGB1EDAgY9MuGzduVNWzDGAGsKpgsILXV/DcPu5uHwZwbEDDgFdvd9dlwgL5+Z/bgGWAZYBlgGUgnmXg3uh9Uv6jPcL9vSfcAbiI8sL8ObSxuU24TVgGWAZYBlgGhAwwgFXeSkTj8JI7CssAywDLAMtAtGSAAcwAZu8FywDLAMsAy0AMZIABHINGj9bbFF+X39RZBlgGWAa8IwMMYAYwv/myDLAMsAywDMRABhjAMWh0fkP1zhsqPyt+ViwD8SkD+fkFtGjxYlP/N27eMvUiwwBmAJsSGFZG8amM+Lnzc483GfjsZz9L3/jGN+gHP/hB2P/vf//79J73vIcuD1wxpU8ZwAxgUwITb52Qfy+Dh2UgPmUAAF63bl24WbjS/v/93/9lAHNHic+Ows+dnzvLAMuA3TLAAGbrlK1TlgGWAZYBloEYyIAvAbx6wqfoE5/U+f9uFh1Ra+yjWfQd2XlvtMvf+I7Rsu+Ka36Xlh2V75Ott08IfPd3Mo/RPcU1te9rAq1Wu6cH26Lzm+7TkczvBu43+Pfep3uy3/KJT4b+5vF7Ct43vl2016dIagud32f3m6WR64399uB7Dznv1DF65Lkd9JDK/9ff2EMvFJ+hM3dkz390gApniOP3Us2AfF/w+nDPfvqqdN09VHjqwT6d7wu6h4yzdG90kEpm4rsOUHvQPYxda7hz/4P73k8rrgV/N36n2P9829UHyvcOXdpznOYu3EPfevnBb3hhJ3179n7K7L1CN132/EKeFd8fQ9RjMhCfAJYgGwo8OYwkUE7oCBJo+X4toIzD54FidwrAFn+THLLK3zT+W8ZAGgxo+QvJg7YM91u1Xnxi1GlMAXjyPpqbfUj2v5+efGOnBLivzjxGxwO/QQ7gHTQONyUAb1Jr8tj5Dz2nAuCQ75N/9yGau7pfks3dZbvpoed209KDyuvfoa6MnfTQCzvpq8/tpBkb7wTJMuC1pWAXjX/3HTrcuJe+jheCl3fRk4kPvi9xHMb/nnGWrgR+p/L7+DO/ELAMhJOBwaGr9OUvfznw/+EPf5g+//nP01e+8hXpv6mpSXM82DNjwEpwaFmdwcCRA0VYbgrrSA4YNZio7Zdvk1nXofcU+kIgf5iO/KagF44OekN5v1r7H2w3co/BbR7bDmsKwJLFqbzf69SeBojtogU7BOAEgHfT9yfvoIcWnKB+NWhdO00TX9hB330LAFUBsOr3Kb//Pt3bdZi++dwOerxxUAHY87T4tR30zdzDNOOFHfTNgvOK/Zcpd9oOeuitI7Qb9/fgfh6acZT231J8z50hqliAlwX571Qco/YbeZuizbnN5DotHtcvXR6QAqkqKiqosrIy6B8Qzs3N9ROAVaAmd6vKISoD5XcmTAi4ooOBIYe0As6jGu5c+XXhkraolMbhFsXfpNEegZcFjf1jbSQHtuIetdrcYltYbUPleZED+D7d23hQsoIfqRt48GwFgA9SVgXgqu6GHnM/76elZXsiA/CdMzQNVmvaGRqRt+fBI/RdyfK9TisSZKAVxwycoOefk4F5y0HJHT7+OxSwkK63g35SfdmyDCvbnz8r2lg8G176VsYEgGHNKv9+9KMfxQGAR2UQlQFl3L0MeKgfA4UxfpxyXFN2zidlAHICwBr3O36v+r9pHO7jLxXyc5cFxonV9ottMgAHWcpjSmb8O2Rto6FobhxfQXMf/TZ99YufeTA+/Tl66D8fp7mtZ+h24JwH3zehjfq7kumRb/0N/Tks9s99hX4wbQUdvSlXbneof3MWPRd0TBt1LcX4t7h/+fGydTEmq2GRjqw7IAH4zc6bIQDuOnKUvv/cDhrfJ677wP2ccIp210UI4NGrVLNgBz302mHaEmib+3SqcS899NzY2G9/G9ZlVjaOk4Arc00/+J3fTDsToZsZbV1Mr/3wK/SXkgflM/SFbz1Oc5tP0A3Z/Y0943+jL3x6zNv0l3/7I3qtuI/6Rx600c4E+vonlX1sbN/tdTPoi5/8FD38/7d3rT9VXVn8vxi/AgmYyIciIkFtHJ3pKFZLZGrxQZzphyp0GhGordVaO0PRYSx0jBVizDCMaUapzwE0amqnWqmaVhlBCL4V0xGwFR31EuDLb7JfZz/uOZeHwL3qMrk53HvO2XuvtX9r/9Zee+3trv9Knd/DuZoiZKclC7wkTcavV1bhu04VlWDvSfssPoLWnctEvcnpKDjIHKfHuPKvUizLnO61h+Fobm4p6m+ZZQygL3Qb9SXLMTNZtvuXedh+5iy2svwQYzxhY0XXOW5Fb6YAAAzXSURBVFcP7NlOA8MKD3R9UZyxSASclZUFttd306ZNvp/S0tJnYxtSxMHedzYWTh6agNwB2njWNDiDaONMAjJ/d0O6xnd7ph1ukGMqk6GTQpl45tXHZDRkCLtvOBveO1Iu9eywjOvKTmQlJSBx+hKsrdyLuvoGVJevRCYf8DJQclbpRvZDegamJs1ATkkN6uprULJ4BifilOLjuC8H/K5jxZgaL8osqWlAXU0pcqZPRGISI3i3f1X58hpIwCHcu3oDa4rOY0pRO855SVB6BnyivxNVLAy95SZ6DPJR4V5GzNeemoAHZBnN2NWh2v5IzHpV+FvKYK5Hi7Vjc3bOiFysSb/8XgtK9t3A2as96PHkUmVHvobpurYKBfMYMU5E1k4RAeo6thbTGPEmv4oC3se636b+bo9MkGxG+ewExM3+TITIPf314psPUxGX9DYO9rC23MPR4gxOvJPmFWF7bQNqK4sEXtKLcdRLgpMEzPCS/nuU1zaguuQTHOgYwOWd2UiMn4hpi9fx9xmOPl3xqnAg0ktxxqv7KnYsZJhJRmZhFWrr92J7IXuOYckmYKUHT0ZPDxkoPDa8gxSGZT9eWyP3E5UZHf1EIuD58+cjLS0NOTk5ET89Dx4OK0Iw7gdxuETghVANwmO/eaTnQ0BW9rJJqP0D0OXrwVsTdgIs4jHIK6gdVlsCDEjXqdan/a8jkslooxtOdr8L58KY7Vu6MZwTR9dxBlFHMv7vP5uHl5IWo9ojE2Eoatbjydev6lqArW3mLOUOqnOYbtRMWw7k1mA8gL7u4yhMZ8/pPvRtlyJgnyxonpVc1IqjnaYxmwQ8AEF0dhYyDz/nX8LhB4o8jdnpYPW5WdMML3IdeN0pqYfeDr7uu+ALkajV1y/Wg7UjIGfNG8zksQH09f6MYzuaMTtfZXGz6wW8wrKgj99F52BkHDqF9amMNLfgBzWTZe0LtWPrgmRMee2v+L5f9kdqAeo9cmT660Urj0hMRN6hB3yAETb1K5RfNPQbOo5C5qDl13EHS+EiZdURdBm286StSjhy8jlvBhyfivVKT/z586jInIzEnBrcNt5n7eFEb+Dj/qG3OVFnVbYbs9heXK/JFdEX5ZArPbgyhtqxnRG45zwYcll10+++tvgc6EgRcGNjI86cOWN9Zs2ahcrKqmGR61D0FJsErIzFIlQ1aAsD0KRn/x6eOWwQkjfwSyMyyG3MCXjEMikySwAnWM8h0eTk6cKZEWtC1IOG92wYCcvyR2JIUo+6PtnmudvQ6pR3emMq4uKzseP6APratmFOfALmbGsPA3brtsyhE7BPVnLxH5tE1nBRC768ppwAm4D75NqpDkOL8HNGxS0+Kw6cAfvUp7Owr+CkSV6ScL1EK07ITShrUn2iMqLbcIKRqFw31gStnpPXxw/RduEGqv+uM72Zs5FR3IYT951nTd2f/tgJDfs8K0PLL5c1hfVHX88BvMUws+KAiF501GBRfALMZwUJahL96n02I52JsgtuXb04WszurcBePlNWNurYstl+52/hACgbeIC9KxIQl1SMo6Zzwd5RhKvs78RaTshmu9VA+eRYMb/31n7hZKjf6er23/P5vfveT/jFhAmYEPCpqflHuF04uBwuVmKOgPUgzjrZIB8/wpC/WbNa853BCMkgYLve4QEsIqmZs3neWcOXSZdfDL3mawxWJilX6r3Otl58ZDLkVw7IoO/0D+B/935Ey+kG1NVW4U8FyzFXru9pHUoZ1aBngNQaOGW7fevk99QA69N2VqaakQasAT+6fEXsE37/Ci7xNjgE3H8X2949D0W4Ivx8AWv+LdaMAwk4oD5/45Mh541XcbNfzrrzJdlKvYg9v3K7UhhBB8gu3w097MaRqos8ScuTQ96z2hNJ1+r5iM9IkvT6VJJe6sc4zd9/gIP5ExGXugHfcBK8gR0LWRRjCTbVN/DlCrZkoT5/K5iJuPhMbOVbtGTZPg6bkOExun9sxbf1LIT9CQpy52EKX/ZQ+HDbZurMvndtZzYPib+xWbdFtamuejVf2/ZzCC1dKn3RddQJ6UXTcxQJ2CCQICDLAUGRQ+DVGxSE4WnCWoDCYnWYhTJWwzgNAtLkYdwPapfzu65vbGQyQ+ieDszwsinHAiWv0RZDj75kZzgtkfTwpPNrlPA1QxliT5qMjMzlKHgv10nKiQ0C7uuX5LdSrcG6BKwIUYScQ41tyJDhZzYQjA4Bq3JYqFvW7647y6xntl2J12kR9M/Y95cLyMhvw0kHd3qwCpdL35N4jkiuQ3mmHVvn2mup1oxXzpBnVTTLQVkSXwTHmWFZ4NEmSd32Xtw9USpzDATmElOmY27uaqxZyghc2XTQ+0wu+56vLbltNG0rUOfDHye0XPQu6UJgIKYJWBObHPBdQ/G+K0OUwDYIxyMsh6Q5AEziGqttSI4Bj0gmH3lsovQZ7Ex5DTn1oKUHAXNQssvVz/T138GupWyNLBtl395At5nJLMvX7w6RgOV7fuFAa6bs6NAz3kFmwEMhYBGGZhnHIX44hjmLHC0CFnU0oazxJopW+h0AIgn085t2gpaUWxzKEWmfr1w3jkTSEULQP5TNxKS01dh/UmQ3+/VHWAiatU2u+aZ8eAq3d+UiLt5eExYh6ALUu2HhsP60SdLr344vsJStKS/cglPXfrIytW18RAhB9zfiI7b2rexBhqBXHVbLEibG6W9P92F9RLoZC93ELgGbpBHkkRrEpAd/BpTwMK99X4LJrMMjc3+y9585inI0qRqzTj8Am/UNSyZXHsfhsNbKRftteX0IOkDeYDllG8LChI9xsULMulM2NsrZzxAJOCjpJ9SEMpZl681wAox/EAIOXZNHVQaGoFm5Mgy9tQ3r8nX4mRnbqBGwTLTK+3MLMtwtRxInnGQ3NCOv4DzC9vsqOYsu4eDtkBP260XnqTbMYfuGP++wM7pNDHprodvQahJi9xGsYgTFE50GT8JavlttL2K6k8lQqfnIW6rK0H3lnxglEr9YwlNiyjvY38WeDyBgad9hIeFHLSjnR8+m4qPTor6guroOF/C1b4+Ae+qQx0m9ytYDSzSrzEZi0mT8gW9/0nKMxcBLZZJ+GQZiloDNWdmgpMDJxCY/TYoRBnKTEAMISc2gg9tgZl7bbXCNbOQyuQTqU4/hjOjQnglyl8R9HI0gp4AP5HKNL34iXnmzAtVsPa+mAiuyJvMtQ3yfr/f+UAl4ACojNi59EUa8DcknKWr95v+IJKyVTdjQqLYG+IdqRTb0eUwxws+s7wIJ2Kc+nYTFjom8gRaT/LxQuM+hG/I5Hv7mWdT+R1e2H2nhJMsyn2evbcF6fvSmTsQaNAmL7X0N2PIVlzQDJafFjDDSNqRJb+x0SGsAfTJxi2FuUc0dxzlQ25DYNqJSjRm19cnLWA4gYEmWcUm/wZvlbCub2Pb2WorapqZC2AznAduQkjIw1ZwB++nB2NqUuNAlZtOG6G93TKPvT4eJGCVgk3B8yMYY3EyitUjSJCSPGBxljSsBP51MJnlbe5mVLixZwmfIylBMfSnnYtCZpqrjUQt2F74uE2ASwNbjstd9iabOdvGfYXj7QodOwKxd7OCHD9ThEPKghnN7WDJZsBxcHjUz9NuG9E4TFm9ux8ErinxZ3/sTsNoqZIafWfmBBOxXn/VbG04oncmrOHDjPDKqXJKSmHwgwtPuoR2q39j10e1bqPz0IuatUudUX8Dsdy9i/b4OXHePqHTqF+W4B3EkY8pvi7C7+bFFnIMexGGVLWfNXkazY2OhTnzHDuKYJg9jiZcHt1iHfwQQMMNGc619cMi01/HBnou42yb+cxa95jyAvkfXcWidwic7ZCQP28+dDVu7ZjN3cSCJPtxjUto8LCtxD4lxZLHkpnsmNunvkeFh3AmYOmpkHUV6I70RBkaCAekMBjnhRKqW80UYGwnGRv4OETAZIBkgYeCZx8Dlymy8NC0P/3QOiVFrwHZOxMgHTCIo0t1oYoAImAbfZ37wHU2DoLKe0QHWOCaV5xKw9eKSJeJYzfS1+Iof+PGMykZj1HM7RhEBE7ifW3ATmb5YhCP+gwW9rityFGhdl+wgdu2ACJgImAiYMEAYIAwQBqKAASLgKCidPNLY9Uipb6hvCAOEgfHCABEwETB5voQBwgBhgDAQBQwQAUdB6ePlXVE95MkTBggDhIHYxQARMBEweb6EAcIAYYAwEAUMEAFHQenkkcauR0p9Q31DGCAMjBcGiICJgMnzJQwQBggDhIEoYIAIOApKHy/viuohT54wQBggDMQuBoiAiYDJ8yUMEAYIA4SBKGCACDgKSiePNHY9Uuob6hvCAGFgvDBABEwETJ4vYYAwQBggDEQBA6NGwKwg+pAOCAOEAcIAYYAwMHQMYJB//wde23gfw1f25gAAAABJRU5ErkJggg==;" parent="1" vertex="1">
          <mxGeometry x="-700" y="-131.13" width="330" height="356.13" as="geometry" />
        </mxCell>
        <mxCell id="nDVw2krUvJT1cIF6sBkJ-4" value="Grant 1990 AMARV tech&lt;br&gt;US had a huge advantage in this in the CW&lt;br&gt;Most comparable system is Chinese from ~2005" style="text;html=1;resizable=0;points=[];autosize=1;align=left;verticalAlign=top;spacingTop=-4;" parent="1" vertex="1">
          <mxGeometry x="-290" y="330" width="270" height="40" as="geometry" />
        </mxCell>
      </root>
    </mxGraphModel>
  </diagram>
</mxfile>
